<svg width="344" height="242" viewBox="0 0 344 242" fill="none" xmlns="http://www.w3.org/2000/svg">
<g clip-path="url(#clip0_99_32149)">
<path d="M307.443 147.798L307.454 147.734C310.825 127.912 315.92 97.9613 317.203 86.0085C318.485 74.0558 312.045 67.6435 305.593 65.623C304.104 65.1551 301.607 64.6021 295.468 64.4213C291.758 64.315 288.529 64.3575 285.709 64.5224C285.683 64.2512 285.661 63.98 285.635 63.7142L285.614 63.5068C285.566 63.0176 285.524 62.5338 285.481 62.034L285.46 61.8213C284.914 56.6053 283.467 42.7384 267.373 38.639C267.235 38.6018 267.097 38.5699 266.938 38.538C264.081 37.9106 261.25 37.8042 258.541 38.1764C257.057 35.7625 254.926 33.7314 252.286 32.3223C246.169 29.1002 238.286 29.5362 232.667 33.3964C231.713 34.0557 230.849 34.7948 230.08 35.603C225.314 33.641 220.464 32.8381 216.096 32.2532C209.406 31.3599 204.063 32.4872 200.209 35.6136C199.8 35.4222 199.392 35.2414 198.974 35.0659C193.243 32.7052 186.951 30.7219 180.277 29.1746C162.725 25.1124 144.627 29.063 130.309 39.7502L125.363 38.4316C115.249 35.7306 104.573 36.7248 95.2164 40.9094C94.1085 41.3081 93.0801 41.8345 92.1206 42.4407C88.5742 44.3654 85.261 46.7687 82.2978 49.6293L81.6935 50.2142C76.5302 48.3745 70.6408 49.3475 66.4901 53.2502C63.4738 56.0789 61.8358 59.9603 61.8676 64.1714C61.8782 65.7187 62.1273 67.2341 62.5832 68.6909L58.3106 72.8223C51.2337 79.6547 48.1538 89.4965 50.0622 99.1576L52.5166 113.37C51.4457 113.407 50.3272 113.503 49.1504 113.668C35.3253 115.603 25.6138 130.565 26.5574 148.468C27.0504 157.799 30.2575 165.674 35.8395 171.241C35.8766 171.278 35.9137 171.31 35.9508 171.347C35.9614 172.107 36.0091 172.878 36.1099 173.644C36.6559 177.908 38.5536 181.827 41.4533 184.677C44.2787 187.452 47.8994 189.042 51.6525 189.149C52.3946 189.17 53.1474 189.133 53.8736 189.037C60.3621 188.197 65.3557 183.002 66.8665 176.356C67.7199 175.888 68.5416 175.361 69.3314 174.787C75.2209 184.597 82.865 190.308 88.5848 194.583C90.0903 195.71 91.5163 196.773 92.7461 197.783L93.3557 198.289C100.449 204.148 112.323 213.958 130.765 214.5L131.115 214.511C144.834 214.825 157.122 208.566 166.828 196.768C169.987 200.288 173.619 202.755 177.706 204.137C181.21 205.323 185.615 206.073 189.792 206.195C197.897 206.434 205.319 204.377 211.267 200.245C214.352 198.102 217.108 195.428 219.483 192.302C220.888 194.662 222.473 196.592 224.259 198.15C229.539 202.75 236.128 205.291 243.311 205.499C250.977 205.722 258.965 203.106 265.475 198.443C269.642 203.01 275.801 205.908 282.884 206.397C288.826 206.822 294.896 204.52 299.539 200.08C303.902 195.907 306.463 190.27 306.569 184.624C306.669 179.089 305.429 174.245 302.943 170.337C304.326 167.524 304.65 164.802 304.83 163.313C304.952 162.298 306.261 154.598 307.417 147.803L307.443 147.798Z" fill="white"/>
<path d="M298.861 162.584C298.999 161.446 300.155 154.651 301.49 146.782L301.501 146.718C304.862 126.971 309.935 97.1261 311.202 85.3595C312.294 75.1933 306.383 72.2105 303.796 71.4023C303.203 71.2162 301.39 70.6526 295.294 70.4718C288.476 70.2751 283.589 70.6154 280.053 71.2002C280.053 68.7969 279.83 66.4415 279.629 64.2721C279.576 63.6979 279.523 63.129 279.475 62.5707C279.475 62.5335 279.47 62.4909 279.465 62.4537C278.654 54.7227 276.448 47.1938 265.862 44.498C265.793 44.4821 265.724 44.4661 265.661 44.4502C261.828 43.6101 258.064 44.0195 254.836 45.5242C254.481 42.2223 252.53 39.3033 249.493 37.6816C245.368 35.5069 239.855 35.7994 236.086 38.3888C234.194 39.6914 232.874 41.4939 232.248 43.525C226.905 40.0424 220.708 38.9789 215.306 38.2558C210.313 37.5912 206.512 38.2877 203.994 40.3295C202.218 41.7757 201.142 43.8281 200.972 46.1091C200.262 55.5096 201.709 71.1152 203.013 80.8135C200.31 80.0531 197.638 79.766 195.422 79.7022C191.558 79.5905 187.396 80.101 183.707 81.1484C172.214 84.1526 164.798 88.587 160.881 102.289C160.881 102.3 160.865 102.342 160.865 102.353C160.796 102.608 160.732 102.906 160.695 103.166C158.198 120.16 159.566 149.552 160.271 161.399C160.658 167.928 161.951 174.181 164.119 179.987C167.841 189.972 173.068 196.161 179.662 198.389C182.578 199.373 186.442 200.027 189.999 200.128C196.806 200.325 202.987 198.639 207.864 195.252C214.05 190.956 218.042 184.528 220.353 177.982C222.892 187.638 225.85 191.477 228.251 193.567C232.471 197.235 237.751 199.267 243.524 199.437C251.989 199.687 260.953 195.699 266.854 189.201C269.112 195.46 275.245 199.793 283.356 200.351C287.596 200.654 292.023 198.937 295.416 195.694C298.623 192.626 300.505 188.547 300.579 184.506C300.69 178.456 298.829 173.697 295.347 170.592C296.184 169.858 296.894 168.949 297.451 167.891C298.474 165.934 298.718 163.919 298.877 162.584H298.861Z" fill="#160830"/>
<path d="M207.148 46.5824C207.349 43.8866 211.972 44.0833 214.485 44.4183C219.144 45.0404 224.625 45.9124 229.025 48.8368C233.054 51.5166 234.894 56.3976 235.54 60.6778C236.871 69.4935 235.964 78.894 231.628 82.9828C228.564 85.8753 224.572 87.8798 220.517 88.7784C217.453 89.1559 211.071 90.2938 210.302 87.0344C209.226 82.4777 206.241 58.6201 207.153 46.577L207.148 46.5824ZM224.371 63.1184C223.92 60.747 222.266 54.7334 217.845 54.744C216.409 54.744 216.732 55.5416 216.928 56.7592C217.729 61.6774 218.662 73.3005 219.07 76.1451C219.187 76.9586 219.208 78.7452 220.74 78.0593C222.537 77.2564 225.58 74.3214 225.134 69.0362C225.012 67.5847 224.726 64.9634 224.371 63.1237V63.1184Z" fill="white"/>
<path d="M239.666 79.0804C239.348 78.3785 239.416 77.2194 239.3 76.4112C238.881 71.5621 237.837 58.2748 238.192 54.5901C238.367 52.7504 241.187 52.8674 243.398 52.8993C248.709 52.9737 249.388 53.6118 249.483 55.8821C250.019 63.0495 249.6 69.1216 250.119 76.3049C250.162 77.262 250.087 78.3945 249.42 79.1283C248.651 80.0056 247.209 80.1598 245.958 80.1757C239.899 80.2555 239.666 79.0857 239.666 79.0857V79.0804ZM238.054 46.6571C237.63 42.9564 243.212 41.3985 246.61 43.1903C249.34 44.6472 249.457 48.5871 246.552 49.9111C243.355 51.453 238.229 50.2301 238.065 46.7474V46.6571H238.054Z" fill="white"/>
<path d="M252.966 71.5837C252.642 67.4683 252.388 63.3157 252.589 59.1577C252.701 56.9565 253.199 54.9147 254.365 53.5004C256.973 50.4856 260.891 49.7678 264.342 50.5228C270.332 52.0488 272.468 55.1114 273.306 63.103C273.788 68.7656 274.848 75.7256 271.615 80.075C269.462 83.2705 265.937 83.7278 262.788 83.3715C257.403 82.9249 253.533 79.0382 252.982 71.69L252.971 71.5837H252.966ZM265.137 71.9133C264.972 68.5051 264.877 65.1234 264.538 61.7259C264.14 57.6583 261.728 57.5892 261.283 61.2101C261.092 63.1774 261.521 65.5913 261.537 67.7501C261.649 69.7493 261.612 72.1632 262.221 73.8328C263.25 76.6508 265.238 75.1992 265.131 72.0143V71.908L265.137 71.9133Z" fill="white"/>
<path d="M167.38 104.161C170.37 93.6864 175.231 90.3686 185.483 87.6941C192.438 85.7108 201.731 85.8863 206.602 90.1133C216.844 98.9981 215.296 111.913 215.19 124.323C215.057 126.535 215.402 127.737 212.767 128.066C208.065 128.805 203.326 129.183 198.571 129.428C196.806 129.47 194.102 129.821 193.843 127.529C193.382 124.626 194.426 121.277 192.836 118.629C191.531 116.422 188.028 116.396 186.575 118.469C184.2 121.861 185.234 131.496 186.008 142.63C186.066 143.449 187.455 155.885 188.054 161.224C188.218 162.712 189.395 163.882 190.879 164.031C193.254 164.275 196.504 164.212 197.045 162.181C197.585 160.149 197.553 155.088 197.32 152.913C197.225 152.03 196.461 151.371 195.576 151.419C193.896 151.509 192.443 152.376 192.162 150.573C191.372 145.554 191.277 144.156 191.33 139.099C191.362 136.01 191.934 135.962 193.843 135.835C197.925 135.563 212.884 133.809 214.533 135.574C216.181 137.339 216.547 157.863 216.086 165.36C215.529 174.389 211.681 184.347 203.989 189.686C195.772 195.391 184.979 193.046 181.799 191.972C176.291 190.111 172.67 183.63 170.433 177.621C168.451 172.294 167.343 166.679 167.004 161.006C166.314 149.388 164.963 120.548 167.369 104.166L167.38 104.161ZM301.788 77.8788C298.771 76.9377 278.919 76.5443 275.558 79.8089C275.012 80.3406 274.752 81.2445 274.699 82.0899C274.259 89.3849 275.622 125.839 276.396 162.436C276.449 164.967 277.79 165.493 280.244 165.653C283.605 165.871 286.081 165.972 289.108 166.025C291.61 166.067 291.896 163.909 292.15 161.771C292.654 157.565 302.684 101.385 304.481 84.6315C304.772 81.9251 304.698 78.788 301.788 77.8788ZM232.673 188.452C241.584 196.21 255.642 192.509 262.777 183.539C269.494 175.186 268.216 163.701 268.317 153.625C267.872 138.451 271.524 103.294 263.599 91.3735C257.386 82.0261 240.174 80.2077 228.284 92.9527C223.624 97.9454 222.765 104.001 221.779 110.446C221.355 113.221 220.947 178.249 232.668 188.452H232.673ZM240.879 116.566C241.096 111.27 243.27 110.674 244.648 110.563C246.09 110.451 247.574 110.977 248.014 117.283C248.841 129.183 249.207 146.224 249.085 158.969C249.042 163.318 247.993 165.913 246.111 166.211C243.953 166.551 243.471 163.377 243.005 160.25C241.526 150.393 240.677 121.564 240.884 116.56L240.879 116.566ZM282.895 173.272C275.187 173.309 272.786 178.392 272.669 183.449C272.531 189.377 277.095 193.126 283.844 193.588C288.609 193.918 293.714 189.26 293.804 184.385C293.937 177.111 290.47 173.235 282.895 173.272Z" fill="#F75BC8"/>
<path d="M267.293 164.424C265.644 163.664 264.653 162.605 264.292 160.994C263.768 158.644 265.506 156.097 267.887 155.746C268.369 155.677 268.554 155.847 268.576 156.321C268.698 159.229 268.634 162.132 268.565 165.035C268.512 167.391 268.321 169.725 267.95 172.049C267.113 177.243 265.109 181.885 261.324 185.623C258.557 188.356 255.344 190.419 251.612 191.599C251.406 191.663 251.13 191.892 250.976 191.631C250.844 191.408 251.109 191.211 251.262 191.036C251.983 190.19 252.943 189.749 254.035 189.494C252.222 188.138 251.867 187.617 251.384 185.602C250.52 187.308 249.227 188.308 247.197 188.446C248.633 188.994 249.566 189.85 250.102 191.131C250.345 191.711 250.356 192.041 249.577 192.211C245.124 193.168 240.766 193.083 236.563 191.126C235.614 190.685 234.744 190.111 233.875 189.531C233.265 189.122 233.509 188.813 233.854 188.478C235.047 187.324 236.451 186.809 238.095 187.239C239.712 187.665 240.777 188.723 241.275 190.323C241.381 190.664 241.429 191.014 241.514 191.392C242.632 189.302 242.919 189.074 245.532 188.186C243.279 186.931 242.235 185.118 242.956 182.582C243.459 180.806 244.991 179.689 247.138 179.471C245.999 178.929 245.103 178.248 244.583 177.19C244.048 176.105 243.984 174.968 244.366 173.824C244.944 172.086 246.741 170.826 248.517 170.879C250.722 170.948 252.201 172.251 252.895 174.835C253.77 173.075 255.058 172.017 257.152 171.91C255.922 171.416 255.053 170.703 254.539 169.613C254.03 168.545 253.94 167.455 254.311 166.327C254.904 164.52 256.738 163.19 258.551 163.27C260.905 163.376 262.395 164.828 262.962 167.678C263.736 165.727 265.103 164.668 267.288 164.424H267.293ZM251.665 183.815C252.408 181.949 253.712 181.024 255.572 180.63C253.812 179.795 252.895 178.503 252.678 176.6C251.904 178.392 250.658 179.391 248.649 179.668C250.441 180.561 251.464 181.795 251.665 183.82V183.815ZM262.723 169.108C262.018 170.863 260.682 171.788 258.753 172.144C260.481 172.963 261.414 174.197 261.674 176.042C262.395 174.425 263.571 173.479 265.321 173.08C263.715 172.123 262.941 170.826 262.723 169.108ZM257.629 180.912C258.387 181.279 258.97 181.662 259.458 182.183C259.961 182.72 260.189 183.422 260.603 184.118C261.329 183.076 262.204 182.358 263.349 182.002C263.715 181.89 263.688 181.736 263.412 181.539C262.241 180.721 261.605 179.572 261.387 178.046C260.624 179.705 259.405 180.588 257.629 180.912Z" fill="#EA00A4"/>
<path d="M281.517 163.791C281.056 164.259 280.706 164.684 280.282 165.03C278.978 166.098 277.027 165.439 276.582 163.796C276.259 162.589 276.253 161.345 276.338 160.127C276.391 159.34 276.391 158.559 276.365 157.777C276.349 157.315 276.396 156.942 277.128 156.793C276.375 156.57 276.312 156.134 276.301 155.629C276.253 153.635 276.206 151.641 276.11 149.647C276.078 149.015 276.322 148.696 276.874 148.451C279.635 147.233 282.715 149.105 283.102 152.338C283.516 151.498 283.961 150.775 284.655 150.243C285.36 149.701 286.166 149.435 287.03 149.249C284.634 147.552 283.85 145.856 284.475 143.724C285.069 141.709 286.622 140.651 289.209 140.502C286.802 139.598 285.482 137.881 285.679 135.908C285.901 133.648 287.391 132.08 289.617 131.745C291.743 131.426 293.317 132.686 294.59 135.775C295.024 134.887 295.56 134.116 296.413 133.643C296.593 133.542 296.8 133.361 296.991 133.484C297.214 133.627 297.145 133.904 297.102 134.138C296.763 136.169 296.413 138.2 296.079 140.236C296.047 140.428 296.016 140.63 295.825 140.683C295.618 140.741 295.501 140.539 295.39 140.401C294.738 139.593 294.309 138.689 294.314 137.408C293.492 139.497 292.04 140.406 289.914 140.614C291.897 141.331 292.989 142.634 293.286 144.708C293.747 143.756 294.266 143.017 295.056 142.507C295.21 142.411 295.379 142.267 295.554 142.384C295.697 142.475 295.671 142.666 295.644 142.82C295.295 144.851 294.95 146.882 294.59 148.914C294.558 149.084 294.452 149.238 294.351 149.451C293.487 148.733 293.248 147.77 292.989 146.734C292.533 147.467 292.119 148.175 291.42 148.653C290.746 149.116 290.015 149.419 288.97 149.514C290.662 150.238 291.573 151.386 292.024 153.045C292.575 152.322 293.01 151.694 293.662 151.285C293.789 151.205 293.927 151.072 294.081 151.184C294.139 151.227 294.155 151.37 294.139 151.46C293.757 153.72 293.376 155.98 292.962 158.383C292.141 157.756 291.928 156.921 291.589 155.985C290.805 157.304 289.75 158.064 288.26 158.458C289.495 159.25 290.322 160.17 290.73 161.526C291.229 160.935 291.605 160.361 292.183 159.994C292.315 159.909 292.459 159.782 292.612 159.872C292.761 159.962 292.729 160.143 292.702 160.303C292.496 161.536 292.284 162.77 292.077 164.003C291.981 164.567 291.706 165.051 291.351 165.46C291.139 165.705 290.752 166.247 290.434 165.476C290.354 165.274 290.169 165.258 290.073 165.418C289.331 166.657 288.101 166.231 287.083 166.183C285.991 166.136 284.894 166.098 283.807 166.082C282.811 166.072 282.307 165.662 281.941 164.87C281.788 164.54 281.666 164.2 281.496 163.801L281.517 163.791ZM282.842 154.119C282.058 155.89 280.786 156.772 278.978 157.081C280.542 157.74 281.491 158.83 282.016 160.483C282.821 159.165 283.892 158.426 285.424 158.032C283.892 157.118 283.118 155.874 282.842 154.124V154.119Z" fill="#EA00A4"/>
<path d="M279.517 177.482C280.158 176.669 280.864 176.063 281.743 175.68C282.136 175.51 281.918 175.334 281.733 175.175C281.357 174.845 281.033 174.468 280.758 174.048C280.477 173.617 280.598 173.314 281.081 173.271C283.572 173.053 286.037 173.144 288.428 173.989C288.836 174.133 288.783 174.356 288.55 174.638C288.025 175.276 287.31 175.659 286.557 176.105C287.219 176.642 287.765 177.195 288.137 177.897C288.28 178.163 288.455 178.232 288.683 177.982C289.186 177.44 289.822 177.078 290.501 176.712C289.891 176.01 289.244 175.382 289.032 174.383C289.753 174.484 290.241 174.914 290.723 175.297C292.547 176.727 293.453 178.695 293.846 180.923C294.132 182.55 294.291 184.198 293.936 185.836C293.337 188.59 291.704 190.626 289.414 192.184C288.762 192.631 288.062 192.966 287.326 193.242C286.949 193.386 286.583 193.561 286.334 193.045C286.249 192.865 286.096 192.843 285.958 192.987C284.866 194.12 283.562 193.705 282.274 193.54C281.335 193.418 280.445 193.115 279.538 192.881C278.733 192.673 278.096 192.285 277.778 191.477C277.662 191.174 277.529 190.929 277.185 191.296C276.867 191.636 276.58 191.44 276.299 191.206C274.285 189.542 272.981 187.516 272.774 184.815C272.525 181.619 273.082 178.684 275.149 176.159C275.557 175.664 276.119 175.292 276.628 174.888C276.951 174.633 277.259 174.797 277.561 174.994C278.473 175.579 279.013 176.467 279.512 177.477L279.517 177.482ZM280.556 184.278C279.883 183.64 279.363 182.964 279.04 182.151C278.881 181.752 278.722 181.933 278.552 182.135C278.07 182.698 277.481 183.129 276.803 183.432C276.522 183.555 276.321 183.682 276.676 183.964C277.238 184.405 277.672 184.958 278.006 185.591C278.134 185.836 278.293 185.995 278.536 185.719C279.082 185.107 279.787 184.708 280.551 184.278H280.556ZM288.767 185.416C288.741 185.368 288.725 185.32 288.693 185.277C288.311 184.788 288.009 184.15 287.511 183.863C287.198 183.687 286.811 184.384 286.382 184.586C286.239 184.65 286.112 184.746 285.974 184.82C285.709 184.953 285.746 185.096 285.905 185.314C286.986 186.825 287.023 186.835 288.492 185.75C288.608 185.66 288.794 185.623 288.767 185.416Z" fill="#EA00A4"/>
<path d="M242.638 182.544C242.707 184.99 240.878 186.899 238.413 186.957C236.022 187.016 234.114 185.187 234.045 182.762C233.976 180.316 235.805 178.408 238.27 178.349C240.661 178.291 242.569 180.12 242.638 182.544Z" fill="#EA00A4"/>
<path d="M275.951 143.884C275.871 141.364 276.968 139.816 279.031 139.439C281.215 139.04 283.287 140.183 284.019 142.188C284.772 144.24 283.902 146.521 281.962 147.579C280.128 148.584 277.801 148.036 276.454 146.356C275.818 145.564 276.041 144.66 275.945 143.889L275.951 143.884Z" fill="#EA00A4"/>
<path d="M259.665 154.529C262.035 154.46 264.007 156.321 264.076 158.697C264.144 161.074 262.289 163.047 259.914 163.116C257.545 163.185 255.573 161.324 255.504 158.947C255.435 156.57 257.29 154.598 259.665 154.529Z" fill="#EA00A4"/>
<path d="M295.66 128.241C295.13 129.842 294.223 131.081 292.511 131.554C290.263 132.176 287.931 130.868 287.284 128.608C286.638 126.359 287.926 123.998 290.163 123.334C292.405 122.664 294.769 123.929 295.469 126.152C295.686 126.843 295.692 127.539 295.66 128.252V128.241Z" fill="#EA00A4"/>
<path d="M285.497 134.829C285.597 137.105 283.694 139.162 281.399 139.263C279.125 139.364 277.073 137.461 276.973 135.158C276.872 132.883 278.775 130.825 281.07 130.724C283.344 130.623 285.396 132.527 285.497 134.829Z" fill="#EA00A4"/>
<path d="M239.744 178.195C237.433 178.232 235.403 176.275 235.408 174.005C235.408 171.697 237.301 169.735 239.548 169.698C241.86 169.661 243.89 171.618 243.885 173.888C243.885 176.196 241.992 178.158 239.744 178.195Z" fill="#EA00A4"/>
<path d="M265.232 149.812C265.306 152.184 263.568 154.039 261.198 154.103C258.871 154.172 257.032 152.434 256.957 150.099C256.883 147.728 258.622 145.872 260.991 145.809C263.319 145.74 265.158 147.478 265.232 149.812Z" fill="#EA00A4"/>
<path d="M292.627 122.717C290.315 122.781 288.46 121.01 288.396 118.687C288.328 116.336 290.109 114.475 292.478 114.422C294.779 114.374 296.618 116.156 296.671 118.495C296.724 120.803 294.954 122.653 292.627 122.717Z" fill="#EA00A4"/>
<path d="M282.699 130.256C280.435 130.341 278.479 128.512 278.416 126.247C278.352 124.014 280.149 122.079 282.381 121.994C284.644 121.909 286.6 123.738 286.664 126.003C286.728 128.241 284.931 130.171 282.699 130.256Z" fill="#EA00A4"/>
<path d="M230.944 176.733C228.786 176.818 226.825 174.999 226.719 172.809C226.613 170.634 228.506 168.603 230.69 168.555C232.863 168.507 234.808 170.347 234.877 172.516C234.946 174.686 233.117 176.642 230.944 176.733Z" fill="#EA00A4"/>
<path d="M266.45 141.119C266.519 143.32 264.728 145.24 262.522 145.309C260.322 145.378 258.414 143.581 258.34 141.374C258.271 139.173 260.063 137.254 262.268 137.185C264.468 137.115 266.376 138.913 266.45 141.119Z" fill="#EA00A4"/>
<path d="M297.844 109.546C297.929 111.811 296.227 113.646 293.964 113.72C291.705 113.795 289.882 112.077 289.818 109.812C289.755 107.579 291.43 105.771 293.656 105.681C295.92 105.585 297.754 107.281 297.839 109.546H297.844Z" fill="#EA00A4"/>
<path d="M254.067 166.258C254.131 168.496 252.35 170.474 250.102 170.655C247.934 170.831 245.85 169.134 245.564 166.949C245.517 166.582 245.458 166.194 246.01 166.136C247.276 165.997 247.87 165.104 248.31 164.051C248.4 163.833 248.459 163.61 248.528 163.381C248.93 162.031 249.111 161.925 250.542 162.196C252.524 162.573 254.003 164.28 254.062 166.258H254.067Z" fill="#EA00A4"/>
<path d="M240.847 160.957C241.297 160.946 241.727 161.047 242.161 161.17C243.068 161.42 243.672 161.909 243.778 162.93C243.863 163.77 244.149 164.578 244.653 165.259C245.04 165.78 244.913 166.226 244.701 166.721C243.906 168.571 241.833 169.576 239.903 169.05C237.979 168.523 236.627 166.598 236.855 164.722C237.115 162.611 238.817 161.01 240.852 160.962L240.847 160.957Z" fill="#EA00A4"/>
<path d="M287.819 117.208C287.866 119.415 286.128 121.201 283.891 121.249C281.685 121.297 279.904 119.558 279.856 117.315C279.809 115.103 281.547 113.322 283.785 113.274C285.99 113.226 287.771 114.964 287.819 117.208Z" fill="#EA00A4"/>
<path d="M231.984 159.825C234.094 159.766 236.018 161.601 236.044 163.701C236.071 165.796 234.295 167.667 232.217 167.731C230.107 167.79 228.183 165.955 228.157 163.855C228.13 161.76 229.906 159.888 231.984 159.825Z" fill="#EA00A4"/>
<path d="M263.541 128.449C265.614 128.348 267.501 130.086 267.623 132.208C267.745 134.303 265.932 136.259 263.817 136.318C261.728 136.382 259.852 134.622 259.772 132.521C259.693 130.437 261.437 128.55 263.541 128.449Z" fill="#EA00A4"/>
<path d="M299.068 100.858C299.142 102.948 297.398 104.83 295.293 104.926C293.194 105.022 291.249 103.198 291.212 101.087C291.174 98.9814 292.94 97.1151 295.028 97.0566C297.122 96.9981 298.993 98.7581 299.068 100.858Z" fill="#EA00A4"/>
<path d="M252.07 144.666C253.899 144.613 255.478 145.697 256.04 147.361C256.623 149.095 255.987 150.95 254.455 151.993C253.035 152.96 251.116 152.881 249.769 151.801C249.335 151.456 249.123 151.057 249.08 150.472C248.995 149.137 249.17 147.808 249.138 146.479C249.128 146.123 249.335 145.894 249.568 145.681C250.294 145.022 251.132 144.65 252.07 144.666Z" fill="#EA00A4"/>
<path d="M253.431 136.105C255.615 136.036 257.306 137.626 257.381 139.806C257.455 142.034 255.859 143.725 253.627 143.783C251.454 143.842 249.779 142.236 249.721 140.04C249.657 137.86 251.253 136.169 253.437 136.105H253.431Z" fill="#EA00A4"/>
<path d="M285.286 112.226C283.113 112.301 281.395 110.7 281.321 108.536C281.247 106.356 282.842 104.633 285.005 104.564C287.178 104.49 288.896 106.09 288.97 108.254C289.044 110.434 287.449 112.157 285.286 112.226Z" fill="#EA00A4"/>
<path d="M300.23 92.0214C300.283 94.0419 298.586 95.8497 296.567 95.9188C294.526 95.9879 292.676 94.2227 292.654 92.1916C292.633 90.1551 294.351 88.3686 296.355 88.3314C298.38 88.2942 300.171 90.0063 300.224 92.0214H300.23Z" fill="#EA00A4"/>
<path d="M202.097 190.259C200.061 190.334 198.216 188.595 198.169 186.553C198.126 184.528 199.812 182.736 201.832 182.661C203.867 182.587 205.712 184.325 205.76 186.367C205.802 188.393 204.117 190.185 202.097 190.259Z" fill="#EA00A4"/>
<path d="M268.629 123.382C268.709 125.391 267.029 127.215 265.004 127.311C262.973 127.407 261.107 125.657 261.06 123.616C261.012 121.59 262.714 119.787 264.728 119.723C266.742 119.66 268.55 121.356 268.629 123.376V123.382Z" fill="#EA00A4"/>
<path d="M237.199 154.933C237.279 156.974 235.54 158.825 233.499 158.867C231.479 158.915 229.688 157.224 229.608 155.199C229.529 153.157 231.267 151.306 233.308 151.264C235.328 151.216 237.12 152.907 237.199 154.933Z" fill="#EA00A4"/>
<path d="M258.547 130.948C258.622 133.058 257.047 134.733 254.937 134.787C252.859 134.84 251.221 133.292 251.147 131.208C251.073 129.097 252.647 127.422 254.757 127.369C256.835 127.316 258.473 128.863 258.547 130.948Z" fill="#EA00A4"/>
<path d="M286.41 103.395C284.3 103.464 282.635 101.879 282.593 99.7686C282.545 97.6897 284.098 96.0467 286.176 95.9829C288.286 95.9138 289.951 97.4982 289.993 99.6091C290.041 101.688 288.488 103.331 286.41 103.395Z" fill="#EA00A4"/>
<path d="M206.755 177.488C206.814 179.471 205.17 181.205 203.193 181.253C201.21 181.3 199.493 179.647 199.456 177.664C199.419 175.712 201.03 174.011 202.981 173.942C204.958 173.872 206.697 175.505 206.755 177.493V177.488Z" fill="#EA00A4"/>
<path d="M234.831 149.85C232.859 149.919 231.104 148.26 231.067 146.287C231.03 144.331 232.636 142.624 234.587 142.555C236.559 142.486 238.314 144.145 238.351 146.117C238.388 148.074 236.782 149.781 234.831 149.85Z" fill="#EA00A4"/>
<path d="M301.373 83.1155C301.458 85.0403 299.846 86.7949 297.906 86.8959C295.961 86.9969 294.164 85.3221 294.111 83.3601C294.058 81.4194 295.685 79.686 297.62 79.6169C299.549 79.5478 301.288 81.1695 301.373 83.1102V83.1155Z" fill="#EA00A4"/>
<path d="M251.136 153.375C252.551 153.412 253.887 154.162 254.656 155.751C255.419 157.32 255.202 158.841 254.089 160.165C252.981 161.489 251.539 161.941 249.848 161.515C249.275 161.372 248.989 161.164 249.031 160.388C249.132 158.671 249.201 156.937 249.09 155.209C248.994 153.726 249.302 153.439 251.131 153.375H251.136Z" fill="#EA00A4"/>
<path d="M196.72 185.017C196.805 186.952 195.177 188.701 193.232 188.765C191.292 188.829 189.558 187.191 189.511 185.25C189.468 183.326 191.032 181.646 192.962 181.545C194.881 181.443 196.635 183.065 196.72 185.022V185.017Z" fill="#EA00A4"/>
<path d="M259.723 122.068C259.808 123.988 258.249 125.689 256.309 125.79C254.374 125.891 252.625 124.27 252.572 122.313C252.519 120.383 254.098 118.697 256.023 118.628C257.942 118.559 259.633 120.133 259.717 122.068H259.723Z" fill="#EA00A4"/>
<path d="M287.491 87.3003C289.5 87.2418 291.048 88.704 291.106 90.7245C291.165 92.7396 289.702 94.2922 287.687 94.3507C285.678 94.4092 284.13 92.947 284.072 90.9265C284.014 88.9113 285.477 87.3588 287.491 87.3003Z" fill="#EA00A4"/>
<path d="M268.879 114.784C268.89 115.071 268.895 115.358 268.906 115.65C268.959 117.442 268.095 118.373 266.292 118.452C264.834 118.516 263.393 117.586 262.815 116.203C262.237 114.816 262.587 113.173 263.684 112.168C264.84 111.11 266.472 110.902 267.835 111.615C268.492 111.96 268.911 112.402 268.837 113.215C268.789 113.731 268.858 114.263 268.874 114.784H268.879Z" fill="#EA00A4"/>
<path d="M204.301 165.237C206.188 165.179 207.863 166.774 207.895 168.656C207.922 170.528 206.379 172.155 204.518 172.213C202.631 172.272 200.956 170.677 200.924 168.795C200.898 166.923 202.44 165.296 204.301 165.237Z" fill="#EA00A4"/>
<path d="M236.14 140.821C234.258 140.896 232.572 139.317 232.525 137.424C232.477 135.558 234.014 133.915 235.875 133.84C237.757 133.766 239.442 135.345 239.49 137.238C239.538 139.104 238 140.747 236.14 140.821Z" fill="#EA00A4"/>
<path d="M209.592 169.762C209.613 168.598 210.27 167.46 211.585 166.774C212.9 166.088 214.204 166.226 215.439 167.072C215.974 167.439 216.202 167.907 216.096 168.539C215.868 169.901 215.63 171.256 215.29 172.596C215.158 173.112 214.861 173.383 214.368 173.543C212.057 174.287 209.661 172.559 209.597 169.762H209.592Z" fill="#EA00A4"/>
<path d="M194.543 179.737C192.709 179.811 191.007 178.205 190.975 176.371C190.938 174.542 192.481 172.904 194.299 172.835C196.133 172.761 197.835 174.367 197.867 176.201C197.904 178.03 196.361 179.668 194.543 179.737Z" fill="#EA00A4"/>
<path d="M257.327 110.083C259.177 110.009 260.778 111.487 260.868 113.353C260.959 115.23 259.421 116.879 257.545 116.921C255.684 116.964 254.099 115.47 254.041 113.609C253.982 111.748 255.467 110.153 257.327 110.078V110.083Z" fill="#EA00A4"/>
<path d="M225.728 141.444C227.557 141.364 229.253 142.954 229.306 144.793C229.359 146.606 227.833 148.34 226.009 148.324C224.053 148.303 222.654 147.361 222.5 144.676C222.41 143.097 223.989 141.523 225.728 141.444Z" fill="#EA00A4"/>
<path d="M277.762 101.895C277.004 101.954 276.32 101.746 275.679 101.342C274.969 100.896 274.661 100.353 274.82 99.4441C274.963 98.6094 274.857 97.7214 274.815 96.8654C274.788 96.339 274.974 95.9721 275.372 95.6478C276.57 94.6801 278.239 94.5844 279.538 95.4404C280.81 96.2805 281.394 97.8118 281.007 99.2793C280.609 100.789 279.31 101.831 277.762 101.895Z" fill="#EA00A4"/>
<path d="M292.251 81.8129C292.32 83.7589 290.942 85.253 289.018 85.3221C287.083 85.3859 285.599 83.9929 285.535 82.0628C285.477 80.1593 286.85 78.6705 288.731 78.5961C290.677 78.5163 292.177 79.8934 292.251 81.8182V81.8129Z" fill="#EA00A4"/>
<path d="M233.829 181.374C233.887 183.219 232.769 184.857 231.088 185.458C230.616 185.628 230.314 185.57 230.065 185.091C228.973 182.975 228.173 180.747 227.489 178.471C227.346 177.987 227.632 177.823 227.992 177.658C230.659 176.446 233.733 178.402 233.829 181.374Z" fill="#EA00A4"/>
<path d="M187.619 183.773C187.667 185.628 186.225 187.149 184.364 187.207C182.477 187.266 180.956 185.793 180.919 183.89C180.882 182.045 182.345 180.534 184.211 180.497C186.055 180.455 187.566 181.912 187.619 183.778V183.773Z" fill="#EA00A4"/>
<path d="M282.243 89.4053C282.301 91.2397 280.838 92.8082 279.009 92.8667C277.175 92.9252 275.617 91.463 275.558 89.6286C275.5 87.7942 276.958 86.2257 278.792 86.1672C280.626 86.1087 282.185 87.5709 282.243 89.4053Z" fill="#EA00A4"/>
<path d="M209.04 159.936C209.077 161.712 207.588 163.291 205.817 163.344C204.02 163.397 202.403 161.845 202.393 160.058C202.382 158.277 203.898 156.709 205.653 156.687C207.429 156.666 208.998 158.171 209.035 159.936H209.04Z" fill="#EA00A4"/>
<path d="M237.184 125.152C238.939 125.077 240.555 126.593 240.614 128.358C240.672 130.123 239.151 131.74 237.391 131.777C235.647 131.814 234.093 130.363 233.998 128.608C233.908 126.859 235.408 125.226 237.179 125.152H237.184Z" fill="#EA00A4"/>
<path d="M195.841 170.847C194.075 170.916 192.543 169.496 192.459 167.715C192.374 165.928 193.853 164.344 195.644 164.307C197.42 164.269 198.936 165.71 198.989 167.481C199.042 169.251 197.616 170.783 195.846 170.852L195.841 170.847Z" fill="#EA00A4"/>
<path d="M227.118 132.819C228.957 132.777 230.335 134.127 230.367 136.004C230.399 137.844 229.047 139.216 227.165 139.242C225.363 139.269 224.001 137.929 223.958 136.095C223.911 134.244 225.246 132.862 227.118 132.819Z" fill="#EA00A4"/>
<path d="M258.706 107.845C256.877 107.903 255.451 106.548 255.404 104.708C255.356 102.916 256.702 101.496 258.494 101.438C260.323 101.379 261.749 102.735 261.797 104.575C261.844 106.367 260.498 107.786 258.706 107.845Z" fill="#EA00A4"/>
<path d="M216.627 159.782C216.341 160.984 216.669 162.43 216.441 163.86C216.378 164.264 216.203 164.461 215.869 164.61C214.485 165.211 212.741 164.732 211.782 163.483C210.764 162.159 210.801 160.34 211.872 159.048C212.863 157.857 214.655 157.469 216.012 158.091C216.722 158.416 216.574 159.011 216.632 159.782H216.627Z" fill="#EA00A4"/>
<path d="M188.754 174.882C188.807 176.626 187.397 178.126 185.653 178.174C183.909 178.221 182.425 176.797 182.387 175.047C182.35 173.335 183.739 171.862 185.451 171.798C187.195 171.735 188.696 173.138 188.754 174.882Z" fill="#EA00A4"/>
<path d="M206.931 148.01C208.617 147.962 210.143 149.43 210.154 151.099C210.165 152.774 208.76 154.247 207.106 154.289C205.42 154.337 203.893 152.87 203.883 151.2C203.872 149.525 205.277 148.052 206.931 148.01Z" fill="#EA00A4"/>
<path d="M276.194 103.581C278.336 103.517 280.032 105.25 279.958 107.435C279.894 109.467 278.039 111.078 275.977 110.918C275.351 110.87 275.054 110.62 275.049 109.94C275.039 108.26 274.959 106.579 274.906 104.905C274.874 103.772 275.028 103.618 276.189 103.581H276.194Z" fill="#EA00A4"/>
<path d="M280.144 83.9981C278.039 84.0619 276.444 82.0574 276.974 80.0209C277.207 79.1277 277.695 78.5481 278.665 78.4152C279.333 78.3248 280 78.1706 280.647 78.0058C281.326 77.8303 281.76 78.0749 282.2 78.4631C283.165 79.3297 283.489 80.7015 283.033 81.9138C282.577 83.1208 281.426 83.9556 280.149 83.9928L280.144 83.9981Z" fill="#EA00A4"/>
<path d="M208.149 179.152C208.096 176.111 211.187 174.186 213.689 175.499C214.107 175.717 214.298 175.935 214.092 176.483C213.371 178.392 212.485 180.21 211.468 181.975C211.15 182.528 210.794 182.614 210.264 182.316C208.95 181.582 208.239 180.471 208.149 179.152Z" fill="#EA00A4"/>
<path d="M241.18 119.58C241.238 121.563 240.677 122.435 239.145 122.781C237.697 123.105 236.224 122.376 235.641 121.047C235.02 119.628 235.492 117.99 236.759 117.16C237.978 116.363 239.606 116.565 240.661 117.57C241.291 118.171 241.117 118.915 241.18 119.574V119.58Z" fill="#EA00A4"/>
<path d="M228.548 130.363C226.857 130.411 225.479 129.103 225.431 127.407C225.383 125.71 226.687 124.333 228.378 124.285C230.069 124.238 231.448 125.54 231.495 127.242C231.543 128.938 230.239 130.315 228.548 130.363Z" fill="#EA00A4"/>
<path d="M256.871 95.7966C256.85 94.1164 258.207 92.7446 259.898 92.7339C261.573 92.7233 262.936 94.0898 262.936 95.7859C262.936 97.4342 261.605 98.7794 259.951 98.806C258.271 98.8326 256.898 97.4874 256.877 95.7966H256.871Z" fill="#EA00A4"/>
<path d="M243.216 159.537C243.29 159.909 243.025 160.159 242.421 160.191C240.38 160.308 238.488 158.66 238.297 156.56C238.106 154.481 239.691 152.497 241.727 152.269C242.114 152.226 242.463 152.216 242.511 152.763C242.691 154.949 242.866 157.129 243.222 159.532L243.216 159.537Z" fill="#EA00A4"/>
<path d="M178.57 182.438C178.638 184.357 176.81 185.968 174.949 185.639C174.472 185.553 174.133 185.362 173.899 184.926C173.496 184.166 173.072 183.416 172.622 182.682C172.309 182.172 172.351 181.704 172.601 181.199C173.231 179.901 174.652 179.189 176.057 179.487C177.446 179.779 178.517 181.039 178.57 182.438Z" fill="#EA00A4"/>
<path d="M224.663 157.373C224.132 157.363 223.65 157.309 223.592 156.576C223.502 155.512 223.343 154.454 223.242 153.391C223.178 152.769 223.199 152.147 223.056 151.524C222.85 150.652 223.019 150.424 223.867 150.259C225.277 149.982 226.465 150.418 227.355 151.53C228.273 152.673 228.416 153.97 227.801 155.294C227.196 156.597 226.099 157.235 224.673 157.373H224.663Z" fill="#EA00A4"/>
<path d="M189.889 166.168C189.947 167.768 188.59 169.23 186.984 169.294C185.383 169.353 183.925 167.992 183.867 166.386C183.809 164.785 185.166 163.323 186.772 163.259C188.373 163.201 189.831 164.562 189.889 166.168Z" fill="#EA00A4"/>
<path d="M252.896 103.224C252.959 104.793 251.629 106.244 250.044 106.324C248.454 106.404 246.959 105.006 246.932 103.405C246.9 101.821 248.252 100.39 249.827 100.343C251.401 100.295 252.838 101.64 252.901 103.224H252.896Z" fill="#EA00A4"/>
<path d="M179.619 173.76C179.667 175.435 178.453 176.701 176.767 176.733C175.14 176.765 173.884 175.563 173.841 173.909C173.793 172.235 175.007 170.969 176.693 170.937C178.321 170.905 179.577 172.107 179.619 173.76Z" fill="#EA00A4"/>
<path d="M211.204 142.215C211.252 143.847 210.043 145.123 208.416 145.176C206.751 145.229 205.474 144.006 205.442 142.321C205.41 140.705 206.635 139.439 208.273 139.397C209.895 139.359 211.162 140.572 211.21 142.215H211.204Z" fill="#EA00A4"/>
<path d="M242.639 110.807C242.686 112.423 241.446 113.742 239.829 113.779C238.239 113.816 236.951 112.609 236.887 111.02C236.824 109.387 238.037 108.069 239.654 108.01C241.282 107.952 242.586 109.175 242.639 110.802V110.807Z" fill="#EA00A4"/>
<path d="M251.782 112.109C251.83 113.795 250.489 115.268 248.803 115.374C248.146 115.416 247.753 115.246 247.653 114.454C247.488 113.183 247.191 111.918 246.094 111.056C245.675 110.727 245.956 110.461 246.158 110.2C246.937 109.19 248.363 108.781 249.63 109.195C250.854 109.594 251.75 110.807 251.787 112.109H251.782Z" fill="#EA00A4"/>
<path d="M232.609 118.399C232.63 119.941 231.295 121.313 229.784 121.302C228.257 121.292 226.948 120.01 226.932 118.511C226.911 116.969 228.247 115.597 229.757 115.608C231.284 115.618 232.593 116.9 232.609 118.399Z" fill="#EA00A4"/>
<path d="M198.189 152.71C197.76 152.71 197.283 152.62 196.938 152.173C196.859 152.072 196.747 151.998 196.647 151.924C195.168 150.876 194.892 149.499 195.889 148.143C196.806 146.894 198.624 146.633 199.875 147.569C200.808 148.265 201.221 149.531 200.882 150.658C200.527 151.833 199.467 152.663 198.184 152.705L198.189 152.71Z" fill="#EA00A4"/>
<path d="M251.114 91.7399C252.678 91.6867 253.881 92.8086 253.934 94.3665C253.987 95.935 252.869 97.1367 251.31 97.1951C249.746 97.2483 248.543 96.1264 248.49 94.5685C248.437 93 249.556 91.7983 251.114 91.7399Z" fill="#EA00A4"/>
<path d="M267.512 109.43C265.72 109.456 264.135 107.994 263.987 106.176C263.844 104.448 265.227 102.751 266.982 102.502C267.401 102.443 267.666 102.502 267.75 103.017C268 104.479 268.201 105.952 268.344 107.43C268.371 107.718 268.36 108.01 268.418 108.292C268.599 109.185 268.418 109.419 267.523 109.43H267.512Z" fill="#EA00A4"/>
<path d="M178.094 167.678C176.636 167.71 175.359 166.492 175.327 165.035C175.295 163.573 176.514 162.297 177.967 162.26C179.424 162.228 180.702 163.445 180.734 164.902C180.766 166.364 179.546 167.64 178.094 167.672V167.678Z" fill="#EA00A4"/>
<path d="M243.756 101.959C243.793 103.379 242.59 104.666 241.175 104.724C239.733 104.788 238.408 103.544 238.376 102.098C238.339 100.646 239.6 99.338 241.037 99.3274C242.458 99.3221 243.725 100.545 243.762 101.959H243.756Z" fill="#EA00A4"/>
<path d="M216.546 152.423C216.573 153.311 216.588 154.204 216.631 155.092C216.657 155.597 216.44 155.784 215.952 155.815C214.187 155.932 212.576 154.428 212.517 152.567C212.459 150.7 213.949 149.105 215.724 149.089C216.27 149.089 216.472 149.302 216.472 149.828C216.472 150.69 216.52 151.556 216.546 152.418V152.423Z" fill="#EA00A4"/>
<path d="M233.636 109.483C233.689 110.977 232.634 112.109 231.155 112.157C229.671 112.205 228.547 111.141 228.505 109.647C228.468 108.191 229.507 107.074 230.949 107.015C232.444 106.952 233.583 107.999 233.636 109.483Z" fill="#EA00A4"/>
<path d="M202.037 140.933C202.075 142.416 200.993 143.528 199.498 143.554C198.025 143.581 196.922 142.491 196.901 140.991C196.879 139.55 197.945 138.45 199.403 138.407C200.887 138.365 202.006 139.433 202.037 140.928V140.933Z" fill="#EA00A4"/>
<path d="M275.25 115.89C275.218 114.869 275.202 113.843 275.149 112.822C275.122 112.28 275.318 112.136 275.849 112.237C277.455 112.545 278.759 114.125 278.807 115.863C278.849 117.597 277.608 119.256 276.034 119.633C275.541 119.75 275.356 119.617 275.345 119.123C275.324 118.049 275.281 116.969 275.25 115.895V115.89Z" fill="#EA00A4"/>
<path d="M213.175 124.673C213.202 126.008 212.168 127.087 210.827 127.119C209.465 127.156 208.373 126.088 208.367 124.711C208.362 123.381 209.412 122.318 210.753 122.302C212.078 122.286 213.149 123.333 213.175 124.673Z" fill="#EA00A4"/>
<path d="M244.769 93.2176C244.822 94.5575 243.814 95.6634 242.489 95.7219C241.121 95.7857 240.003 94.7436 239.966 93.3771C239.929 92.0425 240.957 90.9525 242.288 90.91C243.624 90.8674 244.716 91.883 244.769 93.2176Z" fill="#EA00A4"/>
<path d="M179.292 153.688C180.664 153.662 181.725 154.709 181.741 156.102C181.751 157.442 180.723 158.49 179.371 158.516C177.998 158.543 176.938 157.495 176.922 156.102C176.911 154.762 177.94 153.715 179.292 153.688Z" fill="#EA00A4"/>
<path d="M265.629 150.817C265.634 149.616 266.392 148.308 267.914 147.441C268.396 147.17 268.672 147.271 268.624 147.861C268.454 150.057 268.661 152.253 268.656 154.449C268.656 155.262 268.385 155.369 267.691 154.965C266.461 154.242 265.687 152.886 265.629 150.817Z" fill="#EA00A4"/>
<path d="M232.169 103.06C230.87 103.012 229.815 101.895 229.884 100.64C229.958 99.3643 231.029 98.3434 232.259 98.3913C233.558 98.4391 234.613 99.5557 234.544 100.811C234.469 102.087 233.399 103.107 232.169 103.06Z" fill="#EA00A4"/>
<path d="M254.906 85.7208C254.927 86.747 254.27 87.7359 253.305 88.1188C252.314 88.5122 251.232 88.273 250.506 87.4914C249.785 86.7204 249.626 85.5932 250.076 84.6414C250.315 84.1416 250.681 83.9289 251.211 84.0353C252.154 84.2161 253.098 84.4022 254.031 84.6148C254.694 84.769 254.89 85.0455 254.9 85.7155L254.906 85.7208Z" fill="#EA00A4"/>
<path d="M169.14 161.265C170.089 161.25 170.995 161.829 171.371 162.717C171.769 163.658 171.594 164.514 170.947 165.275C170.317 166.008 169.288 166.21 168.371 165.929C167.491 165.657 167.401 164.929 167.274 164.216C167.221 163.908 167.237 163.589 167.226 163.275C167.189 162.02 167.889 161.292 169.14 161.271V161.265Z" fill="#EA00A4"/>
<path d="M191.748 193.444C190.889 193.386 189.823 193.625 188.752 193.418C188.259 193.322 188.222 193.141 188.355 192.732C188.79 191.408 190.163 190.403 191.652 190.345C193.2 190.286 194.621 191.163 195.183 192.498C195.432 193.093 195.214 193.333 194.626 193.354C193.735 193.381 192.85 193.407 191.753 193.444H191.748Z" fill="#EA00A4"/>
<path d="M182.636 189.228C184.555 189.148 186.14 190.456 186.421 192.184C186.554 193.003 186.405 193.152 185.584 193.024C183.829 192.758 182.138 192.269 180.505 191.578C179.901 191.323 179.843 191.009 180.246 190.53C180.924 189.728 181.783 189.308 182.636 189.228Z" fill="#EA00A4"/>
<path d="M180.564 145.112C181.762 145.075 182.726 145.984 182.753 147.186C182.785 148.387 181.862 149.339 180.664 149.361C179.498 149.382 178.56 148.489 178.517 147.324C178.47 146.122 179.371 145.149 180.569 145.112H180.564Z" fill="#EA00A4"/>
<path d="M214.167 115.799C214.198 116.985 213.329 117.905 212.142 117.947C210.922 117.985 209.995 117.091 209.979 115.863C209.963 114.683 210.848 113.779 212.046 113.752C213.228 113.731 214.14 114.608 214.167 115.799Z" fill="#EA00A4"/>
<path d="M226.991 162.356C226.975 163.68 226.471 164.775 225.358 165.562C224.929 165.865 224.759 165.806 224.685 165.237C224.457 163.43 224.17 161.632 223.921 159.825C223.879 159.527 223.741 159.133 224.033 158.942C224.308 158.761 224.642 158.979 224.913 159.123C226.206 159.798 226.863 160.893 226.985 162.356H226.991Z" fill="#EA00A4"/>
<path d="M172.554 154.699C172.613 155.826 171.674 156.847 170.545 156.879C169.443 156.911 168.467 156.007 168.409 154.901C168.351 153.768 169.289 152.753 170.418 152.721C171.521 152.689 172.496 153.593 172.554 154.699Z" fill="#EA00A4"/>
<path d="M233.456 89.9532C234.538 89.9213 235.545 90.873 235.571 91.9524C235.603 93.0371 234.654 94.042 233.573 94.0739C232.492 94.1058 231.484 93.154 231.458 92.0747C231.426 90.99 232.375 89.9851 233.456 89.9532Z" fill="#EA00A4"/>
<path d="M202.017 121.345C203.098 121.313 204.105 122.265 204.132 123.344C204.164 124.429 203.215 125.434 202.133 125.466C201.052 125.498 200.045 124.546 200.018 123.467C199.987 122.382 200.935 121.377 202.017 121.345Z" fill="#EA00A4"/>
<path d="M298.539 110.902C298.491 109.493 299.482 107.84 300.861 107.26C301.306 107.069 301.582 107.095 301.486 107.691C301.152 109.743 300.797 111.796 300.495 113.853C300.405 114.449 300.187 114.369 299.869 114.071C299.032 113.279 298.576 112.311 298.544 110.908L298.539 110.902Z" fill="#EA00A4"/>
<path d="M295.66 128.252C295.984 126.848 296.598 125.646 297.924 124.923C298.12 124.817 298.353 124.599 298.555 124.769C298.661 124.859 298.634 125.163 298.602 125.354C298.258 127.46 297.897 129.56 297.547 131.665C297.526 131.793 297.531 131.942 297.378 131.984C297.123 132.059 296.991 131.867 296.858 131.713C295.978 130.724 295.628 129.549 295.665 128.241V128.246L295.66 128.252Z" fill="#EA00A4"/>
<path d="M297.086 119.909C297.16 118.272 297.855 116.895 299.456 116.065C299.609 115.985 299.837 115.874 299.959 115.932C300.176 116.033 300.092 116.31 300.06 116.496C299.715 118.601 299.365 120.702 299 122.802C298.894 123.403 298.586 123.132 298.364 122.903C297.59 122.105 297.171 121.138 297.091 119.909H297.086Z" fill="#EA00A4"/>
<path d="M299.975 102.406C299.959 100.566 300.94 99.0239 302.318 98.4656C302.721 98.3008 302.949 98.2582 302.853 98.8431C302.525 100.901 302.238 102.969 301.91 105.027C301.809 105.67 301.448 105.277 301.258 105.101C300.404 104.32 299.969 103.336 299.975 102.406Z" fill="#EA00A4"/>
<path d="M242.219 148.457C242.246 149.249 242.256 149.876 242.283 150.504C242.299 150.972 242.092 151.073 241.71 150.855C240.528 150.195 239.86 149.174 239.749 147.835C239.627 146.394 240.178 145.234 241.35 144.378C241.689 144.129 241.949 144.144 241.938 144.65C241.912 145.984 242.32 147.287 242.214 148.462L242.219 148.457Z" fill="#EA00A4"/>
<path d="M301.363 93.5633C301.31 92.1224 302.243 90.5539 303.495 89.9584C303.871 89.7776 304.205 89.7085 304.12 90.288C303.844 92.2234 303.516 94.1535 303.251 96.0889C303.166 96.7217 302.954 96.5568 302.63 96.2804C301.925 95.6689 301.401 94.5523 301.363 93.5687V93.5633Z" fill="#EA00A4"/>
<path d="M250.664 120.978C250.627 122.249 250.113 123.227 249.068 123.908C248.676 124.163 248.427 124.11 248.432 123.578C248.448 121.93 248.072 120.303 248.119 118.649C248.141 117.862 248.289 117.756 248.968 118.16C250.038 118.798 250.584 119.76 250.664 120.973V120.978Z" fill="#EA00A4"/>
<path d="M199.896 158.367C199.939 159.979 199.064 161.228 197.871 161.59C197.389 161.738 197.171 161.643 197.256 161.09C197.489 159.569 197.5 158.038 197.532 156.506C197.548 155.815 197.702 155.704 198.306 156.033C199.329 156.592 199.838 157.485 199.896 158.367Z" fill="#EA00A4"/>
<path d="M216.33 145.288C216.33 145.368 216.346 145.447 216.336 145.522C216.293 145.867 216.542 146.346 216.182 146.537C215.811 146.734 215.445 146.378 215.138 146.155C213.378 144.894 213.409 142.199 215.191 140.992C215.381 140.864 215.578 140.678 215.827 140.774C216.118 140.88 216.044 141.167 216.044 141.385C216.044 142.693 216.187 143.99 216.33 145.283V145.288Z" fill="#EA00A4"/>
<path d="M275.522 124.774C275.495 123.833 275.469 122.887 275.432 121.946C275.41 121.435 275.564 121.329 276.015 121.611C278.071 122.908 278.188 126.444 276.216 127.879C275.813 128.172 275.617 128.145 275.606 127.603C275.585 126.662 275.554 125.715 275.522 124.774Z" fill="#EA00A4"/>
<path d="M188.128 159.16C188.16 160.197 187.884 160.372 186.946 159.878C185.928 159.341 185.419 158.49 185.44 157.32C185.461 156.241 185.986 155.486 186.887 154.959C187.412 154.651 187.667 154.747 187.714 155.427C187.804 156.677 187.985 157.916 188.128 159.16Z" fill="#EA00A4"/>
<path d="M183.713 138.487C183.739 139.508 182.997 140.284 181.979 140.311C180.961 140.337 180.187 139.593 180.161 138.572C180.134 137.551 180.876 136.775 181.894 136.748C182.912 136.722 183.686 137.466 183.713 138.487Z" fill="#EA00A4"/>
<path d="M215.143 106.979C215.143 107.962 214.316 108.77 213.335 108.754C212.386 108.733 211.607 107.936 211.602 106.984C211.602 106 212.429 105.192 213.409 105.208C214.358 105.229 215.137 106.027 215.143 106.979Z" fill="#EA00A4"/>
<path d="M171.848 147.755C170.899 147.792 170.135 147.064 170.119 146.112C170.104 145.192 170.809 144.459 171.72 144.421C172.669 144.384 173.433 145.112 173.448 146.064C173.464 146.979 172.759 147.718 171.848 147.755Z" fill="#EA00A4"/>
<path d="M304.861 82.9668C304.957 84.3864 304.596 85.7635 304.517 87.1672C304.496 87.5501 304.31 87.5554 304.071 87.348C302.285 85.7635 302.449 82.9987 304.305 81.579C304.665 81.3025 304.819 81.4727 304.83 81.8661C304.84 82.233 304.851 82.5999 304.867 82.9668H304.861Z" fill="#EA00A4"/>
<path d="M205.001 114.459C205.043 115.406 204.375 116.129 203.437 116.161C202.493 116.193 201.783 115.517 201.756 114.576C201.735 113.667 202.377 112.965 203.283 112.917C204.227 112.864 204.958 113.523 205.001 114.465V114.459Z" fill="#EA00A4"/>
<path d="M243.735 86.662C242.892 86.6886 241.954 86.0878 241.673 85.3593C241.535 85.0084 241.567 84.716 241.975 84.6309C243.036 84.4076 244.091 84.1205 245.177 84.0354C245.734 83.9929 245.93 84.2268 245.84 84.7798C245.665 85.8166 244.774 86.6301 243.741 86.662H243.735Z" fill="#EA00A4"/>
<path d="M224.456 108.09C224.488 109.286 223.693 110.275 222.659 110.488C222.166 110.589 221.811 110.514 221.906 109.892C222.081 108.738 222.251 107.585 222.457 106.436C222.537 106 222.897 106.128 223.141 106.25C223.952 106.649 224.403 107.313 224.456 108.09Z" fill="#EA00A4"/>
<path d="M268.762 139.604C268.741 141.428 268.725 143.251 268.698 145.075C268.698 145.224 268.751 145.421 268.55 145.474C268.375 145.522 268.274 145.368 268.163 145.261C266.625 143.836 266.705 140.752 268.311 139.381C268.428 139.28 268.534 139.12 268.709 139.189C268.884 139.264 268.831 139.455 268.762 139.604Z" fill="#EA00A4"/>
<path d="M170.741 172.553C170.725 173.175 170.502 173.84 169.988 174.372C169.612 174.76 169.416 174.659 169.262 174.133C168.901 172.904 168.631 171.655 168.329 170.416C168.17 169.778 168.514 169.879 168.87 169.964C169.872 170.214 170.709 171.325 170.746 172.548L170.741 172.553Z" fill="#EA00A4"/>
<path d="M261.441 89.9268C259.766 90.0065 258.309 88.6294 258.34 87.1194C258.351 86.6355 258.452 86.4122 258.982 86.7365C259.968 87.3374 260.864 88.0445 261.738 88.7942C261.982 89.0016 262.401 89.2143 262.242 89.5971C262.104 89.9321 261.664 89.8789 261.447 89.9268H261.441Z" fill="#EA00A4"/>
<path d="M221.657 117.113C221.641 116.538 221.614 115.959 221.604 115.385C221.593 114.858 221.864 114.8 222.251 115.034C223.035 115.507 223.427 116.246 223.433 117.129C223.433 118.006 223.067 118.756 222.293 119.25C221.906 119.495 221.715 119.378 221.705 118.92C221.694 118.32 221.667 117.713 221.652 117.113H221.657Z" fill="#EA00A4"/>
<path d="M183.038 128.358C183.807 128.337 184.38 128.89 184.385 129.666C184.385 130.405 183.855 130.953 183.118 130.974C182.349 130.996 181.777 130.443 181.771 129.666C181.771 128.927 182.302 128.38 183.038 128.358Z" fill="#EA00A4"/>
<path d="M209.735 136.291C208.951 136.276 208.256 136.026 207.694 135.451C207.573 135.329 207.398 135.191 207.488 134.983C207.562 134.813 207.753 134.845 207.907 134.84C209.057 134.803 210.207 134.766 211.357 134.739C211.527 134.739 211.76 134.68 211.824 134.914C211.877 135.106 211.739 135.26 211.612 135.398C211.108 135.946 210.472 136.217 209.735 136.291Z" fill="#EA00A4"/>
<path d="M174.282 137.206C174.293 137.87 173.773 138.407 173.105 138.418C172.437 138.429 171.907 137.908 171.897 137.238C171.886 136.573 172.406 136.036 173.073 136.025C173.741 136.015 174.272 136.536 174.282 137.206Z" fill="#EA00A4"/>
<path d="M192.878 139.508C192.878 140.571 192.581 141.188 191.972 141.64C191.669 141.869 191.425 141.842 191.41 141.39C191.378 140.422 191.351 139.449 191.33 138.482C191.33 138.269 191.399 138.014 191.574 137.929C191.818 137.806 192.009 138.04 192.173 138.2C192.624 138.636 192.883 139.167 192.873 139.508H192.878Z" fill="#EA00A4"/>
<path d="M205.67 105.782C205.701 106.425 205.224 106.952 204.583 106.978C203.941 107.01 203.417 106.532 203.39 105.888C203.358 105.245 203.835 104.719 204.477 104.692C205.118 104.66 205.643 105.139 205.67 105.782Z" fill="#EA00A4"/>
<path d="M210.042 184.065C209.268 185.367 208.176 186.34 207.174 187.377C206.904 187.659 206.845 187.361 206.84 187.138C206.819 185.761 208.558 184.054 210.042 184.065Z" fill="#EA00A4"/>
<path d="M194.622 114.39C193.97 114.358 193.583 114.066 193.556 113.433C193.53 112.811 193.869 112.439 194.489 112.407C195.109 112.38 195.48 112.721 195.512 113.343C195.544 113.975 195.173 114.289 194.616 114.385L194.622 114.39Z" fill="#EA00A4"/>
<path d="M267.119 99.795C265.794 99.1729 265.063 97.2375 265.625 96.121C265.678 96.0093 265.715 95.8604 265.89 95.8817C266.049 95.903 266.07 96.0465 266.118 96.1635C266.573 97.3013 266.817 98.4923 267.125 99.7897L267.119 99.795Z" fill="#EA00A4"/>
<path d="M225.468 99.4654C225.436 100.305 225.128 100.906 224.444 101.273C224.248 101.38 224.02 101.555 223.798 101.353C223.602 101.177 223.755 100.959 223.814 100.773C224.026 100.135 224.248 99.4973 224.492 98.8699C224.572 98.6678 224.604 98.3541 224.879 98.3594C225.139 98.3648 225.229 98.6466 225.303 98.8646C225.383 99.0826 225.42 99.3112 225.457 99.4654H225.468Z" fill="#EA00A4"/>
<path d="M248.735 131.83C248.687 130.352 248.65 129.034 248.607 127.683C249.715 128.459 249.821 130.522 248.735 131.83Z" fill="#EA00A4"/>
<g clip-path="url(#clip1_99_32149)">
<path d="M54.8241 169.509C51.249 169.589 47.627 168.644 44.4611 166.612C39.1442 163.211 35.1032 156.749 34.7018 146.917C34.162 133.822 40.5718 122.81 49.948 121.61C56.0148 120.839 59.862 122.447 62.3046 124.836C66.6531 129.101 66.5195 135.828 66.5195 135.828L71.1136 146.002C71.1136 146.002 70.8824 148.241 70.9932 151.538C70.996 151.542 70.9942 151.55 70.9942 151.55C70.0404 158.563 66.2186 169.267 54.8241 169.509Z" fill="#FFD4AD"/>
<path d="M70.9929 151.538C70.8812 148.245 71.1133 146.002 71.1133 146.002C71.3084 146.87 71.3477 148.95 70.9929 151.538Z" fill="#160830"/>
<path d="M202.777 77.8373C192.729 88.4292 183.242 97.2335 170.114 108.491C170.118 108.445 170.116 108.401 170.116 108.354C170.256 103.403 169.431 99.8891 168.37 95.8405C167.49 92.5027 164.639 90.0614 161.223 89.6951C145.802 88.0343 131.77 88.3172 119.192 90.7014C108.936 92.6449 99.2382 96.8464 90.6466 102.8L76.9562 112.805L62.8407 123.121C88.1356 95.5905 108.834 72.8334 129.908 52.2424C130.789 51.384 131.692 50.5626 132.619 49.7708C145.268 39.0116 162.336 34.7155 178.588 38.6844C184.765 40.1884 190.51 42.0644 195.811 44.3255C209.155 50.0078 212.766 67.3136 202.773 77.8401L202.777 77.8373Z" fill="#160830"/>
<path d="M132.619 49.7671C131.689 50.558 130.789 51.3803 129.909 52.2387C108.835 72.8296 88.1364 95.5868 62.8415 123.117L58.6065 96.8327C57.3358 90.1539 59.5598 83.2887 64.4958 78.6259L73.2698 70.3424C72.8495 70.1612 72.4181 69.8471 71.98 69.3658C69.415 66.5563 69.7798 62.0425 72.7894 59.2771C75.7981 56.5153 80.3159 56.5544 82.879 59.3555C83.2554 59.7667 83.5093 60.1479 83.675 60.5196L88.7122 55.7631C91.2507 53.368 94.0775 51.3902 97.0909 49.8444C97.0881 49.8397 97.0918 49.8406 97.1039 49.8396C105.115 45.7323 114.49 44.6983 123.395 47.1859L132.62 49.7634L132.619 49.7671Z" fill="#F75BC8"/>
<path d="M98.5455 49.1373C98.0424 49.3146 97.5592 49.5558 97.1041 49.8434L98.5455 49.1373Z" fill="#160830"/>
<path d="M166.086 137.149C160.584 140.625 154.149 139.973 146.309 137.524C144.11 133.108 140.505 128.775 137.647 124.25C136.552 121.285 136.671 120.419 136.88 118.837C137.039 117.661 137.873 116.685 139.007 116.342C148.171 113.58 157.212 112.772 166.567 114.151C166.632 114.32 166.693 114.489 166.757 114.663C168.626 119.649 170.24 125.153 170.356 129.047C170.362 129.167 170.362 129.281 170.361 129.399C170.342 132.534 168.738 135.472 166.082 137.152L166.086 137.149Z" fill="white"/>
<path d="M137.654 124.267C137.654 124.267 137.649 124.254 137.65 124.25L137.654 124.267Z" fill="#160830"/>
<path d="M171.781 141.683C171.949 138.668 171.896 132.53 170.365 129.396C170.346 132.531 168.742 135.469 166.086 137.149C160.584 140.625 154.149 139.973 146.309 137.524C144.109 133.108 140.505 128.775 137.647 124.25C136.551 121.285 136.67 120.419 136.88 118.837C137.039 117.661 137.873 116.685 139.006 116.342C148.171 113.58 157.212 112.773 166.566 114.151C166.631 114.321 166.693 114.489 166.757 114.663L170.113 108.353C170.253 103.402 169.428 99.8884 168.366 95.8398C167.487 92.502 164.636 90.0608 161.22 89.6944C145.798 88.0337 131.767 88.3166 119.189 90.7007C108.933 92.6443 99.2351 96.8457 90.6435 102.799L76.9531 112.804C76.893 113.231 76.9864 117.77 77.4962 123.952C78.6441 137.85 81.909 160.033 90.4029 162.365C98.8002 164.674 106.86 150.825 116.221 152.434C122.237 153.469 134.395 162.842 143.012 155.617C148.124 152.322 150.324 160.801 158.566 160.126C168.691 159.294 171.773 141.685 171.773 141.685L171.781 141.683ZM128.516 133.535C127.498 136.249 125.503 138.575 122.809 139.647C112.906 143.593 104.777 142.336 97.5999 137.91C95.683 136.73 94.3192 134.84 93.8636 132.627C92.8047 127.478 92.7248 120.316 94.3351 113.582C104.652 110.154 114.596 111.566 126.784 115.665C128.148 116.124 129.093 117.387 129.168 118.833C129.441 124.141 129.952 129.716 128.52 133.536L128.516 133.535Z" fill="#FFD4AD"/>
<path d="M128.517 133.535C127.498 136.249 125.503 138.575 122.809 139.647C112.906 143.593 104.777 142.336 97.6 137.91C95.6831 136.73 94.3193 134.84 93.8638 132.627C92.8048 127.478 92.7249 120.316 94.3352 113.582C104.652 110.154 114.596 111.566 126.784 115.665C128.148 116.124 129.093 117.387 129.168 118.833C129.441 124.141 129.952 129.716 128.52 133.536L128.517 133.535Z" fill="white"/>
<path d="M171.603 167.69C164.799 186.656 151.315 206.307 129.772 205.561C113.744 205.007 103.665 196.077 97.0638 190.506C90.4237 184.902 80.8206 179.547 74.5271 167.066C71.9048 161.86 71.1559 155.821 70.9948 151.546C70.9948 151.546 70.9957 151.542 70.9938 151.534C71.3477 148.95 71.3093 146.866 71.1142 145.999L66.5201 135.825C66.5201 135.825 66.6537 129.097 62.3052 124.832L62.8394 123.112L76.9549 112.797C76.8948 113.224 76.9882 117.763 77.498 123.945C78.6459 137.842 81.9108 160.025 90.4047 162.358C98.802 164.667 106.862 150.818 116.223 152.427C122.238 153.461 134.397 162.835 143.014 155.609C148.126 152.315 150.326 160.793 158.568 160.118C168.693 159.286 171.775 141.678 171.775 141.678C171.775 141.678 176.068 155.222 171.596 167.688L171.603 167.69Z" fill="#EA6C17"/>
<path d="M59.6509 139.78C57.89 140.116 56.1503 140.576 54.442 141.15C54.2724 139.673 54.1917 138.187 54.2018 136.698C54.2098 135.43 53.1903 134.393 51.922 134.384C50.6575 134.376 49.6226 135.402 49.6146 136.67C49.6021 138.753 49.7499 140.84 50.0478 142.908C47.8966 143.915 45.8319 145.1 43.8991 146.455C42.8612 147.185 42.6087 148.618 43.3324 149.658C43.6649 150.137 44.1481 150.448 44.6719 150.576C45.2885 150.726 45.9672 150.619 46.5263 150.227C47.9379 149.237 49.4317 148.347 50.981 147.568C51.6925 150.317 52.6797 152.999 53.9274 155.547C54.2405 156.187 54.8062 156.612 55.4488 156.769C55.9502 156.891 56.496 156.846 56.9967 156.598C58.135 156.039 58.602 154.662 58.0481 153.521C56.8351 151.041 55.903 148.424 55.2597 145.735C56.9807 145.125 58.7425 144.639 60.5247 144.296C61.7671 144.054 62.5811 142.852 62.3445 141.603C62.1069 140.358 60.9045 139.541 59.6592 139.778L59.6509 139.78Z" fill="#160830"/>
<path d="M119.622 92.9556C131.737 90.6601 145.65 90.3324 160.977 91.978C163.438 92.2421 165.519 94.0304 166.147 96.4236C167.219 100.494 167.968 103.737 167.823 108.419C167.795 109.331 168.304 110.169 169.124 110.566C169.942 110.958 170.916 110.832 171.606 110.239C185.493 98.3338 194.699 89.6941 204.442 79.4259C209.721 73.8646 211.853 66.354 210.3 58.8256C208.765 51.3881 203.685 45.1739 196.718 42.2037C191.352 39.9152 185.437 37.978 179.138 36.4404L179.116 36.435C170.213 34.2672 160.809 34.4425 151.914 36.9345C144.694 38.9626 137.922 42.4842 132.085 47.2275L124.014 44.9703C115.272 42.5225 106.009 43.3196 97.9021 46.9303C97.8679 46.9416 97.8346 46.9493 97.805 46.9579C97.1132 47.1996 96.4453 47.5379 95.8139 47.9363C92.6834 49.5601 89.7588 51.6167 87.143 54.0876L82.9577 58.0379C79.6243 54.8441 74.496 54.5972 71.2496 57.5771C69.5729 59.1093 68.6458 61.2499 68.6397 63.599C68.6331 65.739 69.4048 67.816 70.8181 69.5011L62.9311 76.9475C57.4011 82.1637 54.9419 89.7407 56.3524 97.2227L60.1102 120.571C57.2178 119.228 53.72 118.81 49.6612 119.328C39.2337 120.662 31.8186 132.562 32.4123 147.011C32.8147 156.854 36.6702 163.579 41.8137 167.517C41.5209 168.873 41.4492 170.307 41.6149 171.752C42.1834 176.635 45.3552 180.464 49.2034 181.401C50.08 181.614 50.9926 181.678 51.9161 181.568C54.3977 181.277 56.6446 179.761 58.0858 177.415C59.2097 175.582 59.7813 173.367 59.7608 171.063C63.0228 170.082 65.7999 168.147 68.0495 165.272C68.8646 164.228 69.5725 163.107 70.181 161.942C70.7367 164.017 71.4816 166.108 72.4854 168.103C77.7102 178.466 85.2069 184.204 91.2265 188.813C92.7866 190.005 94.2563 191.132 95.5888 192.257L96.1893 192.766C101.645 197.38 109.323 203.879 120.511 206.604C123.341 207.293 126.395 207.74 129.696 207.854C140.224 208.217 149.704 204.1 157.868 195.609C165.983 187.169 170.993 176.186 173.763 168.464C178.443 155.417 174.153 141.567 173.968 140.981C173.649 139.973 172.684 139.316 171.629 139.383C170.577 139.454 169.708 140.236 169.523 141.276C168.742 145.688 165.223 157.255 158.388 157.819C155.166 158.083 153.174 156.624 151.066 155.081C150.16 154.419 149.172 153.693 148.074 153.19C150.822 148.889 151.086 144.808 150.062 140.931C155.759 142.255 161.852 142.531 167.313 139.081C170.735 136.917 172.783 133.038 172.658 128.957C172.512 124.212 170.433 117.834 168.718 113.314C168.423 112.536 167.728 111.977 166.908 111.856C157.393 110.458 148.053 111.201 138.354 114.124C138.095 114.203 137.843 114.3 137.603 114.415C137.107 114.093 136.466 113.751 135.689 113.499C135.541 112.193 135.587 110.867 135.874 109.518C136.133 108.299 135.374 107.097 134.175 106.804C134.152 106.799 134.13 106.794 134.111 106.789C132.874 106.523 131.655 107.319 131.39 108.56C131.039 110.206 130.958 111.807 131.08 113.367C130.078 113.557 129.278 113.823 128.731 114.037C128.358 113.805 127.952 113.615 127.519 113.47C113.367 108.707 103.552 108.096 93.6616 111.371C93.4997 111.422 93.3453 111.491 93.1994 111.574C93.181 111.585 93.1625 111.596 93.144 111.608L79.5315 119.991C79.3496 116.859 79.306 114.699 79.3322 114.2C79.3417 114.096 79.3428 113.994 79.3394 113.894L91.9837 104.652C100.539 98.7368 109.838 94.7974 119.634 92.9387L119.622 92.9556ZM60.8587 96.3992C59.7276 90.4603 61.6756 84.4429 66.0682 80.3025L75.8774 71.0406L84.2084 63.1737C84.2084 63.1737 84.2084 63.1737 84.213 63.1709L90.2137 57.5053C90.0843 61.8594 91.9367 67.1418 95.5882 72.4993C95.9225 72.987 96.4077 73.3062 96.9388 73.4356C97.548 73.5839 98.2176 73.4827 98.7739 73.1015C99.8203 72.386 100.089 70.9527 99.374 69.9071C95.3245 63.9675 93.781 58.0426 95.4432 54.8149C95.8576 54.0127 96.8725 52.7611 98.0813 51.9432C105.61 48.0893 114.466 47.0903 122.774 49.4091L128.02 50.8758C108.805 69.6675 89.6835 90.4934 67.5613 114.584L64.351 118.081L60.8731 96.4698C60.8702 96.4493 60.8673 96.4289 60.8615 96.4039L60.8587 96.3992ZM54.1728 175.007C53.4633 176.167 52.4697 176.876 51.3767 177.004C48.9479 177.288 46.5639 174.641 46.1639 171.223C46.1205 170.833 46.1048 170.443 46.1114 170.058C47.2347 170.553 48.3869 170.944 49.5504 171.223C51.3148 171.653 53.109 171.845 54.8683 171.808C54.9591 171.806 55.0518 171.797 55.1426 171.796C55.0525 172.981 54.7228 174.099 54.1691 175.006L54.1728 175.007ZM158.76 162.409C165.001 161.894 168.883 156.418 171.174 151.273C171.55 155.814 171.385 161.504 169.446 166.912C166.341 175.566 158.532 193.026 144.23 200.148L142.807 193.236C142.55 191.99 141.34 191.19 140.097 191.448C138.855 191.705 138.058 192.919 138.315 194.165L139.906 201.908C137.814 202.574 135.606 203.018 133.27 203.195L132.597 192.177C132.519 190.908 131.434 189.946 130.168 190.024C128.902 190.102 127.942 191.194 128.021 192.459L128.68 203.209C126.46 203.071 124.361 202.757 122.376 202.309L123.159 194.738C123.287 193.476 122.373 192.346 121.115 192.213C119.856 192.084 118.729 193.001 118.597 194.262L117.902 201.019C109.628 198.117 103.594 193.015 99.1548 189.256L98.5506 188.746C97.1332 187.549 95.6197 186.392 94.0168 185.166C88.0737 180.615 81.3365 175.46 76.5845 166.037C74.1878 161.28 73.4752 155.676 73.3131 151.649C73.6589 148.969 73.6186 146.746 73.3798 145.588C73.376 145.571 73.373 145.551 73.3692 145.534C73.371 145.527 73.3654 145.517 73.3635 145.509C73.3606 145.489 73.3502 145.466 73.3473 145.446C73.3349 145.4 73.3225 145.353 73.3102 145.307C73.2988 145.272 73.2866 145.242 73.2752 145.208C73.2601 145.172 73.2497 145.134 73.2337 145.103C73.2158 145.063 73.1979 145.023 73.18 144.983C73.1669 144.956 73.1537 144.93 73.1396 144.906C73.1152 144.861 73.0899 144.819 73.0646 144.778C73.0533 144.759 73.0393 144.736 73.028 144.717C72.999 144.675 72.969 144.636 72.94 144.594C72.925 144.574 72.9138 144.556 72.8979 144.54C72.868 144.501 72.8334 144.465 72.8026 144.43C72.7839 144.41 72.7652 144.389 72.7494 144.374C72.7176 144.342 72.685 144.315 72.6533 144.283C72.6309 144.262 72.6048 144.24 72.5815 144.222C72.5516 144.199 72.5218 144.176 72.4883 144.152C72.4585 144.129 72.4277 144.11 72.3979 144.087C72.3709 144.068 72.3402 144.049 72.3085 144.034C72.2741 144.013 72.2397 143.993 72.2052 143.973C72.1773 143.958 72.1457 143.943 72.1178 143.928C72.0824 143.911 72.0434 143.894 72.008 143.878C71.9755 143.866 71.9393 143.853 71.9067 143.841C71.8705 143.828 71.838 143.816 71.8017 143.804C71.7609 143.794 71.72 143.784 71.6791 143.774C71.6494 143.767 71.616 143.758 71.5863 143.751C71.538 143.739 71.4916 143.736 71.4424 143.728C71.4201 143.723 71.4016 143.718 71.3784 143.716C71.371 143.715 71.3672 143.714 71.3598 143.712C71.3134 143.708 71.2671 143.705 71.2198 143.705C71.1883 143.706 71.1576 143.702 71.1261 143.702C71.0909 143.702 71.0548 143.705 71.0186 143.708C70.9751 143.709 70.9315 143.71 70.8907 143.716C70.8667 143.718 70.8417 143.724 70.813 143.729C70.7602 143.735 70.7074 143.742 70.6574 143.754C70.6537 143.753 70.6454 143.755 70.6407 143.758C70.6241 143.761 70.6065 143.769 70.5861 143.772C70.5362 143.783 70.4853 143.799 70.4381 143.815C70.4085 143.823 70.3817 143.837 70.3521 143.845C70.3133 143.859 70.2707 143.873 70.231 143.891C70.1958 143.906 70.1607 143.921 70.1284 143.94C70.097 143.957 70.0665 143.969 70.0388 143.986C70.0019 144.008 69.9649 144.031 69.928 144.053C69.904 144.071 69.8772 144.084 69.8533 144.102C69.8154 144.129 69.7813 144.156 69.7435 144.182C69.7195 144.2 69.6955 144.218 69.6753 144.236C69.6412 144.264 69.6108 144.292 69.5795 144.323C69.5546 144.345 69.5334 144.367 69.5085 144.389C69.4818 144.418 69.4552 144.447 69.4294 144.472C69.4027 144.501 69.3806 144.527 69.3576 144.557C69.3356 144.584 69.3172 144.611 69.2952 144.637C69.2713 144.67 69.2474 144.704 69.2235 144.738C69.2052 144.765 69.1914 144.789 69.1768 144.817C69.1557 144.855 69.131 144.893 69.1136 144.932C69.099 144.96 69.0844 144.988 69.0734 145.017C69.0561 145.056 69.0387 145.095 69.0214 145.134C69.0096 145.167 68.9977 145.199 68.985 145.236C68.9723 145.272 68.9605 145.305 68.9477 145.341C68.9378 145.382 68.927 145.427 68.9171 145.468C68.9099 145.497 68.9027 145.527 68.8954 145.557C68.8837 145.605 68.8785 145.659 68.8705 145.709C68.866 145.727 68.8615 145.746 68.8607 145.765C68.8589 145.773 68.8581 145.792 68.8582 145.808C68.8573 145.812 68.8564 145.816 68.8555 145.819C68.8165 146.208 68.6227 148.358 68.7207 151.415C68.2514 154.751 67.0771 159.099 64.4627 162.442C62.0146 165.569 58.8558 167.131 54.8033 167.217C52.372 167.268 49.9129 166.784 47.6279 165.726C48.2762 164.965 49.074 164.497 49.9364 164.395C51.1952 164.248 52.0968 163.107 51.9462 161.844C51.7994 160.582 50.6613 159.677 49.4015 159.828C47.2071 160.087 45.1945 161.3 43.7624 163.204C40.0297 159.921 37.333 154.551 37.0156 146.826C36.5202 134.783 42.2176 124.926 50.2628 123.896C54.6633 123.33 58.0849 124.112 60.429 126.209C64.2693 129.649 64.2506 135.674 64.2495 135.793C64.2258 137.061 65.2314 138.106 66.4952 138.134C67.7636 138.159 68.8097 137.151 68.8335 135.883C68.8362 135.742 68.8529 134.259 68.4671 132.229L75.5531 127.865C75.8592 130.988 76.2654 134.38 76.8118 137.794C79.4116 154.128 83.6705 162.891 89.8257 164.583C89.9186 164.606 90.0142 164.633 90.1071 164.656C95.233 165.904 99.8432 162.668 104.302 159.538C108.32 156.718 112.112 154.052 115.861 154.697C117.24 154.934 119.298 155.822 121.475 156.758C127.814 159.493 137.023 163.455 144.281 157.567C144.286 157.564 144.294 157.562 144.299 157.559C145.409 156.839 145.907 156.992 148.383 158.806C150.695 160.497 153.863 162.814 158.787 162.412L158.76 162.409ZM139.668 118.542C148.255 115.956 156.521 115.2 164.903 116.239C166.858 121.601 167.979 126.137 168.07 129.11C168.148 131.566 166.918 133.901 164.862 135.199C160.72 137.815 155.756 137.943 147.88 135.596C146.463 132.951 144.671 130.409 142.949 127.966C141.865 126.433 140.8 124.919 139.828 123.408C138.915 120.942 138.98 120.445 139.155 119.135C139.191 118.856 139.394 118.621 139.669 118.539L139.668 118.542ZM126.051 117.845C126.516 118.002 126.846 118.445 126.874 118.945C126.905 119.532 126.935 120.123 126.969 120.715C127.216 125.169 127.474 129.779 126.368 132.72C125.517 134.986 123.911 136.732 121.961 137.508C113.407 140.915 106.047 140.416 98.797 135.95C97.3837 135.077 96.427 133.732 96.1066 132.163C95.0878 127.19 95.1686 120.876 96.2867 115.378C104.769 112.884 113.518 113.626 126.055 117.846L126.051 117.845ZM91.177 118.224C90.5537 123.302 90.6903 128.588 91.6112 133.088C92.1839 135.874 93.9261 138.345 96.3933 139.868C99.2272 141.615 102.111 142.846 105.068 143.566C110.941 144.996 117.084 144.397 123.652 141.781C126.799 140.528 129.351 137.817 130.657 134.34C132.104 130.488 131.82 125.391 131.547 120.457C131.515 119.874 131.483 119.29 131.45 118.71C131.439 118.479 131.409 118.247 131.372 118.025C131.561 117.976 131.765 117.931 131.987 117.891C133.479 122.501 136.453 126.724 139.203 130.624C145.313 139.293 148.782 144.965 143.305 151.997C138.346 158.362 131.585 156.12 123.261 152.531C120.722 151.436 118.528 150.488 116.609 150.162C111.001 149.199 106.03 152.69 101.643 155.767C97.8007 158.464 94.1592 161.012 91.0105 160.143C89.1408 159.629 84.4564 156.394 81.3857 137.504C80.6896 133.213 80.2103 128.904 79.8945 125.171L91.1779 118.22L91.177 118.224ZM75.0969 122.729L67.0213 127.704C66.5065 126.581 65.8405 125.448 64.9868 124.393L74.7966 117.225C74.8495 118.713 74.9458 120.59 75.0997 122.734L75.0969 122.729ZM89.3399 100.901C89.3399 100.901 89.3066 100.924 89.2919 100.936L80.2791 107.525C98.6031 87.6051 115.03 69.9804 131.504 53.8891C132.055 53.349 132.622 52.8283 133.193 52.3206L137.496 53.5222C138.721 53.8718 139.982 53.1493 140.321 51.9265C140.66 50.7036 139.949 49.434 138.729 49.0937L137.613 48.7824C149.332 40.4231 163.94 37.4805 178.033 40.9118L178.055 40.9172C184.113 42.3923 189.787 44.2549 194.924 46.4445C200.593 48.8621 204.559 53.7165 205.814 59.7642C207.06 65.7943 205.349 71.8064 201.125 76.2599C192.37 85.4868 184.043 93.3899 172.26 103.623C171.966 100.676 171.34 98.0942 170.595 95.2584C169.481 91.0354 165.816 87.8792 161.476 87.4141C145.701 85.7186 131.336 86.0623 118.779 88.4435C108.344 90.4227 98.4447 94.6143 89.3538 100.908L89.3399 100.901Z" fill="#160830" stroke="#160830"/>
<g clip-path="url(#clip2_99_32149)">
<path d="M152.893 127.004C153.172 122.958 151.303 119.758 148.56 119.568C147.017 119.46 145.558 120.32 144.56 121.926C143.824 123.112 143.355 124.678 143.239 126.326C142.98 130.064 144.55 133.081 146.961 133.668C147.158 133.716 147.362 133.75 147.572 133.762C149.115 133.869 150.574 133.01 151.572 131.403C152.308 130.218 152.777 128.652 152.893 127.004Z" fill="#160830"/>
<path d="M105.05 118.888C102.234 118.692 99.9661 121.772 99.6592 126.209C99.3751 130.325 100.916 133.516 103.382 134.116C103.575 134.163 103.776 134.196 103.981 134.211C105.57 134.322 107.058 133.374 108.059 131.611C108.78 130.339 109.245 128.662 109.37 126.894C109.678 122.453 107.86 119.092 105.045 118.891L105.05 118.888Z" fill="#160830"/>
</g>
<g clip-path="url(#clip3_99_32149)">
<path d="M102.563 156.478C102.607 156.502 102.647 156.526 102.688 156.549C102.584 156.506 102.477 156.47 102.373 156.438C102.286 156.411 102.194 156.387 102.105 156.367C102.224 156.374 102.329 156.391 102.419 156.419C102.473 156.436 102.522 156.454 102.563 156.478Z" fill="white"/>
<path d="M132.223 168L132.221 168.007C127.086 167.463 123.71 166.94 121.971 166.418C124.13 167.032 128.568 167.601 132.223 168Z" fill="white"/>
<path d="M144.168 169.641C143.302 165.643 139.309 164.228 135.535 164.083C131.493 163.639 126.522 163.267 122.959 162.285C118.684 161.111 110.022 155.334 105.606 153.211C103.957 152.418 102.254 151.878 100.386 152.093C96.5395 152.57 93.5718 155.165 93.0587 159.318C91.8273 169.983 108.913 181.571 117.283 183.946C124.487 186.36 132.826 185.055 137.46 181.75C141.771 178.845 145.026 174.609 144.177 169.696L144.166 169.637L144.168 169.641Z" fill="#160830"/>
<path d="M89.0338 154.83C88.8391 154.77 88.6469 154.678 88.4706 154.558C87.5058 153.905 87.2529 152.591 87.9038 151.623C92.3761 144.995 98.1683 143.167 105.617 146.047C106.703 146.469 107.242 147.69 106.826 148.777C106.406 149.867 105.188 150.406 104.103 149.989C98.4614 147.807 94.7847 148.969 91.396 153.993C90.8661 154.78 89.8967 155.094 89.0372 154.831L89.0338 154.83Z" fill="#160830"/>
<path d="M127.781 180.325C127.601 180.649 127.268 180.852 126.899 180.882C123.588 181.134 119.397 180.633 114.522 178.343C114.493 178.331 114.464 178.318 114.436 178.302C113.817 177.995 113.195 177.675 112.565 177.346C112.552 177.342 112.539 177.334 112.523 177.326C109.6 175.715 106.454 173.462 103.124 170.366C102.993 170.244 102.862 170.12 102.734 169.996C102.606 169.875 102.478 169.752 102.355 169.626C101.039 168.331 100.017 167.105 99.2391 165.961C99.2504 165.924 99.2607 165.89 99.2709 165.857C99.2894 165.796 99.3078 165.735 99.3263 165.675C99.4646 165.257 99.9464 165.074 100.327 165.293C105.523 168.314 113.586 172.538 121.916 175.092C124.075 175.754 126.253 176.304 128.404 176.691C128.768 176.759 129.003 177.11 128.915 177.47C128.696 178.345 128.278 179.439 127.788 180.327L127.781 180.325Z" fill="white"/>
<path d="M132.183 170.881C132.117 172.035 131.05 172.875 129.913 172.692C128.964 172.541 128.005 172.35 127.041 172.128C126.125 171.917 125.204 171.675 124.279 171.41C114.637 168.631 104.867 163.129 100.027 160.184C99.3673 159.783 98.9841 159.029 99.096 158.264C99.1266 158.067 99.1693 157.867 99.2254 157.671C99.2296 157.657 99.2347 157.64 99.2388 157.627C99.4588 156.881 100.126 156.331 100.899 156.273C101.297 156.245 101.699 156.276 102.093 156.367C102.094 156.364 102.101 156.366 102.105 156.367C102.194 156.387 102.286 156.411 102.373 156.438C102.477 156.47 102.583 156.506 102.688 156.549C102.718 156.559 102.744 156.57 102.773 156.583C107.257 158.506 109.743 160.152 111.936 161.608C112.064 161.691 112.192 161.778 112.317 161.861C114.896 163.568 117.258 165.054 121.907 166.399L121.971 166.418C123.653 166.923 126.865 167.429 131.72 167.953C132.004 167.985 132.221 168.224 132.215 168.509C132.208 169.196 132.198 169.877 132.19 170.567C132.191 170.674 132.185 170.775 132.179 170.88L132.183 170.881Z" fill="white"/>
</g>
<g clip-path="url(#clip4_99_32149)">
<g clip-path="url(#clip5_99_32149)">
<path d="M98.2689 106.778C97.5669 106.607 96.9599 106.108 96.675 105.384C96.2098 104.202 96.7883 102.868 97.9671 102.402C107.657 98.5731 117.846 99.4094 128.258 104.887C129.378 105.475 129.812 106.866 129.221 107.992C128.634 109.119 127.247 109.551 126.123 108.962C116.818 104.065 108.16 103.322 99.6449 106.683C99.1882 106.864 98.7072 106.885 98.2652 106.777L98.2689 106.778Z" fill="#160830"/>
<path d="M142.957 110.497C142.396 110.36 141.889 110.016 141.557 109.485C140.881 108.41 141.205 106.99 142.277 106.316C148.761 102.228 156.389 101.541 164.936 104.273C166.144 104.658 166.811 105.952 166.423 107.163C166.04 108.371 164.75 109.039 163.541 108.654C156.232 106.318 150.079 106.828 144.714 110.207C144.167 110.551 143.532 110.637 142.953 110.496L142.957 110.497Z" fill="#160830"/>
</g>
</g>
</g>
</g>
<defs>
<clipPath id="clip0_99_32149">
<rect width="344" height="242" fill="white"/>
</clipPath>
<clipPath id="clip1_99_32149">
<rect width="164.623" height="188.008" fill="white" transform="matrix(0.971614 0.236574 -0.23523 0.97194 61.1895 3.19019)"/>
</clipPath>
<clipPath id="clip2_99_32149">
<rect width="52.2748" height="24.8772" fill="white" transform="matrix(0.971614 0.236574 -0.23523 0.97194 103.727 108.596)"/>
</clipPath>
<clipPath id="clip3_99_32149">
<rect width="60.1714" height="32.8876" fill="white" transform="matrix(0.956158 0.293127 -0.291502 0.956486 90.9023 141.473)"/>
</clipPath>
<clipPath id="clip4_99_32149">
<rect width="106.66" height="49.8158" fill="white" transform="matrix(0.971614 0.236574 -0.23523 0.97194 85.4648 68.6543)"/>
</clipPath>
<clipPath id="clip5_99_32149">
<rect width="68.637" height="18.3015" fill="white" transform="matrix(0.971614 0.236574 -0.23523 0.97194 100.342 88.4465)"/>
</clipPath>
</defs>
</svg>
