<svg width="320" height="132" viewBox="0 0 320 132" fill="none" xmlns="http://www.w3.org/2000/svg">
<rect width="320" height="132" fill="#220D49"/>
<g clip-path="url(#clip0_60_8622)">
<path d="M116 66L124.5 42L136 57.5L130 80L116 66Z" fill="white"/>
<path d="M273.966 29.3504C271.424 28.4767 266.679 28.3883 264.765 28.3981C258.594 28.4145 255.064 29.3406 252.582 31.5952C252.224 31.9192 251.895 32.2726 251.593 32.6456C249.899 31.8995 248.05 31.3989 246.096 31.1796C240.274 30.5219 234.409 32.4296 229.746 36.4415C229.497 36.1895 229.237 35.9376 228.965 35.6889C223.951 31.0913 216.158 30.944 210.957 32.2235C204.813 33.6273 198.728 36.2386 195.72 45.6073C195.644 45.8429 195.585 46.0785 195.53 46.3207C195.093 46.1472 194.65 45.9803 194.183 45.8265C194.081 45.7938 193.976 45.7611 193.871 45.7316C190.44 44.7467 186.979 44.8383 183.839 45.892C182.913 43.9875 181.514 42.335 179.741 41.1406C179.725 41.1308 179.712 41.1209 179.695 41.1111C175.459 38.3035 169.624 38.13 165.174 40.6857C165.04 40.7643 164.912 40.8461 164.784 40.9279C164.219 40.3225 163.615 39.7433 162.958 39.1968C157.254 34.429 150.604 32.891 144.818 31.8243C139.436 30.8295 135.115 31.5232 131.966 33.8825C129.536 35.702 128.032 38.3853 127.726 41.4416C126.222 56.5532 128.235 85.3759 129.24 91.5475C129.903 95.6248 133.095 100.265 140.05 101.07C140.848 101.162 141.649 101.201 142.431 101.201C144.451 101.201 146.349 100.955 147.734 100.772C147.994 100.739 148.24 100.707 148.467 100.681C148.772 100.645 149.074 100.589 149.373 100.52C154.141 99.3978 158.712 97.0319 162.524 93.7563C163.326 94.4795 164.275 95.0914 165.352 95.5594C167.397 96.4494 169.972 96.8781 173.449 96.9108C173.505 96.9108 173.558 96.9108 173.614 96.9108C177.058 96.9108 179.478 95.9062 181.163 94.6693C183.265 95.975 185.544 96.7374 187.77 97.0319C188.781 97.1857 189.77 97.2643 190.735 97.2643C194.144 97.2643 197.231 96.3055 199.792 94.4926C201.657 96.9861 203.92 98.7303 206.563 99.7087C211.256 101.446 218.907 102.068 225.041 98.1085C226.124 97.4082 227.139 96.5934 228.078 95.6805C228.515 96.2204 228.955 96.6752 229.392 97.0777C232.807 100.219 237.342 101.787 242.166 101.499C245.229 101.315 248.273 100.37 250.979 98.8252C253.206 100.854 256.214 102.205 259.704 102.552C260.088 102.592 260.473 102.608 260.857 102.608C263.855 102.608 266.876 101.469 269.29 99.3913C272.022 97.045 273.683 93.7629 273.847 90.3793C273.999 87.2967 273.358 84.9014 272.462 83.0885C273 81.7927 273.178 80.6277 273.279 79.9536C273.384 79.3188 274.107 75.7553 274.81 72.3062C276.809 62.4696 279.827 47.6001 280.661 41.6151C281.637 34.6123 277.844 30.6888 273.966 29.3536V29.3504Z" fill="white"/>
<path d="M272.623 33.2184C270.488 32.4822 265.008 32.4854 264.774 32.4887C258.516 32.5051 256.496 33.5751 255.347 34.619C254.335 35.5385 253.698 36.8769 253.56 38.392C253.551 38.5 253.541 38.6211 253.531 38.7487C251.492 36.8376 248.74 35.5974 245.633 35.2473C240.494 34.6681 235.276 36.6086 231.316 40.5714C230.571 41.3175 229.957 42.0995 229.448 42.898C228.669 41.4222 227.612 40.0085 226.184 38.6996C222.355 35.1917 216.112 35.1589 211.906 36.2028C206.005 37.5477 201.89 39.8056 199.628 46.8542C199.572 47.0277 199.529 47.2011 199.496 47.3811C199.191 49.086 198.955 51.0461 198.777 53.1306C197.313 51.6842 195.398 50.5389 192.889 49.7077C192.837 49.6913 192.788 49.675 192.735 49.6586C188.496 48.4413 184.197 49.4034 180.992 52.1554C180.992 52.1194 180.999 52.0867 181.002 52.0507C181.193 49.014 179.83 46.1343 177.423 44.5112C174.454 42.5413 170.356 42.4268 167.223 44.2233C165.953 44.953 164.948 45.9445 164.248 47.1029C163.24 45.3424 161.956 43.6899 160.321 42.3221C155.382 38.1924 149.343 36.8082 144.073 35.8363C139.87 35.0608 136.625 35.4993 134.435 37.142C132.934 38.2644 132.005 39.9333 131.815 41.8345C130.37 56.3505 132.34 85.0227 133.296 90.8801C133.558 92.4967 134.793 96.3318 140.53 96.9961C141.163 97.0681 141.807 97.1008 142.447 97.1008C144.181 97.1008 145.876 96.8816 147.209 96.7081C147.485 96.6721 147.744 96.6394 147.981 96.61C148.132 96.5903 148.283 96.5642 148.434 96.5282C153.425 95.3534 158.18 92.6014 161.825 88.776C162.472 88.0986 163.05 87.346 163.575 86.541C163.608 87.1497 163.684 87.8041 163.877 88.4619C164.954 92.7323 171.348 92.7912 173.489 92.8108C173.561 92.8108 173.647 92.8108 173.738 92.8108C175.006 92.8108 177.971 92.6701 179.915 90.2257C180.227 89.8395 180.48 89.4305 180.687 89.0149C182.66 91.1975 185.251 92.5719 188.348 92.9711C189.166 93.0988 189.964 93.1609 190.732 93.1609C194.919 93.1609 198.344 91.299 200.537 87.778C200.577 87.7191 200.613 87.6602 200.649 87.6012C202.409 91.9305 204.875 94.7087 207.991 95.8639C208.835 96.1748 216.411 98.7959 222.808 94.6662C225.284 93.0693 227.326 90.7034 228.774 87.8598C229.819 91.371 231.05 93.0268 232.176 94.0608C234.761 96.4398 238.225 97.6244 241.919 97.4019C245.522 97.1859 249.091 95.6446 251.804 93.2067C253.186 96.0766 256.194 98.0792 260.115 98.4687C260.364 98.4948 260.614 98.5046 260.867 98.5046C262.886 98.5046 264.945 97.716 266.617 96.2795C268.502 94.6629 269.644 92.4345 269.756 90.1668C269.897 87.2773 269.185 84.9212 267.635 83.1574C267.914 82.8564 268.16 82.5161 268.37 82.143C268.961 81.0926 269.125 80.016 269.234 79.3026C269.316 78.7529 270.035 75.222 270.794 71.485C272.78 61.6975 275.788 46.9033 276.603 41.0426C277.378 35.4764 274.084 33.7093 272.632 33.2086L272.623 33.2184Z" fill="#160830"/>
<path d="M135.893 42.2432C136.212 39.0592 140.822 39.4028 143.321 39.8642C147.958 40.7183 153.402 41.8865 157.681 45.4599C161.598 48.7355 163.234 54.5602 163.7 59.6487C164.659 70.1201 163.355 81.2297 158.847 85.9615C155.658 89.3091 151.583 91.5866 147.488 92.5487C144.405 92.9184 137.975 94.1063 137.344 90.2286C136.461 84.8031 134.478 56.4811 135.896 42.2432H135.893ZM152.424 62.2567C152.072 59.4393 150.67 52.2729 146.247 52.178C144.808 52.1485 145.101 53.0942 145.245 54.5406C145.836 60.3817 146.283 74.1746 146.569 77.5516C146.651 78.5169 146.595 80.6309 148.158 79.8586C149.99 78.9522 153.156 75.5522 152.933 69.2824C152.87 67.5612 152.693 64.4525 152.42 62.26L152.424 62.2567Z" fill="white"/>
<path d="M167.841 87.4078C167.578 86.6453 167.687 85.3986 167.611 84.5216C167.414 79.2924 166.59 63.9648 167.053 60.002C167.283 58.0223 169.844 58.2153 171.854 58.3004C176.681 58.5 177.272 59.2036 177.272 61.648C177.485 69.3805 177.262 76.9069 177.456 84.6492C177.459 85.6833 177.347 86.9006 176.71 87.6761C175.978 88.6054 174.658 88.7331 173.525 88.7233C168.012 88.6742 167.844 87.4078 167.844 87.4078H167.841ZM167.233 51.4613C166.987 47.4658 172.126 45.9179 175.147 47.9206C177.574 49.5535 177.528 53.7977 174.835 55.1524C171.87 56.7428 167.253 55.3062 167.237 51.5529V51.458L167.233 51.4613Z" fill="white"/>
<path d="M180.447 76.0101C180.309 71.5728 180.24 67.0962 180.579 62.623C180.762 60.2571 181.298 58.0679 182.408 56.5724C184.897 53.3819 188.489 52.7013 191.596 53.5946C196.984 55.3748 198.813 58.7223 199.27 67.3449C199.493 73.4511 200.189 80.9709 197.079 85.5783C194.998 88.9717 191.776 89.3841 188.926 88.9292C184.046 88.3238 180.674 84.0534 180.454 76.1246L180.447 76.0133V76.0101ZM191.507 76.6416C191.487 72.9668 191.533 69.3247 191.353 65.6597C191.146 61.2715 188.955 61.1439 188.414 65.0281C188.164 67.1453 188.46 69.7501 188.397 72.0767C188.42 74.2332 188.295 76.8281 188.788 78.6443C189.615 81.7006 191.481 80.1855 191.504 76.7561V76.6449L191.507 76.6416Z" fill="white"/>
<path d="M203.535 48.1038C205.194 42.9336 207.679 41.3563 212.858 40.1848C216.372 39.3046 221.028 39.5336 223.402 41.713C228.397 46.2942 227.421 52.6982 227.178 58.8731C227.077 59.9726 227.231 60.578 225.908 60.699C223.54 60.9935 221.159 61.1113 218.775 61.1572C217.892 61.1506 216.533 61.2848 216.437 60.1395C216.25 58.6866 216.825 57.034 216.069 55.6924C215.449 54.5765 213.695 54.5078 212.937 55.5189C211.696 57.1715 212.067 61.9851 212.28 67.5382C212.296 67.9472 212.802 74.1581 213.022 76.8251C213.085 77.5679 213.653 78.1667 214.395 78.2649C215.58 78.422 217.209 78.4416 217.514 77.437C217.82 76.4324 217.879 73.916 217.793 72.8263C217.761 72.3845 217.386 72.0475 216.943 72.0573C216.099 72.0769 215.36 72.486 215.245 71.5861C214.927 69.0762 214.9 68.3759 215.006 65.8595C215.068 64.3215 215.354 64.3084 216.316 64.2724C218.365 64.2004 225.888 63.5558 226.686 64.4622C227.484 65.3686 227.353 75.5881 227.008 79.312C226.591 83.7984 224.509 88.6971 220.575 91.2364C216.372 93.9492 210.999 92.6173 209.42 92.0316C206.688 91.0204 204.974 87.7415 203.946 84.7146C203.033 82.0313 202.563 79.2204 202.481 76.3898C202.314 70.5946 202.081 56.2192 203.535 48.1006V48.1038ZM271.283 37.0826C269.785 36.5656 259.845 36.0682 258.112 37.6422C257.829 37.8975 257.685 38.3458 257.649 38.7646C257.317 42.3871 257.442 60.555 257.264 78.7852C257.251 80.0483 257.915 80.3297 259.143 80.4475C260.824 80.6079 262.062 80.6962 263.579 80.7682C264.83 80.8271 265.008 79.7571 265.168 78.6968C265.487 76.6091 271.371 48.8009 272.531 40.4859C272.718 39.1442 272.731 37.58 271.283 37.0826ZM234.958 91.063C239.305 95.0617 246.402 93.4354 250.116 89.0799C253.61 85.0255 253.147 79.2859 253.35 74.2759C253.36 66.7168 255.731 49.2688 251.941 43.215C248.97 38.4668 240.376 37.2986 234.222 43.4571C231.812 45.8721 231.286 48.8728 230.695 52.0666C230.439 53.441 229.237 85.8043 234.954 91.063H234.958ZM240.172 55.4044C240.363 52.7702 241.46 52.5084 242.152 52.4757C242.875 52.443 243.61 52.7244 243.735 55.8724C243.968 61.8084 243.89 70.2968 243.63 76.6385C243.542 78.8015 242.977 80.0778 242.031 80.1988C240.944 80.3363 240.754 78.7492 240.566 77.185C239.975 72.2569 239.995 57.8914 240.176 55.4044H240.172ZM260.351 84.2761C256.489 84.178 255.209 86.6682 255.071 89.1846C254.91 92.133 257.14 94.0702 260.512 94.404C262.893 94.6396 265.526 92.4013 265.645 89.9765C265.822 86.3606 264.147 84.3743 260.351 84.2761Z" fill="#F75BC8"/>
<path d="M252.671 79.6331C251.856 79.2306 251.377 78.6874 251.222 77.8791C250.996 76.7011 251.905 75.4608 253.104 75.3234C253.347 75.2972 253.439 75.3823 253.442 75.6212C253.459 77.0708 253.38 78.5139 253.304 79.9603C253.242 81.1318 253.111 82.2935 252.887 83.442C252.388 86.0141 251.311 88.2949 249.357 90.098C247.929 91.4167 246.287 92.3951 244.399 92.9253C244.294 92.9547 244.152 93.0627 244.08 92.9318C244.018 92.8205 244.152 92.7224 244.231 92.6373C244.606 92.2282 245.092 92.0221 245.647 91.9108C244.76 91.2073 244.589 90.9455 244.379 89.9311C243.919 90.7655 243.256 91.2465 242.238 91.2825C242.947 91.5771 243.404 92.0155 243.65 92.6635C243.762 92.958 243.765 93.1216 243.371 93.1903C241.125 93.5993 238.944 93.4914 236.869 92.4508C236.403 92.2152 235.973 91.9174 235.546 91.613C235.247 91.4003 235.375 91.2498 235.552 91.0895C236.166 90.5332 236.879 90.2976 237.697 90.5397C238.501 90.7786 239.017 91.3185 239.243 92.1235C239.292 92.2937 239.312 92.4704 239.345 92.6569C239.936 91.636 240.084 91.5247 241.407 91.1222C240.297 90.4612 239.801 89.5449 240.202 88.2916C240.481 87.4179 241.266 86.8845 242.346 86.806C241.785 86.518 241.345 86.1679 241.102 85.6312C240.852 85.0815 240.836 84.5154 241.046 83.9525C241.365 83.0952 242.281 82.4963 243.171 82.552C244.274 82.6207 244.996 83.2915 245.305 84.5874C245.771 83.7235 246.431 83.2163 247.482 83.1966C246.875 82.9316 246.451 82.5618 246.208 82.012C245.972 81.4721 245.942 80.9289 246.146 80.3726C246.471 79.4825 247.413 78.8477 248.316 78.9164C249.492 79.0048 250.218 79.7509 250.461 81.1776C250.878 80.2188 251.58 79.7116 252.677 79.6232L252.671 79.6331ZM244.543 89.0475C244.944 88.1313 245.61 87.6895 246.55 87.5226C245.679 87.0809 245.239 86.4231 245.164 85.4709C244.75 86.3511 244.11 86.8289 243.098 86.9369C243.982 87.4081 244.478 88.0397 244.546 89.0508L244.543 89.0475ZM250.309 81.8975C249.929 82.7614 249.246 83.1999 248.274 83.3471C249.127 83.7824 249.574 84.4074 249.676 85.3302C250.063 84.5383 250.664 84.0834 251.547 83.91C250.756 83.4093 250.388 82.7516 250.306 81.8942L250.309 81.8975ZM247.577 87.6961C247.952 87.8891 248.237 88.0887 248.474 88.3571C248.72 88.632 248.822 88.9854 249.016 89.3388C249.397 88.8316 249.846 88.488 250.424 88.3276C250.612 88.2753 250.598 88.2 250.464 88.0986C249.889 87.6732 249.587 87.0907 249.502 86.3282C249.094 87.1398 248.471 87.5619 247.577 87.6993V87.6961Z" fill="#EA00A4"/>
<path d="M259.809 79.5383C259.573 79.7641 259.389 79.9702 259.172 80.1371C258.502 80.6476 257.534 80.2909 257.337 79.4663C257.192 78.8609 257.209 78.2424 257.271 77.6338C257.31 77.2411 257.32 76.855 257.32 76.4656C257.32 76.2365 257.35 76.05 257.718 75.9878C257.343 75.8635 257.32 75.6475 257.32 75.3955C257.327 74.4007 257.333 73.4092 257.317 72.4144C257.31 72.1003 257.438 71.9432 257.718 71.832C259.12 71.2691 260.637 72.2475 260.778 73.8641C260.998 73.4518 261.231 73.1016 261.589 72.8464C261.95 72.5879 262.361 72.4668 262.794 72.3883C261.619 71.508 261.254 70.6506 261.599 69.6002C261.927 68.6054 262.722 68.1015 264.019 68.0688C262.827 67.5812 262.193 66.7075 262.321 65.7258C262.469 64.6067 263.238 63.8442 264.361 63.7133C265.431 63.5857 266.2 64.2402 266.791 65.7945C267.024 65.3593 267.303 64.983 267.736 64.7605C267.828 64.7146 267.933 64.6263 268.029 64.6917C268.137 64.767 268.098 64.9044 268.075 65.019C267.871 66.0268 267.667 67.0314 267.467 68.0393C267.447 68.1342 267.428 68.2357 267.332 68.2586C267.227 68.2847 267.175 68.1833 267.119 68.1113C266.804 67.699 266.603 67.2442 266.626 66.6028C266.18 67.6303 265.441 68.0622 264.37 68.131C265.352 68.5171 265.878 69.1846 265.996 70.222C266.242 69.7573 266.515 69.3941 266.919 69.1519C266.997 69.1061 267.083 69.0374 267.172 69.0996C267.24 69.1454 267.227 69.2435 267.211 69.3188C267.004 70.3234 266.8 71.3313 266.59 72.3359C266.574 72.4177 266.515 72.493 266.462 72.5977C266.042 72.2279 265.937 71.7469 265.822 71.2233C265.582 71.58 265.365 71.9269 265.008 72.1526C264.663 72.3719 264.292 72.5126 263.766 72.542C264.604 72.9282 265.044 73.5139 265.241 74.3451C265.53 73.995 265.756 73.6874 266.088 73.4943C266.154 73.455 266.226 73.3929 266.301 73.4518C266.331 73.4747 266.337 73.5467 266.328 73.5925C266.104 74.7116 265.874 75.8307 265.631 77.0186C265.231 76.6914 265.136 76.2725 264.981 75.8046C264.567 76.4492 264.026 76.8124 263.277 76.9859C263.884 77.3982 264.282 77.8694 264.469 78.55C264.728 78.2653 264.925 77.9839 265.218 77.8105C265.287 77.7712 265.359 77.7091 265.434 77.7581C265.51 77.8039 265.487 77.8956 265.474 77.9741C265.349 78.586 265.228 79.1947 265.106 79.8066C265.05 80.0848 264.906 80.3236 264.719 80.52C264.607 80.6378 264.407 80.9028 264.259 80.5134C264.219 80.412 264.131 80.3989 264.078 80.4774C263.687 81.0828 263.08 80.8538 262.568 80.8145C262.023 80.7752 261.471 80.736 260.929 80.713C260.43 80.6901 260.184 80.4807 260.013 80.0815C259.941 79.9146 259.885 79.7444 259.806 79.5448L259.809 79.5383ZM260.62 74.7443C260.2 75.6148 259.55 76.0336 258.637 76.158C259.412 76.5114 259.868 77.0677 260.105 77.8988C260.528 77.2542 261.077 76.9041 261.852 76.7306C261.097 76.2529 260.729 75.6213 260.62 74.7443Z" fill="#EA00A4"/>
<path d="M258.594 86.3218C258.926 85.9258 259.29 85.6346 259.737 85.4579C259.937 85.3793 259.829 85.291 259.737 85.2059C259.553 85.0358 259.399 84.8427 259.267 84.63C259.133 84.4107 259.198 84.2635 259.441 84.2504C260.693 84.1817 261.927 84.2635 263.113 84.7183C263.316 84.7969 263.283 84.9049 263.162 85.0423C262.889 85.3499 262.525 85.5331 262.141 85.7426C262.463 86.0174 262.729 86.3054 262.903 86.6588C262.968 86.793 263.057 86.829 263.175 86.7112C263.435 86.4494 263.76 86.2792 264.108 86.1091C263.812 85.7491 263.497 85.4284 263.408 84.9278C263.769 84.9899 264.006 85.2125 264.242 85.4088C265.132 86.1483 265.559 87.1431 265.72 88.259C265.838 89.0738 265.894 89.8952 265.69 90.7067C265.349 92.0713 264.498 93.0562 263.326 93.799C262.995 94.0117 262.637 94.1688 262.266 94.2932C262.075 94.3586 261.888 94.4404 261.773 94.1786C261.734 94.087 261.658 94.0739 261.582 94.1459C261.018 94.6924 260.371 94.4666 259.727 94.3652C259.258 94.2899 258.818 94.123 258.368 93.9954C257.967 93.8808 257.652 93.678 257.507 93.2689C257.452 93.1151 257.389 92.9908 257.212 93.1708C257.048 93.3344 256.906 93.2329 256.768 93.1119C255.783 92.2512 255.163 91.2237 255.1 89.8755C255.025 88.2819 255.347 86.829 256.424 85.6019C256.634 85.3597 256.923 85.1863 257.186 84.9932C257.353 84.8689 257.504 84.9572 257.652 85.0587C258.102 85.363 258.358 85.8146 258.591 86.325L258.594 86.3218ZM259.011 89.7217C258.683 89.3945 258.433 89.0476 258.286 88.6386C258.213 88.4357 258.131 88.5241 258.039 88.6222C257.79 88.8971 257.488 89.1 257.143 89.2407C257.002 89.2963 256.897 89.3585 257.071 89.5057C257.346 89.7348 257.557 90.0162 257.714 90.3369C257.777 90.4613 257.852 90.5431 257.977 90.4089C258.259 90.1111 258.617 89.9246 259.008 89.7217H259.011ZM263.109 90.4155C263.096 90.3925 263.09 90.3664 263.073 90.3467C262.889 90.098 262.748 89.7741 262.502 89.6268C262.348 89.5352 262.144 89.8755 261.927 89.9704C261.855 89.9999 261.789 90.0457 261.717 90.0784C261.582 90.1406 261.599 90.2126 261.674 90.3238C262.193 91.0928 262.21 91.0994 262.965 90.5791C263.027 90.5365 263.116 90.5202 263.109 90.4155Z" fill="#EA00A4"/>
<path d="M240.041 88.2786C240.041 89.4959 239.092 90.4187 237.854 90.4121C236.655 90.4056 235.729 89.4632 235.733 88.2557C235.733 87.0384 236.682 86.1156 237.92 86.1221C239.118 86.1286 240.044 87.0711 240.041 88.2786Z" fill="#EA00A4"/>
<path d="M257.323 69.5412C257.323 68.2846 257.895 67.532 258.936 67.3749C260.036 67.2113 261.057 67.8102 261.395 68.818C261.74 69.8521 261.271 70.9712 260.282 71.4686C259.346 71.9398 258.19 71.6322 257.543 70.7749C257.238 70.3691 257.363 69.9241 257.327 69.5379L257.323 69.5412Z" fill="#EA00A4"/>
<path d="M249.003 74.5938C250.191 74.5938 251.15 75.5525 251.147 76.7371C251.147 77.9217 250.185 78.874 248.993 78.874C247.804 78.874 246.845 77.9152 246.848 76.7306C246.848 75.546 247.811 74.5938 249.003 74.5938Z" fill="#EA00A4"/>
<path d="M267.441 62.0606C267.152 62.8492 266.679 63.4513 265.812 63.6608C264.676 63.9356 263.53 63.2485 263.238 62.113C262.949 60.984 263.628 59.8289 264.761 59.5311C265.894 59.2333 267.06 59.8976 267.375 61.0167C267.474 61.3636 267.467 61.7137 267.438 62.0639L267.441 62.0606Z" fill="#EA00A4"/>
<path d="M262.249 65.1826C262.262 66.3181 261.281 67.3128 260.128 67.3259C258.988 67.339 257.987 66.3606 257.974 65.2153C257.961 64.0798 258.942 63.085 260.095 63.0719C261.235 63.0588 262.236 64.0372 262.249 65.1826Z" fill="#EA00A4"/>
<path d="M238.659 86.0668C237.499 86.0504 236.511 85.0425 236.55 83.9169C236.587 82.7683 237.562 81.8193 238.691 81.8357C239.851 81.852 240.839 82.8599 240.8 83.9856C240.764 85.1342 239.788 86.0831 238.659 86.0668Z" fill="#EA00A4"/>
<path d="M251.863 72.3293C251.863 73.5106 250.966 74.4072 249.774 74.404C248.608 74.404 247.712 73.5073 247.709 72.3457C247.709 71.1643 248.605 70.2677 249.797 70.271C250.963 70.271 251.859 71.1676 251.863 72.3293Z" fill="#EA00A4"/>
<path d="M266.006 59.2597C264.847 59.2564 263.947 58.3467 263.947 57.1883C263.947 56.0168 264.87 55.1169 266.058 55.13C267.211 55.1398 268.104 56.0561 268.098 57.221C268.091 58.3729 267.175 59.2662 266.006 59.2597Z" fill="#EA00A4"/>
<path d="M260.916 62.8657C259.78 62.8755 258.831 61.9331 258.831 60.8041C258.831 59.6915 259.763 58.7556 260.883 58.7491C262.019 58.7393 262.968 59.6817 262.968 60.8107C262.968 61.9233 262.036 62.8591 260.916 62.8657Z" fill="#EA00A4"/>
<path d="M234.272 85.2025C233.191 85.2124 232.236 84.2765 232.216 83.1868C232.196 82.1036 233.178 81.1187 234.272 81.1285C235.362 81.1383 236.307 82.084 236.307 83.1639C236.307 84.2437 235.362 85.1894 234.272 85.2025Z" fill="#EA00A4"/>
<path d="M252.608 68.0228C252.608 69.119 251.682 70.0451 250.575 70.0484C249.472 70.0484 248.543 69.1256 248.54 68.0261C248.54 66.9298 249.466 66.0038 250.572 66.0005C251.676 66.0005 252.605 66.9233 252.608 68.0228Z" fill="#EA00A4"/>
<path d="M268.82 52.7871C268.827 53.916 267.947 54.8028 266.814 54.8061C265.681 54.8061 264.794 53.9259 264.797 52.7969C264.797 51.6843 265.668 50.8106 266.784 50.7975C267.92 50.7844 268.813 51.6581 268.82 52.7871Z" fill="#EA00A4"/>
<path d="M246.018 80.3433C246.018 81.4592 245.092 82.4147 243.965 82.4704C242.875 82.526 241.857 81.649 241.749 80.556C241.729 80.3728 241.709 80.1764 241.985 80.1568C242.622 80.1077 242.934 79.6725 243.171 79.1555C243.22 79.0508 243.253 78.9362 243.289 78.825C243.512 78.1607 243.604 78.1083 244.317 78.2654C245.305 78.4847 246.018 79.3551 246.018 80.3401V80.3433Z" fill="#EA00A4"/>
<path d="M239.476 77.5028C239.703 77.5028 239.916 77.5617 240.13 77.6272C240.58 77.7646 240.875 78.0199 240.911 78.5271C240.941 78.9459 241.072 79.355 241.315 79.6986C241.499 79.9636 241.43 80.1861 241.315 80.4283C240.888 81.3347 239.834 81.8059 238.875 81.5114C237.92 81.2202 237.27 80.2418 237.414 79.3091C237.575 78.262 238.452 77.493 239.473 77.4996L239.476 77.5028Z" fill="#EA00A4"/>
<path d="M263.681 56.4453C263.671 57.5448 262.771 58.4087 261.652 58.3956C260.545 58.3858 259.681 57.4924 259.691 56.3733C259.701 55.2738 260.598 54.4099 261.721 54.423C262.827 54.4328 263.691 55.3262 263.681 56.4453Z" fill="#EA00A4"/>
<path d="M235.053 76.8027C236.11 76.8027 237.046 77.7484 237.026 78.7923C237.007 79.8362 236.087 80.7393 235.046 80.7393C233.989 80.7393 233.053 79.7936 233.073 78.7498C233.093 77.7059 234.012 76.8027 235.053 76.8027Z" fill="#EA00A4"/>
<path d="M251.344 61.6683C252.385 61.6487 253.304 62.5453 253.33 63.6022C253.36 64.6461 252.421 65.5918 251.36 65.5918C250.313 65.5918 249.4 64.6854 249.393 63.6382C249.383 62.5976 250.286 61.6879 251.344 61.6683Z" fill="#EA00A4"/>
<path d="M269.569 48.4804C269.575 49.521 268.672 50.4308 267.615 50.4471C266.561 50.4635 265.615 49.5243 265.628 48.4739C265.641 47.4235 266.554 46.5236 267.602 46.5269C268.653 46.5301 269.562 47.4366 269.569 48.4804Z" fill="#EA00A4"/>
<path d="M245.348 69.5673C246.264 69.5673 247.039 70.1334 247.295 70.9711C247.561 71.8416 247.216 72.7545 246.431 73.2519C245.705 73.7133 244.743 73.6413 244.087 73.085C243.873 72.9051 243.771 72.7022 243.761 72.4142C243.739 71.7467 243.847 71.0889 243.85 70.4247C243.85 70.2479 243.955 70.1367 244.077 70.032C244.451 69.7146 244.878 69.5411 245.348 69.564V69.5673Z" fill="#EA00A4"/>
<path d="M246.162 65.3267C247.259 65.3267 248.08 66.1415 248.083 67.2312C248.083 68.3405 247.259 69.1586 246.142 69.152C245.052 69.1455 244.238 68.3241 244.241 67.2279C244.241 66.1415 245.068 65.3267 246.162 65.3267Z" fill="#EA00A4"/>
<path d="M262.489 53.9257C261.399 53.929 260.561 53.1077 260.558 52.0278C260.555 50.9414 261.382 50.1102 262.463 50.1069C263.553 50.1037 264.39 50.925 264.394 52.0049C264.397 53.0913 263.569 53.9225 262.489 53.9257Z" fill="#EA00A4"/>
<path d="M270.285 44.0989C270.281 45.1068 269.401 45.9805 268.39 45.9838C267.369 45.9871 266.465 45.0806 266.488 44.0695C266.511 43.0551 267.398 42.1912 268.403 42.2042C269.418 42.2173 270.291 43.0976 270.285 44.0989Z" fill="#EA00A4"/>
<path d="M219.609 91.4951C218.588 91.5016 217.688 90.605 217.698 89.5906C217.708 88.5827 218.582 87.7156 219.593 87.709C220.614 87.7025 221.514 88.5991 221.504 89.6135C221.494 90.6214 220.621 91.4886 219.609 91.4951Z" fill="#EA00A4"/>
<path d="M253.971 59.227C253.981 60.2283 253.107 61.1118 252.093 61.1282C251.075 61.1445 250.165 60.2446 250.175 59.2302C250.181 58.2223 251.062 57.3486 252.073 57.3486C253.081 57.3486 253.964 58.2191 253.971 59.227Z" fill="#EA00A4"/>
<path d="M237.739 74.4464C237.746 75.4641 236.846 76.3575 235.825 76.3509C234.813 76.3411 233.94 75.4739 233.933 74.4661C233.927 73.4484 234.823 72.555 235.848 72.5616C236.859 72.5714 237.732 73.4385 237.739 74.4464Z" fill="#EA00A4"/>
<path d="M248.805 62.8362C248.809 63.8899 247.998 64.6981 246.94 64.6916C245.899 64.685 245.101 63.8899 245.095 62.8525C245.091 61.7988 245.903 60.9906 246.96 60.9971C248.001 61.0037 248.799 61.7988 248.805 62.8362Z" fill="#EA00A4"/>
<path d="M263.188 49.5504C262.131 49.5504 261.32 48.7389 261.33 47.6852C261.34 46.6479 262.141 45.856 263.182 45.856C264.239 45.856 265.05 46.6675 265.04 47.7212C265.03 48.7585 264.229 49.5504 263.188 49.5504Z" fill="#EA00A4"/>
<path d="M222.141 85.2093C222.141 86.1975 221.291 87.0352 220.299 87.0287C219.307 87.0221 218.47 86.1713 218.483 85.1831C218.496 84.2112 219.33 83.3866 220.306 83.3833C221.297 83.38 222.144 84.221 222.141 85.2093Z" fill="#EA00A4"/>
<path d="M236.629 71.8812C235.641 71.8844 234.787 71.0336 234.797 70.0487C234.807 69.0735 235.641 68.2489 236.616 68.2456C237.605 68.2423 238.458 69.0931 238.449 70.0781C238.439 71.0533 237.605 71.8779 236.629 71.8812Z" fill="#EA00A4"/>
<path d="M270.997 39.6847C271.01 40.6435 270.176 41.4943 269.201 41.5139C268.226 41.5336 267.352 40.6729 267.352 39.6978C267.352 38.7325 268.196 37.8915 269.168 37.8882C270.137 37.8849 270.984 38.7161 270.997 39.6847Z" fill="#EA00A4"/>
<path d="M244.747 73.8871C245.456 73.9263 246.113 74.3223 246.474 75.124C246.832 75.9159 246.701 76.6685 246.123 77.3099C245.548 77.9513 244.816 78.1542 243.978 77.9153C243.693 77.8335 243.551 77.7255 243.588 77.3426C243.663 76.4886 243.726 75.6279 243.696 74.764C243.673 74.0245 243.831 73.8871 244.747 73.8838V73.8871Z" fill="#EA00A4"/>
<path d="M216.996 88.8022C217.009 89.7675 216.165 90.6118 215.19 90.615C214.214 90.615 213.374 89.774 213.38 88.8087C213.387 87.8499 214.198 87.0384 215.167 87.0155C216.129 86.9958 216.986 87.8303 216.996 88.8022Z" fill="#EA00A4"/>
<path d="M249.531 58.4349C249.544 59.3904 248.737 60.2151 247.765 60.2347C246.793 60.2543 245.942 59.4199 245.945 58.4447C245.949 57.4827 246.766 56.6679 247.732 56.6646C248.694 56.658 249.518 57.4696 249.531 58.4349Z" fill="#EA00A4"/>
<path d="M263.976 41.5532C264.985 41.5532 265.736 42.3091 265.736 43.3137C265.736 44.3183 264.978 45.0677 263.97 45.0677C262.962 45.0677 262.21 44.3118 262.21 43.3072C262.21 42.3026 262.968 41.5532 263.976 41.5532Z" fill="#EA00A4"/>
<path d="M254.227 54.9502C254.227 55.0942 254.227 55.2382 254.227 55.3822C254.227 56.2755 253.78 56.7238 252.877 56.7369C252.145 56.7467 251.439 56.2591 251.17 55.5654C250.9 54.8651 251.104 54.0536 251.669 53.5693C252.263 53.0588 253.084 52.9803 253.757 53.3599C254.079 53.5398 254.283 53.7689 254.233 54.1714C254.204 54.4299 254.227 54.6917 254.227 54.9535V54.9502Z" fill="#EA00A4"/>
<path d="M221.1 79.0737C222.046 79.0737 222.86 79.8918 222.847 80.831C222.834 81.7636 222.033 82.5489 221.1 82.5522C220.155 82.5522 219.34 81.7341 219.353 80.795C219.367 79.8624 220.168 79.077 221.1 79.0737Z" fill="#EA00A4"/>
<path d="M237.427 67.4079C236.481 67.4177 235.664 66.6029 235.667 65.6638C235.674 64.7344 236.468 63.9425 237.401 63.9327C238.347 63.9229 239.164 64.7377 239.161 65.6769C239.154 66.6062 238.363 67.3981 237.427 67.4079Z" fill="#EA00A4"/>
<path d="M223.678 81.4068C223.708 80.8276 224.056 80.2713 224.722 79.9506C225.392 79.6299 226.042 79.7182 226.646 80.1567C226.909 80.3465 227.014 80.5821 226.952 80.8963C226.817 81.5704 226.676 82.2412 226.486 82.9055C226.413 83.1607 226.259 83.2916 226.006 83.3636C224.837 83.6974 223.662 82.8008 223.675 81.41L223.678 81.4068Z" fill="#EA00A4"/>
<path d="M215.984 86.1419C215.065 86.1484 214.237 85.3238 214.247 84.4108C214.257 83.5011 215.055 82.7092 215.968 82.7027C216.887 82.6961 217.715 83.5208 217.705 84.4337C217.695 85.3434 216.897 86.1353 215.984 86.1419Z" fill="#EA00A4"/>
<path d="M248.513 52.4303C249.443 52.4205 250.221 53.1796 250.237 54.1122C250.254 55.0481 249.459 55.8466 248.517 55.84C247.584 55.8335 246.812 55.0645 246.812 54.1384C246.812 53.2124 247.581 52.4401 248.513 52.4303Z" fill="#EA00A4"/>
<path d="M232.2 67.5583C233.116 67.5452 233.943 68.3633 233.94 69.2795C233.94 70.1827 233.149 71.0237 232.232 70.9844C231.25 70.9451 230.564 70.4543 230.531 69.1159C230.512 68.3273 231.326 67.5681 232.2 67.5583Z" fill="#EA00A4"/>
<path d="M258.877 48.6673C258.496 48.6837 258.158 48.5691 257.842 48.3597C257.491 48.1274 257.35 47.8525 257.442 47.4009C257.527 46.9886 257.488 46.5436 257.478 46.1149C257.471 45.8531 257.57 45.6731 257.777 45.5193C258.394 45.0547 259.231 45.035 259.868 45.4801C260.492 45.9153 260.762 46.6908 260.545 47.414C260.322 48.1601 259.655 48.6608 258.88 48.664L258.877 48.6673Z" fill="#EA00A4"/>
<path d="M266.446 38.8961C266.452 39.8647 265.737 40.5879 264.771 40.5912C263.799 40.5912 263.077 39.8778 263.077 38.9158C263.077 37.9668 263.786 37.2469 264.732 37.2403C265.707 37.2305 266.439 37.9406 266.446 38.8961Z" fill="#EA00A4"/>
<path d="M235.644 87.5586C235.644 88.4781 235.06 89.2765 234.209 89.5481C233.969 89.6234 233.818 89.5907 233.703 89.3518C233.188 88.2818 232.82 87.1593 232.515 86.0173C232.449 85.7751 232.597 85.6966 232.781 85.6213C234.137 85.0585 235.647 86.0795 235.647 87.5618L235.644 87.5586Z" fill="#EA00A4"/>
<path d="M212.454 88.0432C212.451 88.966 211.702 89.7023 210.773 89.7023C209.827 89.7023 209.085 88.9464 209.098 87.9974C209.108 87.0779 209.866 86.3514 210.799 86.358C211.725 86.3645 212.461 87.1139 212.454 88.0432Z" fill="#EA00A4"/>
<path d="M261.313 42.5216C261.313 43.4378 260.558 44.1937 259.639 44.1937C258.719 44.1937 257.961 43.4411 257.957 42.5281C257.957 41.6119 258.713 40.856 259.632 40.856C260.551 40.856 261.31 41.6086 261.313 42.5216Z" fill="#EA00A4"/>
<path d="M223.553 76.5079C223.547 77.3915 222.772 78.1572 221.885 78.1572C220.985 78.1572 220.197 77.3587 220.22 76.4687C220.243 75.5819 221.028 74.8259 221.908 74.839C222.798 74.8554 223.563 75.6277 223.553 76.5079Z" fill="#EA00A4"/>
<path d="M238.189 59.6261C239.069 59.6163 239.857 60.3951 239.857 61.2753C239.857 62.1556 239.072 62.9344 238.192 62.9278C237.319 62.9213 236.56 62.1719 236.544 61.2982C236.524 60.4278 237.302 59.6359 238.189 59.6261Z" fill="#EA00A4"/>
<path d="M216.776 81.7373C215.892 81.7438 215.144 81.0141 215.13 80.1273C215.114 79.2372 215.879 78.4715 216.779 78.4781C217.669 78.4879 218.404 79.2274 218.404 80.1077C218.404 80.9912 217.665 81.7275 216.776 81.7373Z" fill="#EA00A4"/>
<path d="M233.027 63.2846C233.95 63.2911 234.62 63.9848 234.606 64.9207C234.597 65.837 233.897 66.498 232.951 66.4816C232.048 66.4685 231.385 65.7814 231.392 64.8651C231.398 63.9423 232.088 63.2748 233.027 63.2813V63.2846Z" fill="#EA00A4"/>
<path d="M249.239 51.3373C248.323 51.3373 247.627 50.6403 247.633 49.7241C247.636 48.8307 248.333 48.1468 249.232 48.1436C250.148 48.1436 250.845 48.8406 250.838 49.7568C250.835 50.6502 250.139 51.3341 249.239 51.3373Z" fill="#EA00A4"/>
<path d="M227.359 76.5474C227.195 77.143 227.34 77.8662 227.205 78.573C227.165 78.7726 227.077 78.8675 226.906 78.9362C226.203 79.2144 225.336 78.9493 224.873 78.3145C224.384 77.6371 224.43 76.734 224.985 76.109C225.501 75.5298 226.404 75.3661 227.074 75.6934C227.425 75.8668 227.34 76.158 227.356 76.5442L227.359 76.5474Z" fill="#EA00A4"/>
<path d="M213.16 83.635C213.16 84.5054 212.431 85.2286 211.558 85.2253C210.684 85.2221 209.962 84.4891 209.972 83.6186C209.981 82.7645 210.697 82.0544 211.554 82.0479C212.428 82.0414 213.16 82.7645 213.16 83.635Z" fill="#EA00A4"/>
<path d="M222.68 70.5396C223.527 70.5396 224.269 71.2955 224.25 72.1266C224.23 72.9611 223.501 73.6712 222.673 73.6679C221.826 73.6679 221.084 72.912 221.104 72.0808C221.123 71.2464 221.852 70.5363 222.68 70.5396Z" fill="#EA00A4"/>
<path d="M258.066 49.4854C259.14 49.4854 259.964 50.3754 259.891 51.4618C259.826 52.473 258.874 53.2453 257.842 53.134C257.53 53.1013 257.386 52.9737 257.393 52.6333C257.412 51.7956 257.399 50.9612 257.399 50.1235C257.399 49.5606 257.478 49.4854 258.062 49.4854H258.066Z" fill="#EA00A4"/>
<path d="M260.345 39.7958C259.291 39.7958 258.522 38.7716 258.818 37.767C258.949 37.3252 259.202 37.0471 259.688 36.9947C260.023 36.9587 260.361 36.8933 260.686 36.8213C261.028 36.7428 261.244 36.8704 261.458 37.0733C261.927 37.5183 262.069 38.2088 261.822 38.8043C261.576 39.3999 260.985 39.7958 260.345 39.7958Z" fill="#EA00A4"/>
<path d="M222.814 86.0602C222.834 84.5452 224.41 83.6354 225.645 84.3259C225.852 84.4404 225.944 84.5517 225.832 84.82C225.441 85.7592 224.972 86.6525 224.433 87.5132C224.266 87.7848 224.085 87.8208 223.826 87.6637C223.179 87.2775 222.841 86.7147 222.814 86.057V86.0602Z" fill="#EA00A4"/>
<path d="M240.278 56.9103C240.278 57.8985 239.982 58.3239 239.207 58.4745C238.478 58.6152 237.749 58.229 237.48 57.5582C237.191 56.8416 237.45 56.0333 238.1 55.6406C238.724 55.2643 239.535 55.3886 240.048 55.9057C240.356 56.2133 240.255 56.583 240.278 56.9136V56.9103Z" fill="#EA00A4"/>
<path d="M233.782 62.0836C232.935 62.0836 232.265 61.4095 232.265 60.5652C232.265 59.7209 232.942 59.0534 233.792 59.0567C234.639 59.0567 235.309 59.7308 235.309 60.575C235.309 61.4193 234.633 62.0868 233.782 62.0836Z" fill="#EA00A4"/>
<path d="M248.503 45.3128C248.52 44.4751 249.219 43.8141 250.066 43.837C250.907 43.8566 251.567 44.5569 251.541 45.4012C251.514 46.2225 250.828 46.8704 249.997 46.8606C249.157 46.8475 248.487 46.1571 248.503 45.3161V45.3128Z" fill="#EA00A4"/>
<path d="M240.685 76.832C240.714 77.0185 240.58 77.1396 240.274 77.1461C239.25 77.1723 238.327 76.3215 238.265 75.2776C238.202 74.2403 239.026 73.2749 240.048 73.1964C240.241 73.1801 240.419 73.1833 240.432 73.4549C240.488 74.5446 240.543 75.6343 240.681 76.8352L240.685 76.832Z" fill="#EA00A4"/>
<path d="M207.942 87.2411C207.949 88.1999 207.006 88.9722 206.08 88.7791C205.844 88.7301 205.676 88.6286 205.565 88.4061C205.374 88.02 205.174 87.6404 204.957 87.2706C204.81 87.0121 204.839 86.7797 204.97 86.531C205.305 85.8962 206.031 85.5624 206.727 85.7326C207.42 85.8995 207.936 86.5441 207.942 87.2411Z" fill="#EA00A4"/>
<path d="M231.421 75.4707C231.155 75.4576 230.915 75.4216 230.896 75.0551C230.869 74.525 230.804 73.9949 230.768 73.4647C230.748 73.1539 230.768 72.843 230.702 72.5321C230.613 72.0936 230.702 71.9824 231.126 71.9137C231.835 71.7991 232.423 72.0315 232.853 72.6009C233.296 73.1833 233.345 73.8312 233.017 74.4824C232.695 75.1205 232.134 75.4216 231.418 75.4707H231.421Z" fill="#EA00A4"/>
<path d="M213.863 79.3158C213.869 80.1143 213.163 80.8211 212.359 80.8276C211.558 80.8342 210.845 80.1339 210.842 79.3322C210.835 78.5337 211.541 77.8269 212.346 77.8204C213.147 77.8138 213.86 78.5141 213.863 79.3158Z" fill="#EA00A4"/>
<path d="M246.395 48.9483C246.402 49.7304 245.712 50.4307 244.917 50.4471C244.12 50.4634 243.394 49.7435 243.404 48.9483C243.414 48.1597 244.113 47.4692 244.901 47.4692C245.689 47.4692 246.389 48.1597 246.395 48.9483Z" fill="#EA00A4"/>
<path d="M208.599 82.938C208.599 83.7725 207.969 84.3844 207.125 84.3746C206.307 84.368 205.699 83.7463 205.699 82.9249C205.699 82.0905 206.33 81.4786 207.174 81.4884C207.992 81.4949 208.599 82.1167 208.599 82.938Z" fill="#EA00A4"/>
<path d="M224.909 67.7184C224.909 68.5299 224.285 69.1484 223.465 69.1484C222.63 69.1484 222.01 68.5201 222.016 67.6824C222.023 66.8774 222.657 66.2655 223.481 66.272C224.295 66.2786 224.909 66.9003 224.909 67.7184Z" fill="#EA00A4"/>
<path d="M241.141 52.5676C241.141 53.3726 240.497 54.0074 239.686 54.0041C238.888 54.0009 238.265 53.3791 238.255 52.5872C238.248 51.7757 238.875 51.1376 239.686 51.1343C240.501 51.131 241.138 51.7593 241.138 52.5708L241.141 52.5676Z" fill="#EA00A4"/>
<path d="M245.702 53.3562C245.702 54.1972 245.006 54.9073 244.159 54.9368C243.827 54.9466 243.637 54.855 243.597 54.4623C243.535 53.8274 243.407 53.1926 242.868 52.7476C242.661 52.5774 242.809 52.4498 242.914 52.3222C243.318 51.8313 244.041 51.6514 244.668 51.8771C245.275 52.0964 245.705 52.7116 245.702 53.3595V53.3562Z" fill="#EA00A4"/>
<path d="M235.999 56.1935C235.986 56.9625 235.296 57.6235 234.537 57.5941C233.772 57.5646 233.135 56.9069 233.152 56.1608C233.165 55.3918 233.854 54.7308 234.613 54.7602C235.378 54.7897 236.015 55.4474 235.999 56.1935Z" fill="#EA00A4"/>
<path d="M218.23 72.745C218.013 72.7352 217.777 72.6861 217.613 72.4603C217.577 72.4079 217.521 72.3687 217.468 72.3294C216.743 71.7862 216.628 71.0957 217.147 70.438C217.626 69.8326 218.539 69.7279 219.153 70.2155C219.609 70.5754 219.797 71.2135 219.609 71.7698C219.416 72.349 218.871 72.745 218.227 72.7482L218.23 72.745Z" fill="#EA00A4"/>
<path d="M245.682 43.2056C246.467 43.2056 247.052 43.7782 247.055 44.557C247.055 45.3391 246.477 45.9216 245.696 45.9249C244.911 45.9249 244.326 45.3522 244.323 44.5734C244.323 43.7913 244.901 43.2088 245.682 43.2056Z" fill="#EA00A4"/>
<path d="M253.626 52.2602C252.726 52.2439 251.958 51.4945 251.909 50.5881C251.863 49.7242 252.582 48.9028 253.465 48.8046C253.675 48.7817 253.807 48.8177 253.843 49.073C253.945 49.806 254.023 50.539 254.073 51.2785C254.082 51.4225 254.073 51.5665 254.096 51.7072C254.171 52.1555 254.079 52.2668 253.629 52.2602H253.626Z" fill="#EA00A4"/>
<path d="M207.929 79.8849C207.2 79.8784 206.576 79.2534 206.583 78.5269C206.589 77.8005 207.22 77.182 207.949 77.1885C208.678 77.1951 209.302 77.8201 209.295 78.5465C209.289 79.273 208.658 79.8915 207.929 79.8849Z" fill="#EA00A4"/>
<path d="M241.837 48.1794C241.834 48.8862 241.21 49.508 240.501 49.5178C239.778 49.5276 239.131 48.8862 239.138 48.1663C239.141 47.4431 239.795 46.8116 240.514 46.8279C241.226 46.8443 241.841 47.4726 241.837 48.1794Z" fill="#EA00A4"/>
<path d="M227.431 72.8825C227.431 73.3243 227.425 73.7693 227.431 74.2111C227.438 74.463 227.326 74.5514 227.08 74.5612C226.194 74.5939 225.409 73.8184 225.409 72.8923C225.409 71.963 226.18 71.1907 227.07 71.2103C227.343 71.2169 227.441 71.3281 227.435 71.5899C227.425 72.0186 227.435 72.4505 227.431 72.8792V72.8825Z" fill="#EA00A4"/>
<path d="M236.652 51.7692C236.655 52.5121 236.11 53.0618 235.368 53.0618C234.623 53.0618 234.078 52.5153 234.078 51.7725C234.078 51.0493 234.619 50.5061 235.342 50.4996C236.091 50.493 236.646 51.0297 236.652 51.7692Z" fill="#EA00A4"/>
<path d="M220.339 66.9399C220.332 67.6794 219.777 68.2161 219.028 68.2063C218.289 68.1965 217.754 67.6369 217.767 66.8908C217.78 66.1709 218.329 65.6408 219.058 65.6441C219.8 65.6441 220.345 66.1971 220.339 66.9399Z" fill="#EA00A4"/>
<path d="M257.406 55.5978C257.406 55.0873 257.412 54.5769 257.406 54.0697C257.399 53.8013 257.501 53.7293 257.764 53.7882C258.561 53.9682 259.192 54.7732 259.189 55.6371C259.185 56.501 258.538 57.3093 257.744 57.4696C257.494 57.522 257.406 57.45 257.406 57.2045C257.412 56.6679 257.406 56.1312 257.406 55.5978Z" fill="#EA00A4"/>
<path d="M226.167 59.0174C226.16 59.6816 225.625 60.2019 224.955 60.1987C224.272 60.1954 223.74 59.6456 223.76 58.9617C223.776 58.3007 224.322 57.787 224.991 57.8C225.658 57.8131 226.177 58.3498 226.167 59.0174Z" fill="#EA00A4"/>
<path d="M242.481 43.8436C242.487 44.5112 241.965 45.0446 241.299 45.0544C240.612 45.0642 240.067 44.5308 240.071 43.8469C240.071 43.1826 240.603 42.6558 241.272 42.6558C241.942 42.6558 242.474 43.1761 242.481 43.8436Z" fill="#EA00A4"/>
<path d="M208.744 72.9415C209.433 72.948 209.949 73.4847 209.932 74.1817C209.919 74.8492 209.387 75.3532 208.707 75.3466C208.018 75.3401 207.502 74.8034 207.519 74.1064C207.532 73.4389 208.064 72.9349 208.744 72.9415Z" fill="#EA00A4"/>
<path d="M252.047 72.8366C252.07 72.2377 252.467 71.5996 253.245 71.1906C253.491 71.063 253.626 71.1186 253.597 71.4098C253.478 72.5028 253.547 73.599 253.511 74.692C253.498 75.0945 253.36 75.1468 253.019 74.9341C252.411 74.5545 252.047 73.8706 252.05 72.8398L252.047 72.8366Z" fill="#EA00A4"/>
<path d="M236.015 48.5496C235.365 48.507 234.853 47.9344 234.908 47.3093C234.964 46.6745 235.519 46.1837 236.133 46.2262C236.783 46.2687 237.296 46.8414 237.24 47.4664C237.184 48.1012 236.629 48.5921 236.015 48.5496Z" fill="#EA00A4"/>
<path d="M247.672 40.2669C247.666 40.7807 247.321 41.2584 246.835 41.4351C246.333 41.6151 245.794 41.4809 245.443 41.0817C245.091 40.6858 245.029 40.1229 245.272 39.6583C245.4 39.4128 245.587 39.3147 245.85 39.3736C246.32 39.4783 246.789 39.5863 247.255 39.7073C247.584 39.7924 247.679 39.9364 247.676 40.2669H247.672Z" fill="#EA00A4"/>
<path d="M203.542 76.5573C204.018 76.5639 204.461 76.8682 204.639 77.3132C204.823 77.7877 204.724 78.2131 204.386 78.5796C204.058 78.933 203.542 79.0181 203.086 78.8643C202.649 78.7171 202.616 78.3538 202.563 77.9939C202.54 77.8401 202.554 77.683 202.554 77.5259C202.554 76.9009 202.915 76.5475 203.542 76.5573Z" fill="#EA00A4"/>
<path d="M214.375 92.9222C213.945 92.8797 213.41 92.9811 212.874 92.8633C212.628 92.8077 212.612 92.716 212.687 92.5164C212.927 91.862 213.63 91.3842 214.375 91.3809C215.15 91.3744 215.85 91.8358 216.109 92.5066C216.227 92.8077 216.112 92.9222 215.817 92.9222C215.37 92.9222 214.923 92.9222 214.375 92.9222Z" fill="#EA00A4"/>
<path d="M209.876 90.6837C210.838 90.6739 211.613 91.348 211.728 92.2152C211.781 92.6242 211.705 92.6962 211.295 92.6209C210.421 92.4606 209.581 92.1922 208.773 91.8225C208.474 91.685 208.448 91.5312 208.661 91.2956C209.013 90.9062 209.453 90.7099 209.88 90.6837H209.876Z" fill="#EA00A4"/>
<path d="M209.512 68.6904C210.113 68.6904 210.582 69.1584 210.576 69.7572C210.573 70.356 210.096 70.8174 209.495 70.8076C208.911 70.8011 208.455 70.343 208.451 69.7605C208.445 69.1616 208.911 68.6904 209.512 68.6904Z" fill="#EA00A4"/>
<path d="M226.798 54.6128C226.798 55.2051 226.344 55.6502 225.75 55.6502C225.139 55.6502 224.686 55.192 224.699 54.5768C224.709 53.9878 225.169 53.5526 225.766 53.5592C226.358 53.5657 226.801 54.0173 226.798 54.6128Z" fill="#EA00A4"/>
<path d="M232.511 77.9871C232.482 78.6449 232.216 79.1848 231.644 79.5579C231.424 79.7018 231.339 79.6724 231.313 79.3877C231.227 78.4845 231.109 77.5846 231.014 76.6815C230.998 76.5342 230.935 76.3346 231.083 76.243C231.224 76.1579 231.385 76.2692 231.523 76.3477C232.16 76.7044 232.475 77.2607 232.511 77.9871Z" fill="#EA00A4"/>
<path d="M205.355 73.3404C205.364 73.9033 204.882 74.3941 204.314 74.3941C203.762 74.3941 203.286 73.9262 203.273 73.3764C203.263 72.8136 203.745 72.3228 204.314 72.3228C204.865 72.3228 205.341 72.7907 205.355 73.3404Z" fill="#EA00A4"/>
<path d="M236.862 42.0474C237.404 42.0474 237.893 42.535 237.893 43.0749C237.893 43.6148 237.401 44.1024 236.859 44.0991C236.317 44.0991 235.828 43.6116 235.828 43.0716C235.828 42.5317 236.32 42.0441 236.862 42.0474Z" fill="#EA00A4"/>
<path d="M220.627 57.1885C221.169 57.1885 221.659 57.6761 221.659 58.216C221.659 58.7559 221.166 59.2435 220.624 59.2402C220.082 59.2402 219.593 58.7527 219.593 58.2127C219.593 57.6728 220.086 57.1852 220.627 57.1885Z" fill="#EA00A4"/>
<path d="M269.148 53.4707C269.148 52.7672 269.667 51.9589 270.367 51.6906C270.593 51.6022 270.731 51.6186 270.672 51.9131C270.472 52.9308 270.265 53.9452 270.081 54.9662C270.028 55.2607 269.92 55.2181 269.766 55.0644C269.359 54.6586 269.142 54.1677 269.148 53.4707Z" fill="#EA00A4"/>
<path d="M267.441 62.064C267.625 61.3703 267.953 60.7813 268.626 60.4442C268.728 60.3951 268.846 60.2904 268.945 60.3755C268.997 60.4213 268.978 60.5718 268.961 60.67C268.758 61.7139 268.544 62.7545 268.334 63.7951C268.321 63.8573 268.321 63.9325 268.242 63.9522C268.114 63.9849 268.052 63.8867 267.986 63.8114C267.562 63.3042 267.405 62.7152 267.441 62.064Z" fill="#EA00A4"/>
<path d="M268.281 57.9341C268.344 57.1193 268.715 56.4452 269.526 56.0591C269.605 56.0198 269.72 55.9707 269.782 56.0002C269.891 56.0526 269.841 56.19 269.825 56.2816C269.621 57.3222 269.411 58.3628 269.198 59.4034C269.135 59.7012 268.984 59.5605 268.876 59.4427C268.502 59.0336 268.308 58.5461 268.285 57.9341H268.281Z" fill="#EA00A4"/>
<path d="M269.999 49.2628C270.019 48.3465 270.534 47.5939 271.234 47.3354C271.437 47.2601 271.552 47.2405 271.496 47.5317C271.299 48.5527 271.125 49.5736 270.928 50.5946C270.866 50.912 270.692 50.7124 270.6 50.6208C270.183 50.2183 269.983 49.7209 269.999 49.2595V49.2628Z" fill="#EA00A4"/>
<path d="M240.356 71.3018C240.356 71.6977 240.356 72.0086 240.356 72.3227C240.356 72.5551 240.251 72.6009 240.064 72.4896C239.483 72.1427 239.164 71.6257 239.128 70.9549C239.092 70.235 239.384 69.6656 239.982 69.2598C240.156 69.142 240.287 69.1518 240.274 69.4038C240.241 70.0681 240.425 70.7225 240.353 71.305L240.356 71.3018Z" fill="#EA00A4"/>
<path d="M270.83 44.8844C270.826 44.1678 271.319 43.3988 271.953 43.1207C272.146 43.0356 272.311 43.0061 272.261 43.2941C272.094 44.2529 271.9 45.2084 271.736 46.1672C271.683 46.4781 271.578 46.3963 271.424 46.2523C271.079 45.9381 270.833 45.3753 270.83 44.8812V44.8844Z" fill="#EA00A4"/>
<path d="M245.006 57.7545C244.97 58.3861 244.694 58.8639 244.162 59.1878C243.962 59.3089 243.837 59.2794 243.85 59.0144C243.883 58.193 243.719 57.3782 243.768 56.5569C243.791 56.1675 243.867 56.1151 244.202 56.3278C244.727 56.6616 244.986 57.1492 245.009 57.7545H245.006Z" fill="#EA00A4"/>
<path d="M218.995 75.5853C218.992 76.387 218.536 76.9956 217.931 77.1593C217.688 77.2247 217.58 77.1756 217.633 76.9007C217.774 76.1481 217.803 75.3857 217.839 74.6232C217.856 74.2796 217.935 74.2273 218.234 74.4007C218.739 74.6952 218.979 75.1468 218.995 75.5853Z" fill="#EA00A4"/>
<path d="M227.431 69.3254C227.431 69.3647 227.438 69.4039 227.431 69.4432C227.405 69.6166 227.523 69.8555 227.339 69.9471C227.149 70.0388 226.975 69.8555 226.821 69.741C225.96 69.0865 226.016 67.7449 226.926 67.1722C227.024 67.11 227.123 67.0217 227.247 67.074C227.392 67.1329 227.353 67.2736 227.349 67.3816C227.326 68.0328 227.379 68.6807 227.431 69.3287V69.3254Z" fill="#EA00A4"/>
<path d="M257.406 60.0223C257.406 59.5511 257.409 59.0832 257.406 58.6119C257.406 58.3567 257.481 58.3076 257.701 58.4549C258.713 59.1323 258.716 60.8928 257.704 61.5799C257.498 61.7207 257.402 61.7043 257.402 61.4327C257.406 60.9615 257.402 60.4935 257.402 60.0223H257.406Z" fill="#EA00A4"/>
<path d="M213.088 75.8011C213.088 76.3181 212.947 76.4032 212.484 76.1414C211.981 75.86 211.742 75.4248 211.768 74.8456C211.794 74.3089 212.07 73.9392 212.53 73.6937C212.799 73.5497 212.924 73.5988 212.937 73.9392C212.963 74.5609 213.035 75.1826 213.088 75.8044V75.8011Z" fill="#EA00A4"/>
<path d="M211.193 65.4412C211.193 65.9484 210.806 66.3247 210.297 66.3215C209.788 66.3215 209.41 65.9386 209.413 65.4281C209.413 64.9209 209.801 64.5446 210.31 64.5479C210.819 64.5479 211.196 64.934 211.193 65.4412Z" fill="#EA00A4"/>
<path d="M227.425 50.2378C227.412 50.7254 226.985 51.1181 226.492 51.0919C226.016 51.069 225.639 50.6567 225.652 50.1855C225.665 49.6979 226.092 49.3052 226.584 49.3281C227.06 49.351 227.438 49.7633 227.425 50.2378Z" fill="#EA00A4"/>
<path d="M205.105 69.8749C204.629 69.8749 204.258 69.5051 204.264 69.0306C204.271 68.5725 204.636 68.2158 205.092 68.2158C205.568 68.2158 205.939 68.5856 205.933 69.0601C205.926 69.5182 205.562 69.8749 205.105 69.8749Z" fill="#EA00A4"/>
<path d="M272.747 39.6615C272.774 40.3683 272.57 41.0522 272.511 41.7493C272.495 41.9423 272.403 41.939 272.284 41.8311C271.414 41.0162 271.539 39.6419 272.488 38.9612C272.672 38.8303 272.747 38.9154 272.747 39.1118C272.747 39.295 272.747 39.4783 272.747 39.6615Z" fill="#EA00A4"/>
<path d="M222.227 53.8081C222.233 54.2793 221.888 54.6294 221.419 54.6294C220.946 54.6294 220.598 54.2858 220.601 53.8146C220.601 53.3598 220.936 53.0227 221.389 53.0129C221.862 53.0031 222.22 53.3401 222.227 53.8081Z" fill="#EA00A4"/>
<path d="M242.064 40.5648C241.64 40.5648 241.181 40.254 241.049 39.8842C240.987 39.7075 241.006 39.5635 241.21 39.5275C241.745 39.4326 242.277 39.3083 242.822 39.2788C243.102 39.2657 243.197 39.3835 243.141 39.6584C243.036 40.1722 242.579 40.5648 242.061 40.5648H242.064Z" fill="#EA00A4"/>
<path d="M232.071 50.9347C232.068 51.5302 231.658 52.0113 231.136 52.0996C230.886 52.1421 230.709 52.0996 230.768 51.792C230.873 51.2193 230.975 50.65 231.096 50.0806C231.142 49.8646 231.319 49.9333 231.441 49.9988C231.842 50.2115 232.055 50.5452 232.071 50.9347Z" fill="#EA00A4"/>
<path d="M253.79 67.3032C253.751 68.2097 253.715 69.1194 253.675 70.0258C253.675 70.0978 253.695 70.196 253.597 70.2221C253.508 70.245 253.459 70.1632 253.406 70.1109C252.657 69.3779 252.746 67.8432 253.57 67.1854C253.629 67.1363 253.688 67.0578 253.771 67.0971C253.856 67.1363 253.826 67.2312 253.79 67.3032Z" fill="#EA00A4"/>
<path d="M204.169 82.2018C204.153 82.5126 204.031 82.8399 203.765 83.0951C203.571 83.2816 203.473 83.2293 203.404 82.9642C203.243 82.3457 203.125 81.7207 202.993 81.099C202.924 80.7783 203.095 80.8339 203.269 80.883C203.768 81.0204 204.169 81.5898 204.169 82.1985V82.2018Z" fill="#EA00A4"/>
<path d="M250.884 42.4628C250.044 42.4759 249.334 41.7691 249.374 41.0164C249.387 40.7775 249.439 40.6663 249.702 40.8364C250.185 41.1506 250.625 41.5171 251.052 41.9032C251.17 42.0112 251.377 42.1225 251.291 42.3123C251.216 42.4759 250.999 42.4432 250.887 42.4661L250.884 42.4628Z" fill="#EA00A4"/>
<path d="M230.531 55.3852C230.531 55.0972 230.531 54.8125 230.531 54.5246C230.531 54.2628 230.672 54.2366 230.86 54.361C231.244 54.6064 231.431 54.9827 231.421 55.4212C231.411 55.8564 231.211 56.2262 230.817 56.4585C230.62 56.5763 230.525 56.5142 230.528 56.2851C230.528 55.984 230.528 55.6863 230.528 55.3852H230.531Z" fill="#EA00A4"/>
<path d="M211.012 60.3887C211.4 60.3887 211.676 60.6734 211.666 61.0595C211.656 61.426 211.38 61.6911 211.009 61.6911C210.625 61.6911 210.346 61.4064 210.356 61.0202C210.366 60.6537 210.641 60.3887 211.012 60.3887Z" fill="#EA00A4"/>
<path d="M224.266 64.7472C223.872 64.7275 223.527 64.5901 223.258 64.2989C223.199 64.2334 223.113 64.1647 223.162 64.0633C223.202 63.9815 223.297 64.0011 223.373 64.0011C223.951 64.0011 224.525 64.0011 225.103 64.0011C225.188 64.0011 225.303 63.9782 225.333 64.096C225.356 64.1909 225.284 64.2694 225.221 64.3316C224.962 64.5967 224.637 64.721 224.269 64.7472H224.266Z" fill="#EA00A4"/>
<path d="M206.487 64.6591C206.481 64.9896 206.215 65.2481 205.88 65.2449C205.545 65.2383 205.286 64.9733 205.292 64.6395C205.299 64.309 205.565 64.0505 205.9 64.0537C206.235 64.0603 206.494 64.3253 206.487 64.6591Z" fill="#EA00A4"/>
<path d="M215.771 66.0889C215.757 66.619 215.593 66.9201 215.285 67.1361C215.127 67.2441 215.009 67.2277 215.009 67.0052C215.009 66.5209 215.009 66.0398 215.015 65.5555C215.015 65.4476 215.055 65.3232 215.147 65.2839C215.271 65.2283 215.363 65.3461 215.442 65.4279C215.662 65.6537 215.78 65.922 215.774 66.0889H215.771Z" fill="#EA00A4"/>
<path d="M222.696 49.4982C222.703 49.8189 222.456 50.0741 222.135 50.0774C221.813 50.0839 221.557 49.8385 221.553 49.5178C221.547 49.1971 221.793 48.9419 222.115 48.9386C222.437 48.9321 222.693 49.1775 222.696 49.4982Z" fill="#EA00A4"/>
<path d="M223.685 88.5338C223.278 89.1719 222.716 89.6366 222.197 90.1405C222.056 90.2747 222.033 90.1274 222.033 90.0162C222.043 89.329 222.939 88.5076 223.685 88.5338Z" fill="#EA00A4"/>
<path d="M217.028 53.6149C216.703 53.5887 216.513 53.4382 216.51 53.124C216.51 52.8132 216.68 52.6332 216.992 52.6299C217.304 52.6267 217.485 52.8001 217.491 53.111C217.498 53.4284 217.307 53.5756 217.028 53.6149Z" fill="#EA00A4"/>
<path d="M253.577 47.4594C252.923 47.1289 252.585 46.1537 252.884 45.6072C252.913 45.5549 252.933 45.4796 253.019 45.4927C253.097 45.5058 253.107 45.5778 253.127 45.6367C253.337 46.2094 253.442 46.8049 253.573 47.4594H253.577Z" fill="#EA00A4"/>
<path d="M232.712 46.6579C232.682 47.0768 232.518 47.368 232.173 47.5414C232.075 47.5905 231.956 47.6756 231.848 47.5709C231.753 47.4793 231.832 47.3745 231.864 47.2829C231.983 46.9688 232.101 46.6546 232.235 46.347C232.278 46.2489 232.298 46.0918 232.439 46.0983C232.567 46.1049 232.61 46.2456 232.646 46.3569C232.682 46.4648 232.698 46.5826 232.715 46.6579H232.712Z" fill="#EA00A4"/>
<path d="M243.873 63.1244V61.0596C244.415 61.4621 244.438 62.4896 243.873 63.1244Z" fill="#EA00A4"/>
</g>
<path d="M120.579 62.8972C120.579 62.8972 120.575 62.8868 120.575 62.8806C120.558 62.8265 120.539 62.7704 120.521 62.7163C120.479 62.5874 120.433 62.4565 120.385 62.3234C120.376 62.2985 120.368 62.2756 120.358 62.2507C119.754 60.6083 118.757 58.6998 117.377 56.5522L117.735 55.1739C117.992 54.8184 118.247 54.465 118.497 54.1178C122.951 47.9266 126.193 43.0598 129.286 37.906C129.865 36.9435 130.436 35.9747 131.006 34.9913C133.305 31.0205 133.629 26.2285 131.926 22.002C131.813 21.7193 131.69 21.4407 131.558 21.1642C129.629 17.1123 125.982 14.156 121.655 13.0687C121.25 12.9668 120.838 12.8795 120.422 12.8109C120.192 12.7735 119.958 12.7402 119.726 12.7049C118.059 12.4513 116.328 12.2662 114.545 12.1498C113.045 12.0521 111.513 11.998 109.949 11.998H109.937C109.805 11.998 109.673 12.0022 109.54 12.0043C109.345 12.0064 109.151 12.0084 108.957 12.0147C108.823 12.0188 108.689 12.0272 108.557 12.0334C108.361 12.0417 108.166 12.05 107.97 12.0625C107.832 12.0708 107.694 12.0833 107.554 12.0937C107.366 12.1082 107.178 12.1207 106.99 12.1394C106.841 12.154 106.695 12.1706 106.547 12.1872C106.371 12.2059 106.196 12.2247 106.02 12.2475C105.859 12.2683 105.698 12.2912 105.539 12.314C105.383 12.3369 105.224 12.3577 105.067 12.3827C104.887 12.4097 104.71 12.4409 104.532 12.472C104.398 12.4949 104.264 12.5178 104.131 12.5427C103.93 12.5802 103.727 12.6197 103.527 12.6612C103.424 12.682 103.322 12.7049 103.219 12.7257C102.99 12.7756 102.762 12.8276 102.532 12.8816C102.467 12.8982 102.402 12.9128 102.337 12.9294C102.074 12.9939 101.809 13.0625 101.547 13.1352C101.531 13.1394 101.516 13.1436 101.499 13.1477C99.0269 13.8275 96.6296 14.8026 94.3724 16.0603C92.529 17.0873 90.7943 18.2973 89.1913 19.6611C89.162 19.686 89.1328 19.7131 89.1035 19.738C88.8987 19.9147 88.6939 20.0914 88.4911 20.2723C88.4201 20.3368 88.349 20.4033 88.278 20.4677C88.117 20.6153 87.9561 20.7609 87.7993 20.9105C87.6656 21.0374 87.5339 21.1683 87.4022 21.2993C87.3082 21.3929 87.21 21.4843 87.1159 21.58C86.4513 22.2515 85.8138 22.9521 85.2056 23.6839L81.8365 23.5716C81.5837 23.5633 81.3329 23.5612 81.08 23.5591C81.0716 23.5591 81.0612 23.5591 81.0528 23.5591C75.8069 23.5571 70.7449 25.2826 66.6108 28.478C66.5439 28.5237 66.4771 28.5674 66.4102 28.6173C66.3558 28.6567 66.3036 28.7004 66.2493 28.742C66.1907 28.7877 66.1322 28.8314 66.0758 28.8792C65.9755 28.9624 65.8772 29.0476 65.7832 29.1328C65.779 29.137 65.7727 29.1411 65.7686 29.1474C65.7017 29.2098 65.6348 29.2721 65.57 29.3366C65.0851 29.7565 64.6211 30.1993 64.1718 30.6567C64.1718 30.6567 64.1718 30.6567 64.1697 30.6588C64.0067 30.8251 63.8478 30.9914 63.6911 31.1619C63.6451 31.2118 63.6012 31.2617 63.5552 31.3116C63.4382 31.4405 63.3232 31.5694 63.2083 31.7003C63.1163 31.8064 63.0265 31.9145 62.9366 32.0226C62.8676 32.1057 62.7986 32.1868 62.7297 32.27C62.5876 32.4446 62.4475 32.6213 62.3117 32.8022C62.295 32.8251 62.2761 32.8479 62.2573 32.8708C61.9313 33.3011 61.6178 33.7419 61.3189 34.1972L60.9929 34.6961C58.278 34.2388 55.377 35.3385 53.5859 37.7127C53.5295 37.7875 53.473 37.8624 53.4187 37.9414C53.3936 37.9788 53.3643 38.0141 53.3393 38.0516C53.3121 38.0911 53.2912 38.1326 53.264 38.1721C53.216 38.247 53.1679 38.3218 53.124 38.3967C51.546 41.0141 51.6631 44.2032 53.2306 46.5483L51.3935 49.3549C50.9985 49.9598 50.6536 50.5856 50.3568 51.2301C49.1927 53.7477 48.7893 56.519 49.176 59.2299C49.3662 60.5625 49.7444 61.8806 50.3171 63.1467L52.7666 68.9387L53.914 71.6496C53.8701 71.658 53.8241 71.6663 53.7803 71.6725C53.7614 71.6767 53.7426 71.6787 53.7238 71.6829C53.6172 71.7016 53.5106 71.7224 53.4041 71.7453C53.3811 71.7494 53.356 71.7557 53.333 71.7598C53.2285 71.7827 53.124 71.8056 53.0174 71.8305C52.9902 71.8367 52.9631 71.843 52.938 71.8492C52.8314 71.8742 52.7269 71.9012 52.6182 71.9282C52.5952 71.9345 52.5701 71.9407 52.5451 71.949C52.4343 71.9781 52.3214 72.0093 52.2086 72.0426C52.1981 72.0467 52.1856 72.0488 52.1751 72.0529C51.778 72.1694 51.3705 72.3066 50.9525 72.4646C47.5604 73.7535 45.0189 76.6287 43.7921 80.5601C42.9916 83.1255 42.8035 86.036 43.2173 88.9882C43.3657 90.0463 43.5894 91.1087 43.8945 92.1648C44.4525 94.1003 45.1799 95.7198 45.9887 97.0774C45.9971 97.0919 46.0075 97.1086 46.0159 97.1231C46.0869 97.2416 46.158 97.358 46.2311 97.4703C46.252 97.5036 46.2729 97.5389 46.2959 97.5722C46.3524 97.6595 46.4088 97.7468 46.4673 97.832C46.5049 97.8882 46.5405 97.9422 46.5781 97.9984C46.6032 98.0337 46.6262 98.0691 46.6512 98.1023C47.9993 100.046 49.6671 101.595 51.5983 102.682C51.6965 103.194 51.8386 103.701 52.0226 104.198C53.3121 107.661 56.4137 109.867 59.5633 109.867C60.3303 109.867 61.0995 109.736 61.8456 109.462C63.8207 108.734 65.3505 107.1 66.0423 104.975C66.3726 103.959 66.5001 102.871 66.4311 101.776C67.2838 101.088 68.032 100.279 68.6611 99.3538C71.3907 102.445 74.3041 104.441 77.063 105.919C78.7496 106.824 80.3777 107.535 81.87 108.187C82.823 108.603 83.7238 108.998 84.5243 109.393L84.9026 109.58C86.6561 110.451 88.8841 111.555 91.5363 112.443C94.1885 113.331 97.2671 114 100.724 114C102.459 114 104.29 113.832 106.21 113.437C117.369 111.144 124.751 100.755 126.465 84.93C126.745 82.3438 126.5 79.8407 126.028 77.6121C125.217 73.791 123.731 70.7765 123.054 69.5312C122.705 67.8535 121.944 64.9429 120.585 62.8951L120.579 62.8972Z" fill="white" stroke="white" stroke-width="6"/>
<path d="M61.0055 100.488C59.1161 100.989 57.07 100.956 55.1263 100.291C51.8638 99.1807 48.8855 96.293 47.4079 91.1622C45.437 84.3286 47.4267 77.7009 52.2546 75.8652C55.3792 74.6802 57.6301 75.0336 59.2353 75.9795C62.0944 77.6697 62.8886 81.233 62.8886 81.233L66.6381 86.0063C66.6381 86.0063 66.8032 87.2163 67.286 88.9397C67.2881 88.9418 67.2881 88.946 67.2881 88.946C67.6831 92.765 67.0289 98.898 61.0055 100.488Z" fill="#FFD4AD"/>
<path d="M67.2861 88.9398C66.8033 87.2184 66.6382 86.0063 66.6382 86.0063C66.8535 86.4388 67.1419 87.5302 67.2861 88.9398Z" fill="#160830"/>
<path d="M127.834 33.176C123.856 40.0491 119.948 45.9076 114.42 53.527C114.416 53.502 114.409 53.4792 114.403 53.4542C113.841 50.8264 112.951 49.0801 111.866 47.0822C110.969 45.4357 109.141 44.5147 107.278 44.76C98.8702 45.8639 91.4507 47.814 85.074 50.685C79.8741 53.0259 75.2615 56.4853 71.4618 60.7264L65.4739 67.7575L59.3 75.0068C69.2004 57.2483 77.272 42.5958 85.8223 29.0368C86.1797 28.4714 86.5538 27.9225 86.9446 27.3861C92.2825 20.0911 100.799 15.6359 109.945 15.6421C113.421 15.6421 116.715 15.8937 119.823 16.4051C127.643 17.6878 131.788 26.3467 127.831 33.1781L127.834 33.176Z" fill="#160830"/>
<path d="M86.9446 27.3841C86.5517 27.9205 86.1796 28.4694 85.8223 29.0348C77.272 42.5938 69.2004 57.2463 59.3 75.0048L53.6695 61.6932C52.1355 58.3357 52.4344 54.4314 54.4575 51.34L58.0544 45.8474C57.8078 45.8058 57.5382 45.6956 57.2435 45.4981C55.5192 44.3464 55.1326 41.9202 56.3761 40.0762C57.6197 38.2342 60.0253 37.675 61.7474 38.8226C62.0003 38.991 62.1842 39.1594 62.3201 39.334L64.385 36.1802C65.4259 34.5919 66.6736 33.1865 68.076 31.9849C68.0739 31.9828 68.076 31.9828 68.0823 31.9807C71.8108 28.7874 76.6597 27.039 81.7112 27.2074L86.9446 27.3821V27.3841Z" fill="#F75BC8"/>
<path d="M68.7573 31.4258C68.5128 31.5838 68.2871 31.773 68.0823 31.9829L68.7573 31.4258Z" fill="#160830"/>
<path d="M115.964 69.1506C113.488 71.689 109.985 72.1713 105.504 71.8865C103.767 69.8408 101.295 68.0197 99.1941 66.001C98.2306 64.579 98.1826 64.107 98.0906 63.2464C98.0237 62.606 98.3414 61.9844 98.8994 61.658C103.414 59.0261 108.114 57.4398 113.262 56.9658C113.318 57.0469 113.373 57.128 113.429 57.2111C115.064 59.5999 116.629 62.2942 117.191 64.3316C117.21 64.3939 117.225 64.4542 117.239 64.5166C117.632 66.1715 117.158 67.9261 115.962 69.1527L115.964 69.1506Z" fill="white"/>
<path d="M99.2005 66.0093C99.2005 66.0093 99.1963 66.0031 99.1963 66.001L99.2005 66.0093Z" fill="#160830"/>
<path d="M119.574 70.8093C119.275 69.1981 118.458 65.9695 117.241 64.5142C117.634 66.1691 117.16 67.9237 115.964 69.1503C113.488 71.6887 109.985 72.171 105.504 71.8862C103.767 69.8405 101.295 68.0193 99.1942 66.0007C98.2307 64.5787 98.1827 64.1067 98.0907 63.246C98.0238 62.6057 98.3415 61.9841 98.8995 61.6577C103.414 59.0258 108.114 57.4395 113.262 56.9655C113.319 57.0466 113.373 57.1277 113.429 57.2108L114.401 53.4541C113.839 50.8263 112.949 49.08 111.864 47.0821C110.967 45.4356 109.139 44.5146 107.276 44.7599C98.8682 45.8639 91.4487 47.8139 85.072 50.685C79.8721 53.0259 75.2594 56.4853 71.4598 60.7263L65.4719 67.7574C65.4949 67.9902 66.1282 70.3706 67.1941 73.5639C69.5913 80.7426 74.1789 92.0168 78.9922 92.1561C83.7512 92.2953 86.2529 83.9608 91.434 83.6074C94.7634 83.3808 102.43 86.7612 106.079 81.8465C108.371 79.4536 110.631 83.6406 114.924 82.2269C120.197 80.4889 119.57 70.8114 119.57 70.8114L119.574 70.8093ZM95.5367 72.0671C95.3444 73.6284 94.5837 75.1107 93.29 76.0213C88.5352 79.3725 84.0542 79.753 79.6715 78.3414C78.501 77.9651 77.5334 77.1439 77.0067 76.0358C75.7819 73.4579 74.8184 69.6929 74.808 65.9362C79.8491 62.8053 85.3145 62.2731 92.3181 62.8697C93.1019 62.9363 93.7665 63.481 93.9922 64.2335C94.8198 66.9965 95.8084 69.8696 95.5388 72.0671H95.5367Z" fill="#FFD4AD"/>
<path d="M95.5366 72.0672C95.3443 73.6285 94.5835 75.1108 93.2898 76.0214C88.535 79.3727 84.0541 79.7532 79.6713 78.3415C78.5009 77.9653 77.5332 77.1441 77.0066 76.036C75.7818 73.4581 74.8183 69.6931 74.8079 65.9364C79.849 62.8055 85.3143 62.2733 92.318 62.8699C93.1017 62.9365 93.7663 63.4811 93.9921 64.2337C94.8197 66.9967 95.8083 69.8698 95.5387 72.0672H95.5366Z" fill="white"/>
<path d="M122.824 84.541C121.647 95.4119 117.009 107.501 105.466 109.873C96.8785 111.638 90.3744 108.225 86.1505 106.135C81.9015 104.033 76.1101 102.443 71.1609 96.6717C69.0981 94.2643 67.9235 91.1771 67.2882 88.9443C67.2882 88.9443 67.2882 88.9422 67.2861 88.938C67.1419 87.5306 66.8534 86.437 66.6382 86.0046L62.8887 81.2313C62.8887 81.2313 62.0945 77.668 59.2354 75.9778L59.2981 75.0027L65.4719 67.7534C65.4949 67.9863 66.1282 70.3667 67.1941 73.56C69.5914 80.7386 74.1789 92.0128 78.9922 92.1521C83.7512 92.2914 86.2529 83.9568 91.434 83.6034C94.7634 83.3768 102.43 86.7572 106.079 81.8425C108.371 79.4496 110.631 83.6367 114.924 82.223C120.197 80.485 119.57 70.8074 119.57 70.8074C119.57 70.8074 123.593 77.3956 122.82 84.541H122.824Z" fill="#EA6C17"/>
<path d="M59.7472 84.1979C58.8548 84.6012 57.9895 85.0669 57.1556 85.5887C56.8755 84.832 56.6415 84.0586 56.4554 83.2727C56.2966 82.6033 55.6215 82.1875 54.9465 82.3455C54.2735 82.5035 53.8555 83.1771 54.0143 83.8465C54.2756 84.9463 54.6225 86.0274 55.0468 87.0793C54.0331 87.886 53.0884 88.7758 52.2357 89.7383C51.778 90.256 51.8282 91.0439 52.3465 91.4992C52.5848 91.7092 52.8815 91.811 53.1762 91.811C53.5232 91.811 53.8701 91.6676 54.1167 91.389C54.7396 90.6863 55.4188 90.0252 56.1419 89.4161C56.8735 90.7736 57.7429 92.0605 58.7336 93.2434C58.9823 93.5407 59.3376 93.6925 59.6991 93.6925C59.9813 93.6925 60.2655 93.5989 60.4996 93.4035C61.0326 92.9628 61.1036 92.1769 60.6626 91.6468C59.6991 90.4951 58.8673 89.2352 58.1797 87.9005C59.0157 87.3579 59.8893 86.8756 60.7922 86.466C61.4213 86.1791 61.6993 85.4411 61.413 84.8133C61.1266 84.1875 60.3826 83.911 59.7514 84.1958L59.7472 84.1979Z" fill="#160830"/>
<path d="M85.5923 51.8183C91.7348 49.0532 99.0854 47.0949 107.441 45.9951C108.783 45.8184 110.119 46.494 110.76 47.6749C111.853 49.6832 112.668 51.2964 113.193 53.7829C113.295 54.2673 113.674 54.6436 114.161 54.7475C114.646 54.8494 115.147 54.6581 115.438 54.2569C121.285 46.1988 125.066 40.463 128.922 33.7999C131.012 30.1908 131.18 25.9581 129.386 22.1889C127.614 18.4655 124.115 15.8419 120.031 15.1704C116.886 14.6527 113.494 14.3908 109.949 14.3887H109.937C104.927 14.3887 99.9527 15.688 95.547 18.1433C91.971 20.1391 88.8255 22.8646 86.3342 26.114L81.755 25.9602C76.7954 25.7918 71.9759 27.4009 68.1323 30.3447C68.1156 30.3551 68.0989 30.3634 68.0843 30.3717C67.7478 30.5879 67.4364 30.852 67.1521 31.143C65.6975 32.4008 64.4079 33.8602 63.3358 35.4984L61.6199 38.1179C59.4379 36.8622 56.6812 37.3903 55.3394 39.3778C54.6455 40.4006 54.4281 41.648 54.727 42.8871C54.9987 44.0159 55.6759 45.0117 56.6436 45.7186L53.4103 50.6561C51.1427 54.1155 50.8103 58.4252 52.5221 62.1881L57.5214 74.0132C55.8117 73.6765 53.8994 73.9051 51.8094 74.6993C46.4401 76.7408 44.0303 83.9652 46.204 91.5056C47.6837 96.6427 50.5972 99.6926 53.8367 101.108C53.8555 101.861 54.0018 102.626 54.2756 103.366C55.2056 105.867 57.3834 107.478 59.5487 107.478C60.0419 107.478 60.5352 107.395 61.0117 107.218C62.2929 106.746 63.2919 105.659 63.7559 104.237C64.1174 103.127 64.1362 101.886 63.829 100.674C65.4362 99.7383 66.6631 98.362 67.4886 96.5575C67.7875 95.9026 68.0195 95.2207 68.193 94.5284C68.7552 95.5513 69.4198 96.5575 70.2098 97.4805C74.3188 102.273 79.0401 104.335 82.8314 105.992C83.8137 106.42 84.7396 106.825 85.5923 107.247L85.9768 107.439C89.4693 109.171 94.385 111.611 100.68 111.611C102.273 111.611 103.953 111.455 105.721 111.091C111.362 109.931 115.87 106.545 119.116 101.021C122.343 95.5305 123.593 89.0982 124.071 84.6721C124.88 77.194 120.819 70.4437 120.646 70.1588C120.347 69.6682 119.749 69.4458 119.198 69.6162C118.648 69.7888 118.286 70.3127 118.322 70.8844C118.474 73.3106 118.092 79.8593 114.533 81.0339C112.854 81.5869 111.609 81.0734 110.29 80.5308C109.724 80.2979 109.105 80.0422 108.457 79.9175C109.364 77.298 108.979 75.113 107.937 73.2004C111.134 73.1671 114.407 72.5309 116.865 70.0112C118.405 68.4312 118.995 66.1236 118.403 63.9885C117.716 61.5062 115.791 58.4106 114.299 56.2485C114.041 55.8764 113.601 55.6706 113.149 55.7122C107.914 56.1966 103.046 57.787 98.2682 60.5728C98.1407 60.6476 98.0195 60.7308 97.9066 60.8222C97.6015 60.7162 97.2169 60.6185 96.7717 60.5852C96.5251 59.9158 96.3788 59.211 96.3579 58.4626C96.3391 57.787 95.7811 57.2506 95.106 57.2506C95.0935 57.2506 95.0809 57.2506 95.0705 57.2506C94.3787 57.2693 93.8332 57.8452 93.852 58.5333C93.8771 59.446 94.0401 60.3004 94.3055 61.1071C93.7977 61.3357 93.4068 61.579 93.1435 61.7619C92.9157 61.6871 92.6753 61.6393 92.4266 61.6185C84.2944 60.9241 79.0004 61.8617 74.1662 64.8575C74.0868 64.9053 74.0136 64.9614 73.9468 65.0238C73.9384 65.0321 73.93 65.0404 73.9217 65.0488L67.7666 71.215C67.2671 69.5871 66.9661 68.4541 66.916 68.188C66.9076 68.1319 66.8951 68.0778 66.8804 68.0258L72.4106 61.5312C76.1956 57.315 80.6306 54.0448 85.5965 51.8079L85.5923 51.8183ZM54.8106 61.1757C53.4458 58.1903 53.7071 54.7683 55.5087 52.022L59.5299 45.8808L62.9449 40.6646C62.9449 40.6646 62.9449 40.6646 62.947 40.6626L65.407 36.9059C65.8981 39.2177 67.5618 41.7644 70.191 44.1199C70.4314 44.334 70.7302 44.44 71.0291 44.44C71.3719 44.44 71.7146 44.3007 71.9612 44.0284C72.4252 43.517 72.3834 42.727 71.8693 42.2675C68.9537 39.6563 67.3716 36.7313 67.8397 34.8165C67.9568 34.3405 68.3351 33.5504 68.8722 32.9642C72.3772 29.9663 76.9543 28.3032 81.6672 28.4591L84.6434 28.5589C76.8498 40.9308 69.3675 54.3629 60.7107 69.9011L59.4546 72.1567L54.8273 61.211C54.8232 61.2006 54.819 61.1902 54.8127 61.1777L54.8106 61.1757ZM61.367 103.47C61.1392 104.173 60.7024 104.674 60.1381 104.882C58.884 105.343 57.2768 104.254 56.6247 102.503C56.5516 102.304 56.4931 102.1 56.4471 101.896C57.1075 102.013 57.7701 102.071 58.4242 102.069C59.417 102.069 60.3951 101.94 61.3252 101.695C61.3733 101.682 61.4213 101.665 61.4694 101.653C61.5739 102.289 61.5425 102.921 61.3649 103.47H61.367ZM115.321 83.406C118.571 82.3332 119.929 78.9487 120.485 75.9425C121.269 78.2876 121.912 81.3083 121.578 84.408C121.041 89.3684 119.137 99.5741 112.453 105.164L110.808 101.703C110.511 101.079 109.765 100.813 109.138 101.108C108.511 101.404 108.244 102.146 108.541 102.769L110.382 106.647C109.356 107.266 108.24 107.784 107.021 108.177L105.247 102.455C105.042 101.796 104.342 101.428 103.679 101.632C103.017 101.836 102.647 102.534 102.852 103.191L104.584 108.773C103.387 108.986 102.231 109.089 101.119 109.108L100.561 105.017C100.467 104.335 99.8357 103.857 99.1502 103.948C98.4647 104.042 97.9839 104.67 98.0759 105.351L98.5754 109.002C93.806 108.534 89.9437 106.62 87.1013 105.208L86.7146 105.017C85.8076 104.568 84.8545 104.152 83.845 103.711C80.1018 102.075 75.8591 100.223 72.1222 95.8652C70.237 93.6656 69.1376 90.8029 68.5336 88.7011C68.3727 87.2437 68.0655 86.0774 67.7896 85.4974C67.7854 85.4891 67.7812 85.4787 67.777 85.4704C67.777 85.4662 67.7729 85.4621 67.7708 85.4579C67.7666 85.4475 67.7582 85.4371 67.7541 85.4267C67.7415 85.4039 67.729 85.381 67.7164 85.3581C67.706 85.3415 67.6955 85.3269 67.6851 85.3103C67.6725 85.2937 67.6621 85.275 67.6495 85.2604C67.6349 85.2417 67.6203 85.223 67.6057 85.2043C67.5952 85.1918 67.5848 85.1793 67.5743 85.1689C67.5555 85.1482 67.5367 85.1294 67.5179 85.1107C67.5095 85.1024 67.4991 85.092 67.4907 85.0837C67.4698 85.065 67.4489 85.0484 67.428 85.0296C67.4176 85.0213 67.4092 85.013 67.3987 85.0068C67.3778 84.9902 67.3549 84.9756 67.334 84.961C67.3214 84.9527 67.3089 84.9444 67.2984 84.9382C67.2775 84.9257 67.2566 84.9153 67.2357 84.9028C67.2211 84.8945 67.2044 84.8862 67.1897 84.88C67.1709 84.8717 67.1521 84.8633 67.1312 84.855C67.1124 84.8467 67.0936 84.8405 67.0748 84.8321C67.0581 84.8259 67.0393 84.8197 67.0205 84.8155C66.9996 84.8093 66.9787 84.803 66.9578 84.7968C66.941 84.7926 66.9222 84.7885 66.9055 84.7843C66.8846 84.7802 66.8616 84.776 66.8407 84.7719C66.8219 84.7698 66.801 84.7677 66.7822 84.7656C66.7613 84.7635 66.7425 84.7615 66.7216 84.7594C66.6986 84.7594 66.6756 84.7594 66.6526 84.7594C66.6359 84.7594 66.6171 84.7594 66.6004 84.7594C66.5732 84.7594 66.5481 84.7635 66.5209 84.7656C66.5084 84.7656 66.498 84.7656 66.4854 84.7677C66.4812 84.7677 66.4791 84.7677 66.475 84.7677C66.4499 84.7719 66.4248 84.776 66.3997 84.7822C66.383 84.7864 66.3663 84.7885 66.3496 84.7926C66.3308 84.7968 66.3119 84.803 66.2931 84.8093C66.2701 84.8155 66.2472 84.8218 66.2263 84.8301C66.2137 84.8342 66.2012 84.8405 66.1865 84.8467C66.1594 84.8571 66.1322 84.8675 66.1071 84.88C66.105 84.88 66.1009 84.882 66.0988 84.8841C66.0904 84.8883 66.082 84.8945 66.0716 84.8987C66.0465 84.9111 66.0214 84.9257 65.9984 84.9403C65.9838 84.9486 65.9713 84.959 65.9566 84.9673C65.9378 84.9798 65.9169 84.9922 65.8981 85.0068C65.8814 85.0193 65.8647 85.0317 65.8501 85.0463C65.8354 85.0588 65.8208 85.0691 65.8083 85.0816C65.7915 85.0983 65.7748 85.1149 65.7581 85.1315C65.7476 85.144 65.7351 85.1544 65.7247 85.1669C65.7079 85.1856 65.6933 85.2043 65.6766 85.223C65.6661 85.2355 65.6557 85.2479 65.6473 85.2604C65.6327 85.2791 65.6201 85.2978 65.6076 85.3186C65.5972 85.3332 65.5888 85.3477 65.5784 85.3623C65.5679 85.381 65.5574 85.3997 65.547 85.4163C65.5365 85.4351 65.5282 85.4517 65.5198 85.4704C65.5115 85.487 65.5052 85.5037 65.4968 85.5203C65.4885 85.5411 65.4801 85.5619 65.4718 85.5826C65.4655 85.5993 65.4613 85.6138 65.4571 85.6305C65.4509 85.6533 65.4425 85.6762 65.4383 85.6991C65.4341 85.7157 65.43 85.7323 65.4279 85.749C65.4237 85.7718 65.4195 85.7947 65.4153 85.8176C65.4132 85.8363 65.4111 85.855 65.4091 85.8758C65.407 85.8966 65.4049 85.9153 65.4028 85.9361C65.4028 85.9589 65.4028 85.9839 65.4028 86.0068C65.4028 86.0234 65.4028 86.04 65.4028 86.0567C65.4028 86.0837 65.407 86.1128 65.4091 86.1398C65.4091 86.1502 65.4091 86.1606 65.4111 86.171C65.4111 86.1752 65.4132 86.1856 65.4153 86.1939C65.4153 86.1959 65.4153 86.198 65.4153 86.2001C65.4446 86.4101 65.6181 87.5681 66.0632 89.1668C66.243 90.9859 66.1782 93.4286 65.2189 95.5263C64.3202 97.4889 62.8425 98.7175 60.7003 99.283C59.4149 99.6219 58.046 99.6822 56.6958 99.4181C56.9424 98.9337 57.3061 98.5845 57.7513 98.4202C58.4013 98.1812 58.7336 97.4639 58.4911 96.8174C58.2508 96.1708 57.5297 95.8402 56.8797 96.0814C55.7469 96.4993 54.8336 97.3974 54.3174 98.5845C51.9118 97.3329 49.7883 94.8486 48.6263 90.8175C46.8142 84.5328 48.574 78.6057 52.7164 77.0298C54.982 76.167 56.9006 76.14 58.4159 76.9446C60.8988 78.2647 61.6638 81.4434 61.6784 81.5058C61.8289 82.1773 62.4977 82.5993 63.1727 82.4517C63.8499 82.3021 64.2763 81.6368 64.1258 80.9653C64.1091 80.8904 63.9272 80.1067 63.4612 79.0859L66.6652 75.876C67.2295 77.483 67.8815 79.219 68.611 80.9486C72.0929 89.225 75.4829 93.2977 78.9711 93.3995C79.0234 93.3995 79.0777 93.4016 79.13 93.4016C82.0142 93.4016 84.0478 91.1044 86.0145 88.882C87.7868 86.8799 89.4588 84.9881 91.5342 84.8467C92.297 84.7947 93.5051 84.9985 94.7821 85.2126C98.5023 85.8404 103.905 86.7469 107.004 82.7116C107.007 82.7095 107.011 82.7075 107.013 82.7054C107.51 82.1836 107.794 82.2002 109.343 82.8384C110.789 83.433 112.771 84.248 115.335 83.4039L115.321 83.406ZM99.5347 62.7328C103.765 60.2672 108.06 58.8077 112.647 58.2797C114.376 60.8555 115.555 63.1029 115.985 64.6579C116.343 65.9427 115.989 67.3315 115.064 68.2795C113.199 70.19 110.578 70.8948 106.091 70.6682C104.998 69.4562 103.719 68.346 102.49 67.2795C101.717 66.6101 100.956 65.949 100.245 65.2774C99.4428 64.0945 99.4135 63.8243 99.3383 63.1112C99.3216 62.9594 99.3989 62.8097 99.5347 62.7307V62.7328ZM92.2093 64.1132C92.4768 64.1361 92.7088 64.3274 92.7882 64.5872C92.8801 64.8928 92.9721 65.2005 93.0662 65.5082C93.7705 67.8242 94.4999 70.2212 94.2909 71.9135C94.13 73.217 93.5009 74.3438 92.5646 75.0028C88.4577 77.8967 84.4825 78.5786 80.0558 77.1545C79.1927 76.876 78.5113 76.2897 78.1393 75.5039C76.9585 73.0133 76.1893 69.6744 76.0765 66.6329C80.2628 64.2297 85.0071 63.4979 92.2113 64.1132H92.2093ZM73.7273 68.7888C74.0492 71.5455 74.8016 74.3147 75.8696 76.5683C76.5321 77.9633 77.7757 79.0422 79.2825 79.5287C81.0131 80.0859 82.7039 80.3645 84.3675 80.3645C87.6718 80.3645 90.8591 79.2605 94.0129 77.0381C95.524 75.9737 96.5314 74.217 96.778 72.217C97.0518 70.0008 96.2451 67.3502 95.4655 64.7847C95.3735 64.4812 95.2816 64.1777 95.1896 63.8762C95.1541 63.7556 95.1081 63.6371 95.06 63.5249C95.1541 63.475 95.2565 63.4251 95.3694 63.3752C96.755 65.6142 98.8785 67.4583 100.841 69.1609C105.203 72.9467 107.776 75.4914 105.769 79.9008C103.953 83.8925 100.072 83.5785 95.1875 82.7553C93.6973 82.5037 92.4099 82.2854 91.3482 82.3603C88.2445 82.5723 86.0521 85.0504 84.1167 87.2354C82.4217 89.1501 80.8145 90.9609 79.0297 90.9069C77.97 90.8757 75.0649 89.7718 71.004 80.2085C70.0823 78.036 69.2735 75.8261 68.6256 73.8989L73.7273 68.7867V68.7888ZM65.7623 73.2274L62.111 76.8864C61.693 76.3604 61.1935 75.849 60.6041 75.402L64.8949 70.3647C65.1144 71.1422 65.407 72.1193 65.7644 73.2295L65.7623 73.2274ZM70.5233 59.8929C70.5233 59.8929 70.5087 59.9096 70.5024 59.9179L66.5607 64.5477C73.7357 51.6956 80.198 40.2967 86.8818 29.7002C87.1055 29.3447 87.3395 28.9975 87.5778 28.6566L90.0189 28.7377C90.7149 28.7647 91.2917 28.2221 91.3147 27.5339C91.3377 26.8458 90.7964 26.2678 90.1046 26.245L89.4713 26.2242C94.6232 20.3137 102.007 16.8876 109.937 16.8876H109.949C113.358 16.8876 116.612 17.1412 119.624 17.636C122.947 18.1828 125.679 20.2326 127.123 23.2596C128.561 26.2782 128.425 29.6669 126.753 32.5567C123.288 38.5441 119.879 43.7789 114.934 50.6852C114.399 49.1697 113.734 47.889 112.973 46.4899C111.839 44.4068 109.485 43.2134 107.119 43.5253C98.519 44.6562 90.9302 46.6812 84.564 49.548C79.2742 51.9305 74.5529 55.4107 70.5317 59.895L70.5233 59.8929Z" fill="#160830"/>
<g clip-path="url(#clip1_60_8622)">
<path d="M82.0831 73.3647C81.8343 73.3647 81.5814 73.2919 81.362 73.1381C80.7956 72.741 80.6598 71.9635 81.0569 71.4001C82.3736 69.5373 84.8899 67.5374 89.4169 68.5893C90.092 68.7452 90.51 69.4167 90.3532 70.0883C90.1965 70.7598 89.5214 71.1755 88.8463 71.0196C86.2359 70.4126 84.4134 70.9905 83.1092 72.8346C82.8647 73.1797 82.476 73.3647 82.0831 73.3647Z" fill="#160830"/>
<path d="M106.066 67.1027C105.817 67.1027 105.564 67.0299 105.345 66.8761C104.779 66.479 104.643 65.7015 105.04 65.1381C105.974 63.8179 107.753 62.398 110.934 63.1361C111.609 63.292 112.027 63.9635 111.87 64.635C111.713 65.3065 111.038 65.7223 110.363 65.5664C108.413 65.1131 107.592 65.8657 107.092 66.5726C106.848 66.9177 106.459 67.1027 106.066 67.1027Z" fill="#160830"/>
</g>
<g clip-path="url(#clip2_60_8622)">
<path d="M97.8963 93.5059C94.082 93.5059 90.7463 92.3479 88.1485 90.0631C87.6301 89.6079 87.5821 88.8199 88.0419 88.3043C88.4996 87.7867 89.2917 87.7389 89.8121 88.1962C94.6129 92.4207 101.361 90.955 104.958 89.7076C105.613 89.481 106.327 89.8241 106.555 90.4748C106.783 91.1255 106.438 91.8365 105.784 92.0631C103.002 93.0298 100.35 93.508 97.8963 93.508V93.5059Z" fill="#160830"/>
<path d="M96.7342 98.3476C94.9702 98.3476 93.1498 97.9339 91.6074 97.1418C90.9908 96.8258 90.7505 96.0732 91.0681 95.462C91.3858 94.8508 92.1424 94.6096 92.7569 94.9256C94.5647 95.8529 96.8533 96.1127 98.728 95.6013C99.3947 95.4184 100.087 95.8113 100.268 96.4765C100.45 97.1418 100.057 97.8279 99.3885 98.0087C98.5483 98.2374 97.6475 98.3476 96.7321 98.3476H96.7342Z" fill="#160830"/>
</g>
<g clip-path="url(#clip3_60_8622)">
<path d="M76.0241 61.8449C75.6291 61.8449 75.2425 61.6599 74.9979 61.3147C74.5987 60.7513 74.7346 59.9738 75.301 59.5767C79.9575 56.3148 85.4793 55.4479 91.7159 56.9988C92.3868 57.1651 92.7964 57.8429 92.6271 58.5123C92.4599 59.1817 91.7786 59.5871 91.1056 59.4208C85.5316 58.0341 80.8353 58.7535 76.7431 61.6183C76.5236 61.7721 76.2707 61.8449 76.022 61.8449H76.0241Z" fill="#160830"/>
<path d="M100.247 58.0697C99.9317 58.0697 99.6182 57.9533 99.3736 57.7163C98.8762 57.2361 98.8658 56.4461 99.3486 55.9533C102.268 52.9659 106.233 51.6249 111.126 51.968C111.818 52.0158 112.338 52.6125 112.288 53.3006C112.24 53.9866 111.64 54.5043 110.948 54.4565C106.764 54.1634 103.56 55.2215 101.144 57.6913C100.897 57.9429 100.571 58.0697 100.245 58.0697H100.247Z" fill="#160830"/>
</g>
<defs>
<clipPath id="clip0_60_8622">
<rect width="214" height="113" fill="white" transform="translate(97 9)"/>
</clipPath>
<clipPath id="clip1_60_8622">
<rect width="31.0743" height="10.4301" fill="white" transform="translate(80.8291 62.9346)"/>
</clipPath>
<clipPath id="clip2_60_8622">
<rect width="18.9" height="10.4655" fill="white" transform="translate(87.7263 87.8823)"/>
</clipPath>
<clipPath id="clip3_60_8622">
<rect width="37.524" height="9.92911" fill="white" transform="translate(74.7681 51.916)"/>
</clipPath>
</defs>
</svg>
