<svg width="168" height="81" viewBox="0 0 168 81" fill="none" xmlns="http://www.w3.org/2000/svg">
<path d="M159.851 1.1515C157.095 0.20047 151.951 0.104298 149.876 0.114984C143.186 0.132794 139.359 1.14082 136.668 3.59498C136.28 3.9476 135.924 4.33229 135.597 4.73835C133.76 3.92623 131.755 3.38126 129.637 3.14261C123.325 2.42667 116.967 4.50326 111.912 8.87017C111.641 8.5959 111.36 8.32163 111.065 8.05093C105.629 3.04644 97.1808 2.88615 91.5418 4.27886C84.8811 5.80692 78.2845 8.64933 75.0236 18.8471C74.9417 19.1035 74.8776 19.36 74.8171 19.6236C74.3436 19.4348 73.863 19.2531 73.3575 19.0857C73.2471 19.0501 73.1332 19.0145 73.0193 18.9824C69.2991 17.9103 65.5469 18.01 62.1436 19.157C61.1397 17.0839 59.6231 15.2852 57.7007 13.9851C57.6829 13.9744 57.6687 13.9637 57.6509 13.953C53.0585 10.8969 46.7324 10.7081 41.9087 13.49C41.7627 13.5755 41.6239 13.6645 41.485 13.7536C40.8727 13.0946 40.2177 12.4641 39.5057 11.8693C33.322 6.67959 26.1131 5.00549 19.8404 3.84431C14.0056 2.76149 9.32066 3.51661 5.90665 6.08475C3.27227 8.06518 1.6418 10.9859 1.31072 14.3128C-0.319749 30.7617 1.86252 62.135 2.95187 68.8528C3.67098 73.2909 7.13128 78.3417 14.6713 79.218C15.5364 79.3177 16.405 79.3604 17.2523 79.3604C19.4417 79.3604 21.4993 79.0933 23.0016 78.8938C23.2829 78.8582 23.5499 78.8226 23.7955 78.7941C24.1266 78.7549 24.4541 78.6944 24.7781 78.6196C29.9472 77.3978 34.9026 74.8226 39.0358 71.2571C39.9044 72.0443 40.9332 72.7103 42.1009 73.2197C44.3188 74.1885 47.1098 74.6552 50.8798 74.6908C50.9403 74.6908 50.9973 74.6908 51.0578 74.6908C54.7922 74.6908 57.4159 73.5973 59.2422 72.2509C61.5206 73.6721 63.9912 74.502 66.4049 74.8226C67.5013 74.99 68.5729 75.0755 69.6195 75.0755C73.3148 75.0755 76.6611 74.0318 79.4379 72.0585C81.46 74.7727 83.9128 76.6712 86.7786 77.7362C91.8658 79.6276 100.161 80.3044 106.811 75.9944C107.985 75.2322 109.085 74.3453 110.104 73.3515C110.577 73.9392 111.054 74.4343 111.528 74.8724C115.23 78.2919 120.146 79.998 125.376 79.6846C128.697 79.4851 131.997 78.4557 134.931 76.7745C137.344 78.9829 140.605 80.454 144.39 80.8315C144.806 80.8743 145.223 80.8921 145.639 80.8921C148.889 80.8921 152.165 79.6525 154.781 77.3907C157.743 74.8368 159.544 71.2642 159.722 67.5812C159.886 64.2259 159.192 61.6185 158.22 59.6453C158.804 58.2347 158.996 56.9667 159.107 56.2329C159.221 55.5419 160.004 51.663 160.766 47.9087C162.934 37.2016 166.205 21.0163 167.109 14.5016C168.167 6.87906 164.055 2.60832 159.851 1.15506V1.1515Z" fill="white"/>
<path d="M158.395 5.36168C156.081 4.56025 150.139 4.56381 149.886 4.56737C143.101 4.58518 140.912 5.74992 139.666 6.88617C138.569 7.88707 137.879 9.34389 137.729 10.9931C137.718 11.1106 137.708 11.2424 137.697 11.3813C135.486 9.30115 132.503 7.95119 129.135 7.57006C123.564 6.9396 117.907 9.05182 113.614 13.3653C112.806 14.1774 112.14 15.0287 111.588 15.8978C110.744 14.2914 109.598 12.7526 108.05 11.3279C103.899 7.50951 97.1311 7.47389 92.5707 8.61014C86.1735 10.0741 81.7128 12.5318 79.26 20.2042C79.1995 20.393 79.1532 20.5817 79.1176 20.7776C78.7865 22.6334 78.5302 24.767 78.338 27.0359C76.7502 25.4616 74.6748 24.2149 71.9549 23.3102C71.898 23.2924 71.8446 23.2745 71.7876 23.2567C67.1917 21.9317 62.5317 22.9789 59.0571 25.9745C59.0571 25.9353 59.0643 25.8997 59.0678 25.8605C59.2743 22.555 57.7969 19.4205 55.1875 17.6538C51.9692 15.5096 47.5264 15.3849 44.1302 17.3404C42.7525 18.1347 41.6631 19.214 40.9048 20.4749C39.8119 18.5586 38.42 16.7598 36.6471 15.2709C31.2929 10.7758 24.7461 9.2691 19.0323 8.21121C14.4756 7.36703 10.9583 7.84433 8.58382 9.63241C6.95691 10.8541 5.94944 12.6707 5.74296 14.7402C4.17657 30.5408 6.31256 61.7503 7.34851 68.1262C7.63331 69.8857 8.97186 74.0603 15.1911 74.7834C15.8782 74.8617 16.576 74.8974 17.2702 74.8974C19.1498 74.8974 20.9868 74.6587 22.4321 74.4699C22.7312 74.4307 23.0124 74.3951 23.2687 74.3631C23.4325 74.3417 23.5962 74.3132 23.76 74.274C29.1712 72.9953 34.326 69.9997 38.2776 65.8358C38.9789 65.0985 39.6054 64.2793 40.175 63.4031C40.2106 64.0656 40.2925 64.778 40.5026 65.4939C41.6702 70.1422 48.6015 70.2063 50.9226 70.2277C51.0009 70.2277 51.0935 70.2277 51.1932 70.2277C52.5673 70.2277 55.782 70.0745 57.8895 67.4138C58.2277 66.9935 58.5018 66.5482 58.7261 66.0959C60.8656 68.4717 63.6744 69.9677 67.0315 70.4022C67.9179 70.5411 68.783 70.6088 69.616 70.6088C74.155 70.6088 77.868 68.5821 80.2461 64.7495C80.2888 64.6853 80.328 64.6212 80.3672 64.5571C82.2753 69.2695 84.9488 72.2936 88.3273 73.551C89.2422 73.8893 97.455 76.7424 104.39 72.2473C107.074 70.5091 109.288 67.9338 110.858 64.8385C111.99 68.6604 113.325 70.4628 114.546 71.5883C117.348 74.1778 121.104 75.4673 125.109 75.225C129.014 74.99 132.884 73.3123 135.824 70.6587C137.323 73.7825 140.584 75.9624 144.835 76.3862C145.105 76.4147 145.376 76.4254 145.65 76.4254C147.839 76.4254 150.071 75.567 151.883 74.0033C153.927 72.2437 155.166 69.8181 155.287 67.3497C155.44 64.2045 154.667 61.6399 152.987 59.72C153.29 59.3923 153.557 59.0219 153.785 58.6158C154.425 57.4725 154.603 56.3006 154.721 55.5241C154.81 54.9257 155.589 51.0824 156.412 47.0147C158.566 36.361 161.826 20.2576 162.709 13.8782C163.55 7.81939 159.979 5.89596 158.405 5.35099L158.395 5.36168Z" fill="#160830"/>
<path d="M10.1645 15.1855C10.5098 11.7197 15.508 12.0937 18.2172 12.596C23.2438 13.5256 29.1463 14.7972 33.7849 18.6868C38.032 22.2523 39.8048 28.5925 40.3104 34.1313C41.3499 45.5294 39.9366 57.6221 35.0487 62.7726C31.592 66.4165 27.1741 68.8956 22.7348 69.9428C19.3919 70.3453 12.4215 71.6382 11.738 67.4174C10.7804 61.5117 8.63014 30.6834 10.1681 15.1855H10.1645ZM28.0854 36.9701C27.7045 33.9033 26.1844 26.1027 21.3891 25.9994C19.8298 25.9674 20.1467 26.9968 20.3033 28.5711C20.9441 34.9292 21.4283 49.9426 21.738 53.6185C21.827 54.6693 21.7664 56.9703 23.461 56.1297C25.4475 55.143 28.8793 51.4422 28.6372 44.6176C28.5696 42.744 28.3773 39.3602 28.0818 36.9737L28.0854 36.9701Z" fill="white"/>
<path d="M44.7995 64.3467C44.5147 63.5168 44.6321 62.1597 44.5503 61.2051C44.3367 55.5132 43.4431 38.8292 43.9451 34.5157C44.1943 32.3607 46.971 32.5709 49.1497 32.6635C54.3829 32.8808 55.0237 33.6466 55.0237 36.3073C55.2551 44.7241 55.013 52.9165 55.2231 61.344C55.2266 62.4696 55.1056 63.7946 54.4149 64.6388C53.6211 65.6504 52.19 65.7893 50.9618 65.7786C44.9846 65.7252 44.803 64.3467 44.803 64.3467H44.7995ZM44.1409 25.2191C43.8739 20.87 49.4452 19.1852 52.7204 21.3651C55.3512 23.1425 55.3014 27.7623 52.3822 29.2369C49.1675 30.968 44.1622 29.4044 44.1444 25.3188V25.2155L44.1409 25.2191Z" fill="white"/>
<path d="M58.4662 51.9407C58.3167 47.1108 58.242 42.2381 58.6086 37.3689C58.808 34.7937 59.3883 32.4108 60.5915 30.783C63.29 27.3101 67.1846 26.5692 70.5524 27.5416C76.3943 29.4793 78.3772 33.1231 78.872 42.5088C79.1141 49.1553 79.8688 57.3406 76.4975 62.3558C74.2405 66.0495 70.7482 66.4983 67.6581 66.0032C62.368 65.3442 58.7119 60.6959 58.4734 52.0654L58.4662 51.9443V51.9407ZM70.4562 52.6282C70.4349 48.6281 70.4847 44.6637 70.2889 40.6744C70.0646 35.8979 67.6901 35.7589 67.1027 39.9869C66.8322 42.2915 67.1526 45.1268 67.0849 47.6593C67.1099 50.0066 66.9746 52.8312 67.5086 54.8081C68.4057 58.1349 70.4278 56.4857 70.4527 52.7528V52.6317L70.4562 52.6282Z" fill="white"/>
<path d="M83.4963 21.5647C85.2941 15.9369 87.989 14.2201 93.6031 12.9449C97.4123 11.9868 102.46 12.2361 105.034 14.6083C110.449 19.595 109.392 26.5657 109.128 33.287C109.018 34.4838 109.185 35.1428 107.75 35.2745C105.184 35.5951 102.603 35.7233 100.018 35.7732C99.0605 35.7661 97.5867 35.9121 97.4835 34.6655C97.2805 33.084 97.9035 31.2852 97.0847 29.8248C96.4119 28.6102 94.5109 28.5354 93.6885 29.636C92.3428 31.4348 92.7451 36.6744 92.9765 42.7189C92.9943 43.1642 93.5426 49.9247 93.7811 52.8277C93.8487 53.6362 94.4646 54.288 95.2691 54.3949C96.5543 54.5659 98.32 54.5872 98.6511 53.4937C98.9822 52.4002 99.0463 49.6611 98.9537 48.475C98.9181 47.9941 98.5123 47.6273 98.0317 47.6379C97.1168 47.6593 96.3158 48.1046 96.1912 47.125C95.8459 44.393 95.8174 43.6308 95.9313 40.8917C95.9989 39.2176 96.3087 39.2033 97.3517 39.1642C99.5732 39.0858 107.729 38.3841 108.594 39.3707C109.459 40.3574 109.317 51.4813 108.943 55.5347C108.491 60.4181 106.234 65.7503 101.969 68.5143C97.4123 71.4671 91.5881 70.0175 89.8758 69.3799C86.9139 68.2792 85.0556 64.7102 83.9413 61.4154C82.9516 58.4947 82.4426 55.435 82.3536 52.3539C82.172 46.0458 81.9192 30.3983 83.4963 21.5612V21.5647ZM156.942 9.56821C155.319 9.00543 144.543 8.46402 142.663 10.1773C142.357 10.4551 142.2 10.9431 142.161 11.399C141.802 15.3421 141.937 35.1178 141.745 54.9612C141.73 56.3361 142.449 56.6425 143.781 56.7707C145.604 56.9452 146.946 57.0414 148.59 57.1198C149.947 57.1839 150.139 56.0191 150.313 54.8651C150.659 52.5926 157.038 22.3234 158.295 13.2726C158.498 11.8122 158.512 10.1096 156.942 9.56821ZM117.562 68.3255C122.275 72.6782 129.968 70.9079 133.995 66.167C137.782 61.7538 137.28 55.5062 137.501 50.0529C137.512 41.8249 140.082 22.8328 135.974 16.2432C132.752 11.0749 123.436 9.8033 116.764 16.5068C114.151 19.1355 113.582 22.4018 112.941 25.8782C112.663 27.3742 111.36 62.6015 117.558 68.3255H117.562ZM123.215 29.5114C123.421 26.644 124.61 26.3591 125.362 26.3235C126.145 26.2878 126.942 26.5942 127.078 30.0207C127.33 36.482 127.245 45.7216 126.964 52.6246C126.867 54.979 126.255 56.3682 125.23 56.5C124.052 56.6496 123.845 54.9221 123.642 53.2195C123.001 47.8552 123.023 32.2184 123.219 29.5114H123.215ZM145.091 60.9381C140.904 60.8313 139.516 63.5419 139.367 66.281C139.192 69.4903 141.609 71.5989 145.265 71.9623C147.846 72.2187 150.702 69.7824 150.83 67.143C151.022 63.2071 149.206 61.045 145.091 60.9381Z" fill="#F75BC8"/>
<path d="M136.764 55.884C135.881 55.4459 135.362 54.8546 135.194 53.9748C134.949 52.6925 135.935 51.3425 137.234 51.1929C137.498 51.1644 137.597 51.2571 137.601 51.5171C137.619 53.095 137.533 54.6658 137.451 56.2402C137.384 57.5153 137.241 58.7798 136.999 60.0301C136.458 62.8297 135.29 65.3124 133.172 67.275C131.624 68.7104 129.844 69.7754 127.797 70.3525C127.683 70.3845 127.53 70.5021 127.451 70.3596C127.384 70.2385 127.53 70.1316 127.615 70.039C128.021 69.5938 128.548 69.3694 129.149 69.2483C128.188 68.4825 128.003 68.1975 127.775 67.0933C127.277 68.0016 126.558 68.5252 125.454 68.5644C126.223 68.885 126.718 69.3623 126.985 70.0675C127.106 70.3881 127.109 70.5662 126.682 70.641C124.247 71.0862 121.883 70.9687 119.634 69.836C119.128 69.5795 118.662 69.2554 118.199 68.9242C117.875 68.6926 118.014 68.5288 118.206 68.3542C118.872 67.7487 119.644 67.4923 120.531 67.7558C121.403 68.0159 121.962 68.6036 122.207 69.4798C122.261 69.665 122.282 69.8574 122.318 70.0604C122.959 68.9491 123.119 68.828 124.553 68.3899C123.35 67.6704 122.813 66.673 123.247 65.3088C123.55 64.3578 124.4 63.7772 125.572 63.6917C124.963 63.3783 124.486 62.9971 124.222 62.413C123.952 61.8146 123.934 61.1984 124.162 60.5857C124.507 59.6525 125.5 59.0007 126.465 59.0612C127.661 59.136 128.444 59.8662 128.779 61.2767C129.285 60.3364 130 59.7843 131.139 59.7629C130.481 59.4744 130.022 59.0719 129.758 58.4735C129.502 57.8858 129.47 57.2945 129.69 56.689C130.043 55.7201 131.065 55.0291 132.044 55.1039C133.318 55.2001 134.105 56.0122 134.368 57.5652C134.82 56.5216 135.582 55.9695 136.771 55.8733L136.764 55.884ZM127.953 66.1316C128.388 65.1343 129.11 64.6534 130.128 64.4718C129.185 63.9909 128.708 63.275 128.626 62.2384C128.177 63.1966 127.483 63.7166 126.387 63.8342C127.344 64.3471 127.882 65.0345 127.957 66.1352L127.953 66.1316ZM134.205 58.3488C133.792 59.2892 133.051 59.7665 131.997 59.9268C132.923 60.4005 133.407 61.0808 133.517 62.0853C133.938 61.2233 134.589 60.7282 135.547 60.5394C134.689 59.9944 134.29 59.2785 134.201 58.3453L134.205 58.3488ZM131.243 64.6605C131.648 64.8707 131.958 65.088 132.214 65.38C132.481 65.6792 132.592 66.0639 132.802 66.4486C133.215 65.8965 133.703 65.5225 134.329 65.348C134.532 65.291 134.518 65.2091 134.372 65.0987C133.749 64.6356 133.421 64.0016 133.329 63.1717C132.887 64.055 132.211 64.5145 131.243 64.6641V64.6605Z" fill="#EA00A4"/>
<path d="M144.503 55.7804C144.247 56.0262 144.048 56.2506 143.813 56.4323C143.087 56.9879 142.036 56.5997 141.823 55.7021C141.666 55.0431 141.684 54.3699 141.752 53.7074C141.794 53.28 141.805 52.8597 141.805 52.4358C141.805 52.1865 141.837 51.9834 142.236 51.9158C141.83 51.7804 141.805 51.5453 141.805 51.271C141.812 50.1882 141.819 49.109 141.801 48.0261C141.794 47.6842 141.933 47.5132 142.236 47.3921C143.756 46.7795 145.401 47.8445 145.554 49.6041C145.792 49.1553 146.045 48.7741 146.433 48.4963C146.825 48.2149 147.27 48.0831 147.74 47.9977C146.465 47.0395 146.07 46.1063 146.444 44.9629C146.8 43.8801 147.661 43.3315 149.067 43.2959C147.775 42.7652 147.088 41.8142 147.227 40.7456C147.387 39.5274 148.22 38.6975 149.438 38.555C150.598 38.4161 151.431 39.1285 152.072 40.8204C152.325 40.3467 152.627 39.937 153.097 39.6948C153.197 39.645 153.311 39.5488 153.414 39.62C153.532 39.702 153.489 39.8516 153.464 39.9762C153.243 41.0733 153.023 42.1668 152.805 43.2639C152.784 43.3672 152.763 43.4776 152.659 43.5025C152.545 43.531 152.489 43.4206 152.428 43.3422C152.086 42.8934 151.869 42.3983 151.894 41.7002C151.41 42.8186 150.609 43.2888 149.448 43.3636C150.513 43.7839 151.082 44.5105 151.21 45.6397C151.477 45.1339 151.773 44.7385 152.211 44.4749C152.296 44.4251 152.389 44.3503 152.485 44.4179C152.56 44.4678 152.545 44.5747 152.528 44.6566C152.303 45.7501 152.083 46.8472 151.855 47.9407C151.837 48.0297 151.773 48.1116 151.716 48.2256C151.26 47.8231 151.146 47.2995 151.022 46.7296C150.762 47.1179 150.527 47.4954 150.139 47.7412C149.765 47.9798 149.363 48.133 148.793 48.1651C149.701 48.5854 150.178 49.223 150.392 50.1277C150.705 49.7466 150.951 49.4117 151.31 49.2016C151.381 49.1588 151.46 49.0912 151.542 49.1553C151.574 49.1802 151.581 49.2586 151.57 49.3084C151.328 50.5266 151.079 51.7448 150.815 53.0378C150.381 52.6816 150.278 52.2256 150.11 51.7163C149.662 52.418 149.074 52.8134 148.263 53.0021C148.921 53.4509 149.352 53.9639 149.555 54.7047C149.836 54.3948 150.05 54.0885 150.367 53.8997C150.442 53.857 150.52 53.7893 150.602 53.8428C150.684 53.8926 150.659 53.9924 150.644 54.0778C150.509 54.7439 150.377 55.4064 150.246 56.0725C150.185 56.3753 150.029 56.6353 149.826 56.849C149.705 56.9772 149.487 57.2657 149.327 56.8419C149.285 56.7315 149.188 56.7172 149.131 56.8027C148.708 57.4617 148.049 57.2123 147.494 57.1696C146.903 57.1268 146.305 57.0841 145.717 57.0592C145.176 57.0342 144.909 56.8063 144.724 56.3717C144.646 56.1901 144.585 56.0048 144.5 55.7876L144.503 55.7804ZM145.383 50.5622C144.927 51.5097 144.222 51.9656 143.233 52.101C144.073 52.4857 144.568 53.0912 144.824 53.9959C145.283 53.2942 145.878 52.9131 146.718 52.7243C145.899 52.2043 145.5 51.5168 145.383 50.5622Z" fill="#EA00A4"/>
<path d="M143.186 63.1642C143.546 62.7332 143.941 62.4162 144.425 62.2239C144.642 62.1384 144.525 62.0422 144.425 61.9496C144.226 61.7644 144.059 61.5542 143.916 61.3227C143.77 61.084 143.841 60.9238 144.105 60.9095C145.461 60.8347 146.8 60.9238 148.085 61.4189C148.306 61.5043 148.27 61.6219 148.138 61.7715C147.843 62.1063 147.448 62.3058 147.031 62.5337C147.38 62.8329 147.668 63.1464 147.857 63.5311C147.928 63.6771 148.024 63.7163 148.153 63.5881C148.434 63.3031 148.786 63.1179 149.164 62.9327C148.843 62.5409 148.501 62.1918 148.405 61.6468C148.797 61.7145 149.053 61.9567 149.31 62.1704C150.274 62.9754 150.737 64.0582 150.912 65.2729C151.04 66.1598 151.1 67.0538 150.879 67.9372C150.509 69.4225 149.587 70.4946 148.316 71.3032C147.957 71.5347 147.569 71.7057 147.166 71.841C146.96 71.9123 146.757 72.0013 146.632 71.7164C146.59 71.6166 146.508 71.6024 146.426 71.6807C145.814 72.2756 145.112 72.0298 144.415 71.9194C143.905 71.8375 143.428 71.6558 142.941 71.5169C142.506 71.3922 142.165 71.1714 142.008 70.7261C141.948 70.5587 141.88 70.4234 141.688 70.6193C141.51 70.7974 141.357 70.687 141.207 70.5552C140.139 69.6184 139.466 68.4999 139.399 67.0324C139.317 65.2978 139.666 63.7163 140.833 62.3806C141.061 62.117 141.374 61.9282 141.659 61.7181C141.841 61.5827 142.004 61.6789 142.165 61.7893C142.652 62.1206 142.93 62.6121 143.183 63.1678L143.186 63.1642ZM143.638 66.865C143.283 66.5088 143.012 66.1313 142.852 65.686C142.773 65.4652 142.684 65.5614 142.585 65.6682C142.314 65.9674 141.987 66.1883 141.613 66.3414C141.46 66.402 141.346 66.4697 141.535 66.6299C141.834 66.8793 142.061 67.1856 142.232 67.5347C142.3 67.67 142.382 67.7591 142.517 67.613C142.823 67.2889 143.211 67.0859 143.635 66.865H143.638ZM148.081 67.6202C148.067 67.5952 148.06 67.5667 148.042 67.5454C147.843 67.2746 147.69 66.922 147.423 66.7617C147.255 66.662 147.035 67.0324 146.8 67.1357C146.721 67.1678 146.65 67.2177 146.572 67.2533C146.426 67.321 146.444 67.3993 146.526 67.5204C147.088 68.3575 147.106 68.3646 147.925 67.7983C147.992 67.7519 148.088 67.7341 148.081 67.6202Z" fill="#EA00A4"/>
<path d="M123.073 65.2946C123.073 66.6196 122.044 67.6241 120.702 67.617C119.402 67.6098 118.398 66.584 118.402 65.2697C118.402 63.9446 119.431 62.9402 120.773 62.9473C122.072 62.9544 123.076 63.9803 123.073 65.2946Z" fill="#EA00A4"/>
<path d="M141.809 44.8989C141.809 43.5311 142.428 42.7118 143.557 42.5409C144.749 42.3628 145.856 43.0146 146.223 44.1117C146.597 45.2372 146.088 46.4554 145.016 46.9968C144.002 47.5097 142.748 47.1749 142.047 46.2417C141.716 45.8 141.851 45.3156 141.812 44.8953L141.809 44.8989Z" fill="#EA00A4"/>
<path d="M132.788 50.3984C134.076 50.3984 135.116 51.4421 135.112 52.7315C135.112 54.0209 134.069 55.0574 132.777 55.0574C131.488 55.0574 130.449 54.0138 130.452 52.7244C130.452 51.435 131.495 50.3984 132.788 50.3984Z" fill="#EA00A4"/>
<path d="M152.777 36.7566C152.463 37.615 151.951 38.2704 151.011 38.4983C149.779 38.7975 148.537 38.0495 148.22 36.8136C147.907 35.5847 148.644 34.3273 149.872 34.0032C151.1 33.6791 152.364 34.4021 152.706 35.6203C152.812 35.9979 152.805 36.379 152.773 36.7601L152.777 36.7566Z" fill="#EA00A4"/>
<path d="M147.149 40.1545C147.163 41.3905 146.098 42.4733 144.849 42.4876C143.614 42.5018 142.528 41.4368 142.514 40.1901C142.499 38.9541 143.564 37.8713 144.813 37.8571C146.049 37.8428 147.134 38.9078 147.149 40.1545Z" fill="#EA00A4"/>
<path d="M121.574 62.8865C120.317 62.8687 119.245 61.7717 119.288 60.5464C119.327 59.2961 120.385 58.2632 121.609 58.281C122.866 58.2988 123.937 59.3959 123.895 60.6212C123.856 61.8714 122.798 62.9043 121.574 62.8865Z" fill="#EA00A4"/>
<path d="M135.888 47.9338C135.888 49.2197 134.916 50.1956 133.624 50.1921C132.36 50.1921 131.389 49.2161 131.385 47.9516C131.385 46.6658 132.357 45.6898 133.649 45.6934C134.913 45.6934 135.885 46.6693 135.888 47.9338Z" fill="#EA00A4"/>
<path d="M151.221 33.7072C149.964 33.7036 148.989 32.7134 148.989 31.4525C148.989 30.1773 149.989 29.1978 151.278 29.2121C152.528 29.2228 153.496 30.2201 153.489 31.4881C153.482 32.7419 152.488 33.7143 151.221 33.7072Z" fill="#EA00A4"/>
<path d="M145.703 37.6328C144.471 37.6435 143.443 36.6177 143.443 35.3888C143.443 34.1778 144.454 33.1591 145.668 33.1519C146.899 33.1413 147.928 34.1671 147.928 35.3959C147.928 36.607 146.917 37.6257 145.703 37.6328Z" fill="#EA00A4"/>
<path d="M116.817 61.9464C115.646 61.9571 114.61 60.9384 114.589 59.7522C114.568 58.5733 115.632 57.5011 116.817 57.5118C117.999 57.5225 119.025 58.5519 119.025 59.7273C119.025 60.9027 117.999 61.9321 116.817 61.9464Z" fill="#EA00A4"/>
<path d="M136.696 43.2462C136.696 44.4394 135.693 45.4474 134.493 45.451C133.297 45.451 132.289 44.4465 132.286 43.2497C132.286 42.0565 133.29 41.0485 134.489 41.0449C135.685 41.0449 136.693 42.0494 136.696 43.2462Z" fill="#EA00A4"/>
<path d="M154.272 26.6619C154.279 27.8908 153.325 28.856 152.097 28.8596C150.869 28.8596 149.908 27.9014 149.911 26.6726C149.911 25.4615 150.855 24.5105 152.065 24.4963C153.297 24.482 154.265 25.433 154.272 26.6619Z" fill="#EA00A4"/>
<path d="M129.552 56.6568C129.552 57.8714 128.548 58.9115 127.327 58.9721C126.145 59.0326 125.041 58.078 124.924 56.8883C124.902 56.6889 124.881 56.4752 125.18 56.4538C125.871 56.4004 126.209 55.9266 126.465 55.3638C126.519 55.2499 126.554 55.1252 126.593 55.0041C126.835 54.281 126.935 54.224 127.708 54.395C128.779 54.6337 129.552 55.5811 129.552 56.6533V56.6568Z" fill="#EA00A4"/>
<path d="M122.46 53.5651C122.706 53.5651 122.937 53.6292 123.169 53.7005C123.656 53.8501 123.977 54.1279 124.016 54.68C124.048 55.1359 124.19 55.5812 124.454 55.9552C124.653 56.2437 124.578 56.4859 124.454 56.7495C123.991 57.7361 122.848 58.249 121.809 57.9285C120.773 57.6115 120.068 56.5465 120.224 55.5313C120.399 54.3915 121.349 53.5544 122.457 53.5616L122.46 53.5651Z" fill="#EA00A4"/>
<path d="M148.701 30.6443C148.69 31.8411 147.715 32.7814 146.501 32.7672C145.301 32.7565 144.365 31.7841 144.375 30.5659C144.386 29.3691 145.358 28.4288 146.575 28.443C147.775 28.4537 148.711 29.4261 148.701 30.6443Z" fill="#EA00A4"/>
<path d="M117.665 52.8027C118.811 52.8027 119.826 53.8321 119.804 54.9684C119.783 56.1046 118.786 57.0877 117.658 57.0877C116.511 57.0877 115.497 56.0583 115.518 54.9221C115.54 53.7858 116.536 52.8027 117.665 52.8027Z" fill="#EA00A4"/>
<path d="M135.326 36.329C136.454 36.3076 137.451 37.2836 137.48 38.434C137.512 39.5703 136.494 40.5997 135.344 40.5997C134.208 40.5997 133.218 39.613 133.211 38.4732C133.201 37.3405 134.18 36.3503 135.326 36.329Z" fill="#EA00A4"/>
<path d="M155.084 21.9746C155.091 23.1073 154.112 24.0975 152.965 24.1153C151.823 24.1331 150.797 23.1109 150.812 21.9675C150.826 20.8241 151.816 19.8446 152.951 19.8482C154.09 19.8517 155.077 20.8384 155.084 21.9746Z" fill="#EA00A4"/>
<path d="M128.825 44.9276C129.819 44.9276 130.659 45.5438 130.937 46.4557C131.225 47.4032 130.851 48.3969 130 48.9383C129.214 49.4406 128.17 49.3622 127.458 48.7567C127.227 48.5608 127.117 48.3399 127.106 48.0265C127.081 47.2999 127.199 46.5839 127.202 45.8609C127.202 45.6685 127.316 45.5474 127.448 45.4334C127.854 45.0879 128.316 44.8991 128.825 44.9241V44.9276Z" fill="#EA00A4"/>
<path d="M129.708 40.311C130.897 40.311 131.787 41.1979 131.791 42.3841C131.791 43.5916 130.897 44.482 129.687 44.4749C128.505 44.4678 127.622 43.5737 127.626 42.3805C127.626 41.198 128.523 40.311 129.708 40.311Z" fill="#EA00A4"/>
<path d="M147.408 27.9014C146.227 27.905 145.319 27.0109 145.315 25.8355C145.312 24.6529 146.209 23.7482 147.38 23.7446C148.562 23.7411 149.47 24.6351 149.473 25.8105C149.477 26.9931 148.58 27.8978 147.408 27.9014Z" fill="#EA00A4"/>
<path d="M155.86 17.2051C155.856 18.3022 154.902 19.2532 153.806 19.2567C152.699 19.2603 151.72 18.2737 151.745 17.173C151.77 16.0688 152.731 15.1285 153.82 15.1427C154.92 15.157 155.867 16.1151 155.86 17.2051Z" fill="#EA00A4"/>
<path d="M100.922 68.796C99.8152 68.8031 98.8397 67.8271 98.8504 66.7229C98.8611 65.6259 99.8081 64.682 100.905 64.6748C102.012 64.6677 102.987 65.6437 102.976 66.7479C102.966 67.8449 102.019 68.7889 100.922 68.796Z" fill="#EA00A4"/>
<path d="M138.174 33.672C138.184 34.7619 137.237 35.7236 136.137 35.7415C135.034 35.7593 134.048 34.7797 134.058 33.6755C134.066 32.5785 135.02 31.6274 136.116 31.6274C137.209 31.6274 138.167 32.5749 138.174 33.672Z" fill="#EA00A4"/>
<path d="M120.577 50.2382C120.584 51.346 119.609 52.3184 118.502 52.3113C117.405 52.3006 116.458 51.3567 116.451 50.2596C116.444 49.1518 117.416 48.1794 118.526 48.1866C119.623 48.1972 120.57 49.1412 120.577 50.2382Z" fill="#EA00A4"/>
<path d="M132.574 37.6005C132.578 38.7474 131.698 39.6272 130.552 39.6201C129.423 39.613 128.558 38.7474 128.551 37.6183C128.548 36.4713 129.427 35.5916 130.573 35.5987C131.702 35.6058 132.567 36.4713 132.574 37.6005Z" fill="#EA00A4"/>
<path d="M148.167 23.1391C147.02 23.1391 146.141 22.2557 146.152 21.1088C146.162 19.9797 147.031 19.1177 148.16 19.1177C149.306 19.1177 150.185 20.001 150.174 21.148C150.164 22.2771 149.295 23.1391 148.167 23.1391Z" fill="#EA00A4"/>
<path d="M103.667 61.9534C103.667 63.0291 102.745 63.9409 101.67 63.9338C100.595 63.9267 99.6871 63.0006 99.7013 61.9249C99.7156 60.867 100.62 59.9694 101.677 59.9658C102.752 59.9623 103.671 60.8777 103.667 61.9534Z" fill="#EA00A4"/>
<path d="M119.374 47.4456C118.302 47.4491 117.377 46.523 117.387 45.4509C117.398 44.3895 118.302 43.4919 119.36 43.4883C120.431 43.4847 121.357 44.4108 121.346 45.483C121.335 46.5444 120.431 47.442 119.374 47.4456Z" fill="#EA00A4"/>
<path d="M156.632 12.3998C156.646 13.4435 155.742 14.3696 154.685 14.3909C153.628 14.4123 152.681 13.4755 152.681 12.4141C152.681 11.3633 153.596 10.4479 154.649 10.4443C155.7 10.4408 156.618 11.3455 156.632 12.3998Z" fill="#EA00A4"/>
<path d="M128.174 49.629C128.943 49.6718 129.655 50.1028 130.046 50.9755C130.434 51.8374 130.292 52.6567 129.665 53.3548C129.042 54.0529 128.249 54.2738 127.341 54.0138C127.031 53.9247 126.878 53.8072 126.917 53.3904C126.999 52.4608 127.067 51.524 127.035 50.5836C127.01 49.7787 127.181 49.6291 128.174 49.6255V49.629Z" fill="#EA00A4"/>
<path d="M98.0885 65.8641C98.1028 66.9149 97.1878 67.8339 96.1305 67.8374C95.0732 67.8374 94.1619 66.922 94.169 65.8712C94.1761 64.8276 95.0554 63.9442 96.1056 63.9193C97.1487 63.8979 98.0778 64.8062 98.0885 65.8641Z" fill="#EA00A4"/>
<path d="M133.361 32.8099C133.375 33.8499 132.499 34.7475 131.446 34.7689C130.392 34.7903 129.47 33.882 129.473 32.8205C129.477 31.7733 130.363 30.8864 131.41 30.8829C132.453 30.8757 133.347 31.7591 133.361 32.8099Z" fill="#EA00A4"/>
<path d="M149.021 14.4341C150.114 14.4341 150.929 15.2569 150.929 16.3504C150.929 17.4439 150.107 18.2596 149.014 18.2596C147.921 18.2596 147.106 17.4368 147.106 16.3433C147.106 15.2498 147.928 14.4341 149.021 14.4341Z" fill="#EA00A4"/>
<path d="M138.451 29.0163C138.451 29.173 138.451 29.3297 138.451 29.4865C138.451 30.4589 137.967 30.9468 136.988 30.9611C136.194 30.9718 135.429 30.4411 135.137 29.6859C134.845 28.9237 135.066 28.0403 135.678 27.5132C136.323 26.9575 137.213 26.872 137.942 27.2852C138.291 27.4811 138.512 27.7304 138.459 28.1685C138.427 28.4499 138.451 28.7349 138.451 29.0198V29.0163Z" fill="#EA00A4"/>
<path d="M102.539 55.2749C103.564 55.2749 104.447 56.1654 104.433 57.1876C104.418 58.2028 103.55 59.0577 102.539 59.0612C101.513 59.0612 100.63 58.1707 100.645 57.1485C100.659 56.1333 101.528 55.2785 102.539 55.2749Z" fill="#EA00A4"/>
<path d="M120.239 42.5763C119.213 42.587 118.327 41.7001 118.331 40.6778C118.338 39.6662 119.199 38.8042 120.21 38.7936C121.236 38.7829 122.122 39.6698 122.118 40.6921C122.111 41.7036 121.253 42.5656 120.239 42.5763Z" fill="#EA00A4"/>
<path d="M105.333 57.8144C105.365 57.1839 105.742 56.5784 106.465 56.2293C107.191 55.8802 107.896 55.9764 108.551 56.4537C108.836 56.6603 108.95 56.9168 108.882 57.2587C108.736 57.9925 108.583 58.7226 108.377 59.4457C108.298 59.7235 108.131 59.866 107.857 59.9444C106.59 60.3077 105.315 59.3317 105.329 57.8179L105.333 57.8144Z" fill="#EA00A4"/>
<path d="M96.992 62.9687C95.9952 62.9758 95.0981 62.0782 95.1087 61.0845C95.1194 60.0942 95.9845 59.2323 96.9742 59.2251C97.971 59.218 98.8681 60.1156 98.8574 61.1094C98.8467 62.0996 97.9816 62.9616 96.992 62.9687Z" fill="#EA00A4"/>
<path d="M132.257 26.2735C133.265 26.2629 134.108 27.0892 134.126 28.1044C134.144 29.1231 133.282 29.9922 132.261 29.9851C131.25 29.9779 130.413 29.1409 130.413 28.1329C130.413 27.1248 131.246 26.2842 132.257 26.2735Z" fill="#EA00A4"/>
<path d="M114.571 42.7404C115.565 42.7262 116.462 43.6166 116.458 44.614C116.458 45.5971 115.6 46.5125 114.607 46.4697C113.542 46.427 112.798 45.8927 112.763 44.4359C112.741 43.5775 113.624 42.7511 114.571 42.7404Z" fill="#EA00A4"/>
<path d="M143.492 22.1776C143.079 22.1954 142.713 22.0707 142.371 21.8427C141.99 21.5898 141.837 21.2906 141.937 20.7991C142.029 20.3503 141.987 19.8659 141.976 19.3993C141.969 19.1143 142.075 18.9184 142.3 18.751C142.969 18.2452 143.877 18.2238 144.567 18.7083C145.244 19.182 145.536 20.0262 145.301 20.8133C145.059 21.6255 144.336 22.1704 143.496 22.174L143.492 22.1776Z" fill="#EA00A4"/>
<path d="M151.698 11.5417C151.705 12.596 150.929 13.3832 149.883 13.3868C148.829 13.3868 148.046 12.6103 148.046 11.5631C148.046 10.5301 148.815 9.74649 149.84 9.73937C150.897 9.72868 151.691 10.5016 151.698 11.5417Z" fill="#EA00A4"/>
<path d="M118.306 64.511C118.306 65.5119 117.672 66.381 116.75 66.6766C116.49 66.7586 116.326 66.7229 116.202 66.4629C115.643 65.2982 115.244 64.0764 114.913 62.8333C114.842 62.5697 115.002 62.4843 115.201 62.4023C116.672 61.7897 118.309 62.901 118.309 64.5145L118.306 64.511Z" fill="#EA00A4"/>
<path d="M93.1651 65.038C93.1615 66.0425 92.3499 66.8439 91.3424 66.8439C90.3171 66.8439 89.5126 66.0211 89.5268 64.9882C89.5375 63.9873 90.3598 63.1965 91.3709 63.2037C92.3748 63.2108 93.1722 64.0265 93.1651 65.038Z" fill="#EA00A4"/>
<path d="M146.134 15.4883C146.134 16.4856 145.315 17.3084 144.318 17.3084C143.322 17.3084 142.499 16.4892 142.496 15.4954C142.496 14.4981 143.314 13.6753 144.311 13.6753C145.308 13.6753 146.13 14.4945 146.134 15.4883Z" fill="#EA00A4"/>
<path d="M105.198 52.4823C105.191 53.444 104.351 54.2775 103.389 54.2775C102.414 54.2775 101.56 53.4084 101.585 52.4395C101.609 51.4743 102.46 50.6515 103.414 50.6657C104.379 50.6835 105.209 51.5241 105.198 52.4823Z" fill="#EA00A4"/>
<path d="M121.065 34.1065C122.019 34.0959 122.873 34.9436 122.873 35.9017C122.873 36.8599 122.022 37.7076 121.068 37.7005C120.121 37.6934 119.299 36.8777 119.281 35.9267C119.26 34.9792 120.104 34.1172 121.065 34.1065Z" fill="#EA00A4"/>
<path d="M97.85 58.1742C96.8924 58.1813 96.0807 57.387 96.0664 56.4217C96.0486 55.4529 96.8781 54.6194 97.8536 54.6265C98.8183 54.6372 99.6157 55.4422 99.6157 56.4003C99.6157 57.3621 98.8147 58.1635 97.85 58.1742Z" fill="#EA00A4"/>
<path d="M115.468 38.0886C116.469 38.0957 117.195 38.8508 117.181 39.8695C117.17 40.8669 116.412 41.5864 115.386 41.5686C114.407 41.5543 113.688 40.8063 113.695 39.809C113.702 38.8045 114.45 38.0779 115.468 38.085V38.0886Z" fill="#EA00A4"/>
<path d="M133.044 25.0838C132.051 25.0838 131.296 24.3252 131.303 23.3278C131.307 22.3554 132.061 21.611 133.037 21.6074C134.03 21.6074 134.785 22.3661 134.778 23.3634C134.774 24.3358 134.019 25.0803 133.044 25.0838Z" fill="#EA00A4"/>
<path d="M109.324 52.525C109.146 53.1732 109.302 53.9604 109.156 54.7298C109.114 54.9471 109.018 55.0504 108.833 55.1252C108.071 55.4279 107.131 55.1394 106.629 54.4484C106.098 53.7111 106.148 52.728 106.75 52.0477C107.309 51.4172 108.288 51.2391 109.014 51.5953C109.395 51.7841 109.302 52.1011 109.32 52.5214L109.324 52.525Z" fill="#EA00A4"/>
<path d="M93.9305 60.2403C93.9305 61.1877 93.1402 61.9749 92.1932 61.9714C91.2463 61.9678 90.4631 61.1699 90.4737 60.2225C90.4844 59.2928 91.2605 58.5199 92.1897 58.5127C93.1366 58.5056 93.9305 59.2928 93.9305 60.2403Z" fill="#EA00A4"/>
<path d="M104.251 45.9854C105.169 45.9854 105.974 46.8082 105.953 47.7129C105.931 48.6212 105.141 49.3941 104.244 49.3906C103.325 49.3906 102.521 48.5678 102.542 47.663C102.564 46.7547 103.354 45.9818 104.251 45.9854Z" fill="#EA00A4"/>
<path d="M142.613 23.0679C143.777 23.0679 144.671 24.0367 144.592 25.2193C144.521 26.3199 143.489 27.1605 142.371 27.0394C142.033 27.0038 141.876 26.8649 141.883 26.4944C141.905 25.5826 141.89 24.6743 141.89 23.7624C141.89 23.1498 141.976 23.0679 142.61 23.0679H142.613Z" fill="#EA00A4"/>
<path d="M145.084 12.5211C143.941 12.5211 143.108 11.4062 143.428 10.3127C143.571 9.83186 143.845 9.5291 144.372 9.47211C144.735 9.43293 145.102 9.36169 145.454 9.28332C145.824 9.19784 146.059 9.33675 146.291 9.55759C146.8 10.042 146.953 10.7936 146.686 11.4418C146.419 12.0901 145.778 12.5211 145.084 12.5211Z" fill="#EA00A4"/>
<path d="M104.397 62.8795C104.418 61.2303 106.127 60.2401 107.465 60.9917C107.69 61.1164 107.789 61.2375 107.668 61.5295C107.245 62.5518 106.736 63.5242 106.152 64.461C105.97 64.7566 105.774 64.7958 105.493 64.6248C104.792 64.2045 104.425 63.5919 104.397 62.8759V62.8795Z" fill="#EA00A4"/>
<path d="M123.329 31.1499C123.329 32.2256 123.008 32.6886 122.168 32.8525C121.378 33.0056 120.588 32.5853 120.296 31.8551C119.982 31.0751 120.264 30.1953 120.968 29.7678C121.645 29.3582 122.524 29.4936 123.079 30.0564C123.414 30.3912 123.304 30.7937 123.329 31.1534V31.1499Z" fill="#EA00A4"/>
<path d="M116.287 36.7811C115.369 36.7811 114.642 36.0474 114.642 35.1284C114.642 34.2094 115.376 33.4828 116.298 33.4863C117.216 33.4863 117.942 34.2201 117.942 35.1391C117.942 36.058 117.209 36.7847 116.287 36.7811Z" fill="#EA00A4"/>
<path d="M132.246 18.5265C132.264 17.6146 133.022 16.8951 133.941 16.9201C134.852 16.9414 135.568 17.7037 135.539 18.6227C135.511 19.5167 134.767 20.222 133.866 20.2113C132.955 20.197 132.229 19.4455 132.246 18.53V18.5265Z" fill="#EA00A4"/>
<path d="M123.77 52.8348C123.802 53.0379 123.656 53.1697 123.325 53.1768C122.214 53.2053 121.214 52.2792 121.146 51.1429C121.079 50.0138 121.972 48.963 123.079 48.8776C123.29 48.8598 123.482 48.8633 123.496 49.159C123.557 50.3451 123.617 51.5312 123.767 52.8384L123.77 52.8348Z" fill="#EA00A4"/>
<path d="M88.2737 64.1652C88.2808 65.2088 87.2591 66.0494 86.2552 65.8393C85.9989 65.7858 85.8173 65.6754 85.6963 65.4332C85.4898 65.0129 85.2726 64.5997 85.0377 64.1972C84.8775 63.9158 84.9095 63.6629 85.0519 63.3922C85.415 62.7012 86.2018 62.3379 86.9565 62.5231C87.7077 62.7048 88.2666 63.4065 88.2737 64.1652Z" fill="#EA00A4"/>
<path d="M113.727 51.3529C113.439 51.3387 113.179 51.2995 113.158 50.9006C113.129 50.3235 113.058 49.7465 113.019 49.1695C112.998 48.8311 113.019 48.4927 112.948 48.1543C112.852 47.677 112.948 47.5559 113.407 47.4811C114.176 47.3564 114.813 47.6093 115.28 48.2291C115.76 48.8631 115.814 49.5684 115.458 50.2772C115.109 50.9718 114.5 51.2995 113.724 51.3529H113.727Z" fill="#EA00A4"/>
<path d="M94.6922 55.5385C94.6993 56.4076 93.9339 57.177 93.0617 57.1841C92.1931 57.1912 91.4206 56.429 91.417 55.5563C91.4099 54.6872 92.1753 53.9178 93.0475 53.9107C93.9162 53.9036 94.6887 54.6658 94.6922 55.5385Z" fill="#EA00A4"/>
<path d="M129.961 22.484C129.968 23.3353 129.221 24.0976 128.359 24.1154C127.494 24.1332 126.707 23.3496 126.718 22.484C126.729 21.6256 127.487 20.874 128.341 20.874C129.196 20.874 129.954 21.6256 129.961 22.484Z" fill="#EA00A4"/>
<path d="M88.9857 59.4814C88.9857 60.3897 88.3022 61.0557 87.3873 61.0451C86.5009 61.0379 85.8423 60.3612 85.8423 59.4671C85.8423 58.5588 86.5258 57.8928 87.4407 57.9034C88.3272 57.9106 88.9857 58.5873 88.9857 59.4814Z" fill="#EA00A4"/>
<path d="M106.668 42.9148C106.668 43.7981 105.992 44.4713 105.102 44.4713C104.198 44.4713 103.525 43.7874 103.532 42.8756C103.539 41.9993 104.226 41.3333 105.12 41.3404C106.002 41.3475 106.668 42.0243 106.668 42.9148Z" fill="#EA00A4"/>
<path d="M124.265 26.4234C124.265 27.2996 123.567 27.9907 122.688 27.9871C121.823 27.9835 121.146 27.3068 121.136 26.4448C121.129 25.5614 121.809 24.8669 122.688 24.8633C123.571 24.8597 124.261 25.5436 124.261 26.427L124.265 26.4234Z" fill="#EA00A4"/>
<path d="M129.21 27.2818C129.21 28.1972 128.455 28.9701 127.537 29.0022C127.177 29.0129 126.971 28.9131 126.928 28.4857C126.86 27.7947 126.721 27.1037 126.138 26.6193C125.913 26.4341 126.073 26.2951 126.187 26.1562C126.625 25.6219 127.408 25.426 128.088 25.6718C128.747 25.9105 129.213 26.5801 129.21 27.2854V27.2818Z" fill="#EA00A4"/>
<path d="M118.69 30.3697C118.676 31.2068 117.928 31.9263 117.106 31.8942C116.276 31.8622 115.586 31.1462 115.604 30.3341C115.618 29.4971 116.365 28.7776 117.188 28.8096C118.017 28.8417 118.708 29.5576 118.69 30.3697Z" fill="#EA00A4"/>
<path d="M99.4271 48.3862C99.1922 48.3755 98.9359 48.3221 98.7579 48.0763C98.7187 48.0193 98.6582 47.9766 98.6012 47.9338C97.8145 47.3425 97.6899 46.591 98.2524 45.875C98.7721 45.2161 99.7618 45.1021 100.427 45.6328C100.922 46.0246 101.125 46.7192 100.922 47.3247C100.712 47.9552 100.121 48.3862 99.4236 48.3898L99.4271 48.3862Z" fill="#EA00A4"/>
<path d="M129.188 16.2324C130.039 16.2324 130.673 16.8558 130.676 17.7035C130.676 18.5548 130.05 19.1888 129.203 19.1924C128.352 19.1924 127.718 18.569 127.715 17.7213C127.715 16.87 128.341 16.236 129.188 16.2324Z" fill="#EA00A4"/>
<path d="M137.8 26.0885C136.825 26.0707 135.992 25.255 135.938 24.2684C135.888 23.328 136.668 22.434 137.626 22.3271C137.854 22.3022 137.996 22.3414 138.035 22.6192C138.145 23.4171 138.231 24.2149 138.284 25.0199C138.295 25.1767 138.284 25.3334 138.309 25.4865C138.391 25.9745 138.291 26.0956 137.804 26.0885H137.8Z" fill="#EA00A4"/>
<path d="M88.2595 56.1582C87.4691 56.1511 86.7927 55.4708 86.7999 54.68C86.807 53.8893 87.4905 53.2161 88.2808 53.2232C89.0711 53.2303 89.7475 53.9106 89.7404 54.7014C89.7333 55.4921 89.0498 56.1653 88.2595 56.1582Z" fill="#EA00A4"/>
<path d="M125.02 21.6467C125.016 22.4161 124.34 23.0928 123.571 23.1035C122.788 23.1142 122.086 22.4161 122.094 21.6325C122.097 20.8453 122.806 20.1578 123.585 20.1756C124.358 20.1934 125.023 20.8773 125.02 21.6467Z" fill="#EA00A4"/>
<path d="M109.402 48.5354C109.402 49.0162 109.395 49.5007 109.402 49.9815C109.409 50.2558 109.288 50.352 109.021 50.3626C108.06 50.3983 107.209 49.5541 107.209 48.5461C107.209 47.5345 108.046 46.6939 109.011 46.7152C109.306 46.7224 109.413 46.8435 109.406 47.1284C109.395 47.595 109.406 48.0652 109.402 48.5318V48.5354Z" fill="#EA00A4"/>
<path d="M119.399 25.554C119.402 26.3625 118.811 26.9609 118.007 26.9609C117.199 26.9609 116.608 26.3661 116.608 25.5575C116.608 24.7703 117.195 24.1791 117.978 24.1719C118.79 24.1648 119.392 24.749 119.399 25.554Z" fill="#EA00A4"/>
<path d="M101.713 42.0673C101.705 42.8723 101.104 43.4564 100.292 43.4457C99.4911 43.435 98.9108 42.826 98.9251 42.0138C98.9393 41.2302 99.5338 40.6532 100.324 40.6568C101.129 40.6568 101.72 41.2587 101.713 42.0673Z" fill="#EA00A4"/>
<path d="M141.898 29.7216C141.898 29.1659 141.905 28.6103 141.898 28.0582C141.89 27.7661 142.001 27.6877 142.286 27.7518C143.151 27.9478 143.834 28.824 143.831 29.7643C143.827 30.7047 143.126 31.5845 142.264 31.759C141.994 31.816 141.898 31.7376 141.898 31.4705C141.905 30.8863 141.898 30.3022 141.898 29.7216Z" fill="#EA00A4"/>
<path d="M108.032 33.444C108.025 34.167 107.444 34.7334 106.718 34.7298C105.978 34.7262 105.401 34.1278 105.422 33.3834C105.44 32.6639 106.031 32.1047 106.757 32.1189C107.48 32.1332 108.042 32.7173 108.032 33.444Z" fill="#EA00A4"/>
<path d="M125.718 16.9273C125.725 17.6539 125.159 18.2345 124.436 18.2452C123.692 18.2558 123.101 17.6753 123.105 16.9308C123.105 16.2077 123.681 15.6343 124.407 15.6343C125.134 15.6343 125.71 16.2006 125.718 16.9273Z" fill="#EA00A4"/>
<path d="M89.1423 48.5997C89.8898 48.6068 90.4488 49.191 90.431 49.9496C90.4167 50.6763 89.84 51.2248 89.1031 51.2177C88.3555 51.2106 87.7966 50.6264 87.8144 49.8677C87.8286 49.1411 88.4053 48.5926 89.1423 48.5997Z" fill="#EA00A4"/>
<path d="M136.088 48.486C136.113 47.8342 136.543 47.1396 137.387 46.6943C137.654 46.5554 137.8 46.616 137.768 46.933C137.64 48.1227 137.715 49.3159 137.675 50.5056C137.661 50.9437 137.512 51.0007 137.141 50.7692C136.483 50.356 136.088 49.6115 136.091 48.4895L136.088 48.486Z" fill="#EA00A4"/>
<path d="M118.708 22.0493C118.003 22.003 117.448 21.3797 117.508 20.6994C117.569 20.0084 118.17 19.4741 118.836 19.5204C119.541 19.5667 120.096 20.19 120.036 20.8703C119.975 21.5614 119.374 22.0956 118.708 22.0493Z" fill="#EA00A4"/>
<path d="M131.346 13.034C131.339 13.5932 130.965 14.1132 130.438 14.3056C129.893 14.5015 129.31 14.3554 128.929 13.9209C128.548 13.4899 128.48 12.8772 128.744 12.3714C128.882 12.1043 129.085 11.9974 129.37 12.0616C129.879 12.1755 130.388 12.2931 130.894 12.4249C131.25 12.5175 131.353 12.6742 131.349 13.034H131.346Z" fill="#EA00A4"/>
<path d="M83.5033 52.5359C84.0195 52.543 84.5001 52.8742 84.6924 53.3587C84.8917 53.8751 84.7849 54.3382 84.4182 54.7371C84.0622 55.1218 83.5033 55.2144 83.0085 55.047C82.535 54.8867 82.4994 54.4914 82.4425 54.0995C82.4175 53.9321 82.4318 53.7612 82.4318 53.5902C82.4318 52.9099 82.8234 52.5252 83.5033 52.5359Z" fill="#EA00A4"/>
<path d="M95.2477 70.3486C94.7814 70.3023 94.2011 70.4127 93.6208 70.2845C93.3538 70.224 93.336 70.1242 93.4179 69.907C93.6778 69.1946 94.4396 68.6745 95.2477 68.671C96.0879 68.6638 96.8461 69.1661 97.1274 69.8963C97.2555 70.224 97.1309 70.3486 96.8105 70.3486C96.3264 70.3486 95.8422 70.3486 95.2477 70.3486Z" fill="#EA00A4"/>
<path d="M90.3706 67.9122C91.4136 67.9015 92.2538 68.6353 92.3784 69.5792C92.4354 70.0244 92.3535 70.1028 91.9085 70.0209C90.9615 69.8463 90.0502 69.5543 89.1744 69.1518C88.8505 69.0022 88.822 68.8348 89.0534 68.5783C89.4343 68.1544 89.9113 67.9407 90.3741 67.9122H90.3706Z" fill="#EA00A4"/>
<path d="M89.9754 43.9727C90.6269 43.9727 91.1359 44.482 91.1288 45.1338C91.1253 45.7857 90.6091 46.2879 89.9576 46.2772C89.3239 46.2701 88.8291 45.7714 88.8255 45.1374C88.8184 44.4856 89.3239 43.9727 89.9754 43.9727Z" fill="#EA00A4"/>
<path d="M108.715 28.6495C108.715 29.2942 108.224 29.7786 107.579 29.7786C106.917 29.7786 106.426 29.2799 106.44 28.6103C106.451 27.9691 106.949 27.4954 107.597 27.5025C108.238 27.5096 108.719 28.0012 108.715 28.6495Z" fill="#EA00A4"/>
<path d="M114.909 54.0924C114.877 54.8084 114.589 55.3961 113.97 55.8021C113.731 55.9589 113.638 55.9268 113.61 55.6169C113.517 54.6338 113.389 53.6543 113.286 52.6712C113.268 52.5109 113.201 52.2937 113.361 52.1939C113.514 52.1013 113.688 52.2224 113.838 52.3079C114.528 52.6962 114.87 53.3017 114.909 54.0924Z" fill="#EA00A4"/>
<path d="M85.4684 49.0345C85.479 49.6472 84.9557 50.1814 84.3398 50.1814C83.7418 50.1814 83.2256 49.6721 83.2113 49.0737C83.2007 48.461 83.724 47.9268 84.3398 47.9268C84.9379 47.9268 85.4541 48.4361 85.4684 49.0345Z" fill="#EA00A4"/>
<path d="M119.627 14.9717C120.214 14.9717 120.744 15.5024 120.744 16.0901C120.744 16.6779 120.21 17.2086 119.623 17.205C119.036 17.205 118.505 16.6743 118.505 16.0866C118.505 15.4989 119.039 14.9681 119.627 14.9717Z" fill="#EA00A4"/>
<path d="M102.026 31.4527C102.613 31.4527 103.144 31.9834 103.144 32.5711C103.144 33.1588 102.61 33.6895 102.022 33.686C101.435 33.686 100.905 33.1553 100.905 32.5675C100.905 31.9798 101.439 31.4491 102.026 31.4527Z" fill="#EA00A4"/>
<path d="M154.628 27.4063C154.628 26.6405 155.191 25.7607 155.949 25.4687C156.194 25.3725 156.344 25.3903 156.28 25.7109C156.063 26.8186 155.838 27.9228 155.639 29.0341C155.582 29.3547 155.465 29.3084 155.297 29.141C154.856 28.6993 154.621 28.165 154.628 27.4063Z" fill="#EA00A4"/>
<path d="M152.777 36.7598C152.976 36.0046 153.332 35.3635 154.062 34.9966C154.172 34.9432 154.301 34.8292 154.407 34.9218C154.464 34.9717 154.443 35.1355 154.425 35.2424C154.204 36.3786 153.973 37.5113 153.745 38.644C153.731 38.7117 153.731 38.7936 153.646 38.815C153.507 38.8506 153.439 38.7437 153.368 38.6618C152.909 38.1097 152.738 37.4686 152.777 36.7598Z" fill="#EA00A4"/>
<path d="M153.688 32.2648C153.756 31.3779 154.158 30.6441 155.037 30.2238C155.123 30.1811 155.248 30.1276 155.315 30.1597C155.433 30.2167 155.379 30.3663 155.361 30.466C155.141 31.5987 154.913 32.7314 154.681 33.8641C154.614 34.1882 154.45 34.035 154.333 33.9068C153.927 33.4616 153.717 32.9308 153.692 32.2648H153.688Z" fill="#EA00A4"/>
<path d="M155.55 22.8257C155.571 21.8284 156.13 21.0092 156.889 20.7278C157.109 20.6459 157.234 20.6245 157.173 20.9415C156.96 22.0528 156.771 23.1641 156.558 24.2754C156.49 24.6209 156.301 24.4037 156.202 24.3039C155.749 23.8658 155.532 23.3244 155.55 22.8222V22.8257Z" fill="#EA00A4"/>
<path d="M123.414 46.8151C123.414 47.2461 123.414 47.5844 123.414 47.9264C123.414 48.1793 123.3 48.2292 123.097 48.108C122.467 47.7305 122.122 47.1677 122.083 46.4375C122.044 45.6539 122.361 45.0341 123.008 44.5924C123.197 44.4642 123.339 44.4749 123.325 44.7492C123.29 45.4722 123.489 46.1846 123.411 46.8186L123.414 46.8151Z" fill="#EA00A4"/>
<path d="M156.451 18.0599C156.447 17.2798 156.981 16.4428 157.668 16.14C157.878 16.0474 158.056 16.0153 158.003 16.3288C157.821 17.3724 157.611 18.4125 157.433 19.4562C157.376 19.7945 157.262 19.7055 157.095 19.5488C156.721 19.2068 156.454 18.5942 156.451 18.0563V18.0599Z" fill="#EA00A4"/>
<path d="M128.455 32.069C128.416 32.7564 128.117 33.2765 127.54 33.6291C127.323 33.7609 127.188 33.7288 127.202 33.4403C127.238 32.5463 127.06 31.6594 127.113 30.7653C127.138 30.3415 127.22 30.2845 127.583 30.516C128.153 30.8793 128.434 31.41 128.459 32.069H128.455Z" fill="#EA00A4"/>
<path d="M100.257 51.4779C100.253 52.3506 99.7582 53.0131 99.1032 53.1912C98.8397 53.2624 98.7223 53.209 98.7792 52.9098C98.9323 52.0906 98.9643 51.2607 99.0035 50.4307C99.0213 50.0567 99.1067 49.9997 99.4307 50.1885C99.9789 50.5091 100.239 51.0006 100.257 51.4779Z" fill="#EA00A4"/>
<path d="M109.402 44.6637C109.402 44.7065 109.409 44.7492 109.402 44.792C109.374 44.9807 109.502 45.2408 109.302 45.3405C109.096 45.4402 108.907 45.2408 108.74 45.1161C107.807 44.4037 107.868 42.9433 108.854 42.32C108.961 42.2523 109.068 42.1561 109.203 42.2131C109.359 42.2772 109.317 42.4304 109.313 42.5479C109.288 43.2568 109.345 43.962 109.402 44.6673V44.6637Z" fill="#EA00A4"/>
<path d="M141.898 34.5375C141.898 34.0245 141.901 33.5152 141.898 33.0023C141.898 32.7244 141.979 32.671 142.218 32.8313C143.314 33.5686 143.318 35.4849 142.222 36.2329C141.997 36.3861 141.894 36.3683 141.894 36.0726C141.898 35.5597 141.894 35.0504 141.894 34.5375H141.898Z" fill="#EA00A4"/>
<path d="M93.8522 51.7126C93.8522 52.2754 93.6991 52.368 93.1971 52.083C92.6525 51.7767 92.3926 51.303 92.4211 50.6725C92.4495 50.0884 92.7486 49.6859 93.247 49.4187C93.5389 49.262 93.6742 49.3154 93.6884 49.6859C93.7169 50.3626 93.7952 51.0394 93.8522 51.7162V51.7126Z" fill="#EA00A4"/>
<path d="M91.7982 40.4358C91.7982 40.9879 91.3781 41.3975 90.8263 41.394C90.2745 41.394 89.8651 40.9772 89.8687 40.4216C89.8687 39.8695 90.2888 39.4598 90.8406 39.4634C91.3923 39.4634 91.8017 39.8837 91.7982 40.4358Z" fill="#EA00A4"/>
<path d="M109.395 23.8872C109.381 24.418 108.918 24.8454 108.384 24.8169C107.868 24.792 107.459 24.3432 107.473 23.8303C107.487 23.2995 107.95 22.8721 108.484 22.897C109 22.922 109.409 23.3708 109.395 23.8872Z" fill="#EA00A4"/>
<path d="M85.1978 45.2624C84.6816 45.2624 84.2794 44.8599 84.2865 44.3435C84.2936 43.8448 84.6888 43.4565 85.1836 43.4565C85.6998 43.4565 86.1021 43.859 86.0949 44.3755C86.0878 44.8742 85.6927 45.2624 85.1978 45.2624Z" fill="#EA00A4"/>
<path d="M158.53 12.375C158.558 13.1444 158.338 13.8888 158.273 14.6475C158.256 14.8577 158.156 14.8541 158.028 14.7366C157.084 13.8497 157.22 12.3537 158.249 11.6128C158.448 11.4703 158.53 11.5629 158.53 11.7766C158.53 11.9761 158.53 12.1756 158.53 12.375Z" fill="#EA00A4"/>
<path d="M103.76 27.773C103.767 28.2859 103.393 28.667 102.884 28.667C102.371 28.667 101.994 28.293 101.997 27.7801C101.997 27.285 102.36 26.9181 102.852 26.9075C103.364 26.8968 103.752 27.2636 103.76 27.773Z" fill="#EA00A4"/>
<path d="M125.265 13.3579C124.806 13.3579 124.308 13.0195 124.165 12.617C124.098 12.4247 124.119 12.268 124.34 12.2288C124.92 12.1255 125.497 11.9902 126.088 11.9581C126.39 11.9438 126.494 12.0721 126.433 12.3713C126.319 12.9305 125.824 13.3579 125.262 13.3579H125.265Z" fill="#EA00A4"/>
<path d="M114.432 24.6458C114.429 25.294 113.984 25.8176 113.418 25.9138C113.147 25.9601 112.955 25.9138 113.019 25.579C113.133 24.9556 113.243 24.3359 113.375 23.7161C113.425 23.481 113.617 23.5558 113.749 23.6271C114.183 23.8586 114.414 24.2219 114.432 24.6458Z" fill="#EA00A4"/>
<path d="M137.978 42.4625C137.935 43.4492 137.896 44.4394 137.854 45.4261C137.854 45.5044 137.875 45.6113 137.768 45.6398C137.672 45.6647 137.619 45.5757 137.562 45.5187C136.75 44.7208 136.846 43.0503 137.74 42.3343C137.804 42.2809 137.868 42.1954 137.957 42.2381C138.049 42.2809 138.017 42.3842 137.978 42.4625Z" fill="#EA00A4"/>
<path d="M84.1833 58.6797C84.1655 59.0181 84.0338 59.3743 83.7454 59.6521C83.5354 59.8551 83.4286 59.7982 83.3538 59.5096C83.1794 58.8364 83.0512 58.1561 82.9088 57.4793C82.8341 57.1303 83.0192 57.1908 83.2079 57.2443C83.749 57.3939 84.1833 58.0136 84.1833 58.6762V58.6797Z" fill="#EA00A4"/>
<path d="M134.828 15.424C133.916 15.4383 133.147 14.6689 133.19 13.8497C133.204 13.5896 133.261 13.4685 133.546 13.6538C134.069 13.9957 134.546 14.3946 135.009 14.815C135.137 14.9325 135.362 15.0536 135.269 15.2602C135.187 15.4383 134.952 15.4027 134.831 15.4276L134.828 15.424Z" fill="#EA00A4"/>
<path d="M112.763 29.49C112.763 29.1766 112.763 28.8667 112.763 28.5532C112.763 28.2683 112.916 28.2398 113.119 28.3751C113.535 28.6423 113.738 29.0519 113.727 29.5292C113.717 30.0029 113.5 30.4054 113.072 30.6583C112.859 30.7866 112.756 30.7189 112.759 30.4695C112.759 30.1419 112.759 29.8177 112.759 29.49H112.763Z" fill="#EA00A4"/>
<path d="M91.6024 34.936C92.0225 34.936 92.3215 35.2459 92.3108 35.6662C92.3002 36.0652 92.0011 36.3537 91.5988 36.3537C91.1823 36.3537 90.8797 36.0438 90.8904 35.6235C90.9011 35.2246 91.2001 34.936 91.6024 34.936Z" fill="#EA00A4"/>
<path d="M105.97 39.6806C105.543 39.6592 105.169 39.5096 104.877 39.1926C104.813 39.1214 104.721 39.0466 104.774 38.9361C104.817 38.8471 104.92 38.8685 105.002 38.8685C105.629 38.8685 106.252 38.8685 106.878 38.8685C106.971 38.8685 107.095 38.8435 107.127 38.9718C107.152 39.075 107.074 39.1605 107.006 39.2282C106.725 39.5167 106.373 39.6521 105.974 39.6806H105.97Z" fill="#EA00A4"/>
<path d="M86.6966 39.5848C86.6895 39.9445 86.4011 40.2259 86.038 40.2224C85.6749 40.2152 85.3936 39.9267 85.4008 39.5634C85.4079 39.2036 85.6962 38.9223 86.0594 38.9258C86.4225 38.9329 86.7037 39.2215 86.6966 39.5848Z" fill="#EA00A4"/>
<path d="M96.7607 41.1409C96.7465 41.718 96.5685 42.0457 96.2339 42.2807C96.063 42.3983 95.9348 42.3805 95.9348 42.1383C95.9348 41.6111 95.9348 41.0875 95.9419 40.5603C95.9419 40.4428 95.9847 40.3074 96.0843 40.2647C96.2196 40.2041 96.3193 40.3324 96.4047 40.4214C96.6433 40.6672 96.7714 40.9593 96.7643 41.1409H96.7607Z" fill="#EA00A4"/>
<path d="M104.269 23.0824C104.276 23.4314 104.009 23.7093 103.66 23.7128C103.311 23.72 103.033 23.4528 103.03 23.1037C103.023 22.7547 103.29 22.4768 103.638 22.4733C103.987 22.4662 104.265 22.7333 104.269 23.0824Z" fill="#EA00A4"/>
<path d="M105.34 65.5724C104.899 66.267 104.29 66.7728 103.728 67.3213C103.574 67.4674 103.55 67.3071 103.55 67.186C103.56 66.438 104.532 65.5439 105.34 65.5724Z" fill="#EA00A4"/>
<path d="M98.1242 27.5629C97.7718 27.5344 97.5653 27.3706 97.5618 27.0286C97.5618 26.6902 97.7469 26.4943 98.0851 26.4908C98.4233 26.4872 98.6191 26.676 98.6262 27.0144C98.6333 27.3599 98.4268 27.5202 98.1242 27.5629Z" fill="#EA00A4"/>
<path d="M137.747 20.863C137.038 20.5033 136.672 19.4418 136.996 18.847C137.028 18.79 137.049 18.7081 137.142 18.7223C137.227 18.7366 137.238 18.8149 137.259 18.8791C137.487 19.5024 137.601 20.1507 137.743 20.863H137.747Z" fill="#EA00A4"/>
<path d="M115.127 19.9907C115.095 20.4466 114.917 20.7636 114.543 20.9524C114.436 21.0058 114.308 21.0984 114.19 20.9844C114.087 20.8847 114.173 20.7707 114.208 20.671C114.336 20.329 114.465 19.9871 114.61 19.6523C114.657 19.5454 114.678 19.3744 114.831 19.3816C114.97 19.3887 115.016 19.5418 115.055 19.663C115.095 19.7805 115.112 19.9087 115.13 19.9907H115.127Z" fill="#EA00A4"/>
<path d="M127.227 37.9141V35.6665C127.814 36.1046 127.839 37.2231 127.227 37.9141Z" fill="#EA00A4"/>
</svg>
