<svg width="1894" height="1894" viewBox="0 0 1894 1894" fill="none" xmlns="http://www.w3.org/2000/svg">
<path d="M1517.28 1689.51L1061.03 1871.98C987.625 1901.33 905.738 1901.33 832.33 1871.98L376.098 1689.52C337.369 1674.03 302.19 1650.83 272.695 1621.34C243.201 1591.84 220.006 1556.66 204.517 1517.93L22.0552 1061.68C-7.30184 988.27 -7.30095 906.383 22.0578 832.976L204.52 376.753C220.008 338.028 243.201 302.853 272.691 273.361C302.182 243.869 337.356 220.674 376.08 205.184L832.312 22.6913C905.731 -6.67518 987.632 -6.67518 1061.05 22.6913L1517.29 205.188C1556.01 220.677 1591.19 243.868 1620.68 273.357C1650.16 302.846 1673.36 338.018 1688.85 376.738L1871.34 832.957C1900.71 906.376 1900.71 988.278 1871.34 1061.7L1688.85 1517.95C1673.36 1556.67 1650.16 1591.85 1620.67 1621.34C1591.18 1650.83 1556 1674.02 1517.28 1689.51Z" fill="#50FA7B"/>
<ellipse cx="676.175" cy="1488.34" rx="135.254" ry="135.253" fill="black"/>
<ellipse cx="404.38" cy="949.904" rx="135.283" ry="135.283" fill="black"/>
<ellipse cx="1487.7" cy="950.208" rx="135.254" ry="135.253" fill="black"/>
<ellipse cx="1217.19" cy="406.315" rx="135.254" ry="135.253" fill="black"/>
<ellipse cx="1217.19" cy="1488.34" rx="135.254" ry="135.253" fill="black"/>
<ellipse cx="676.175" cy="406.315" rx="135.254" ry="135.253" fill="black"/>
<path d="M463.777 979.744L403.348 949.385L342.917 919.026L615.745 375.957L676.175 406.316L736.604 436.674L463.777 979.744Z" fill="black"/>
<path d="M1428.43 979.744L1488.86 949.385L1549.29 919.026L1276.46 375.957L1216.03 406.316L1155.6 436.674L1428.43 979.744Z" fill="black"/>
<path d="M1277.9 1518.85L1217.47 1488.49L1157.04 1458.13L1427.43 919.929L1487.85 950.288L1548.28 980.646L1277.9 1518.85Z" fill="black"/>
<path d="M615.682 1518.85L676.111 1488.49L736.542 1458.13L466.16 919.929L405.73 950.288L345.301 980.646L615.682 1518.85Z" fill="black"/>
</svg>
