<svg width="431" height="491" viewBox="0 0 431 491" fill="none" xmlns="http://www.w3.org/2000/svg">
<g clip-path="url(#clip0_65_13505)">
<path d="M371.19 244.82C371.19 244.82 371.17 244.77 371.17 244.74C371.09 244.48 371 244.21 370.91 243.95C370.71 243.33 370.49 242.7 370.26 242.06C370.22 241.94 370.18 241.83 370.13 241.71C367.24 233.81 362.47 224.63 355.87 214.3L357.58 207.67C358.81 205.96 360.03 204.26 361.23 202.59C382.54 172.81 398.05 149.4 412.85 124.61C415.62 119.98 418.35 115.32 421.08 110.59C432.08 91.4902 433.63 68.4402 425.48 48.1102C424.94 46.7502 424.35 45.4102 423.72 44.0802C414.49 24.5902 397.04 10.3702 376.34 5.14023C374.4 4.65023 372.43 4.23023 370.44 3.90023C369.34 3.72023 368.22 3.56023 367.11 3.39023C359.13 2.17023 350.85 1.28023 342.32 0.720234C335.14 0.250234 327.81 -0.00976562 320.33 -0.00976562H320.27C319.64 -0.00976562 319.01 0.0102344 318.37 0.0202344C317.44 0.0302344 316.51 0.0402344 315.58 0.0702344C314.94 0.0902344 314.3 0.130234 313.67 0.160234C312.73 0.200234 311.8 0.240234 310.86 0.300234C310.2 0.340234 309.54 0.400234 308.87 0.450234C307.97 0.520234 307.07 0.580234 306.17 0.670234C305.46 0.740234 304.76 0.820234 304.05 0.900234C303.21 0.990234 302.37 1.08023 301.53 1.19023C300.76 1.29023 299.99 1.40023 299.23 1.51023C298.48 1.62023 297.72 1.72023 296.97 1.84023C296.11 1.97023 295.26 2.12023 294.41 2.27023C293.77 2.38023 293.13 2.49023 292.49 2.61023C291.53 2.79023 290.56 2.98023 289.6 3.18023C289.11 3.28023 288.62 3.39023 288.13 3.49023C287.03 3.73023 285.94 3.98023 284.84 4.24023C284.53 4.32023 284.22 4.39023 283.91 4.47023C282.65 4.78023 281.38 5.11023 280.13 5.46023C280.05 5.48023 279.98 5.50023 279.9 5.52023C268.07 8.79023 256.6 13.4802 245.8 19.5302C236.98 24.4702 228.68 30.2902 221.01 36.8502C220.87 36.9702 220.73 37.1002 220.59 37.2202C219.61 38.0702 218.63 38.9202 217.66 39.7902C217.32 40.1002 216.98 40.4202 216.64 40.7302C215.87 41.4402 215.1 42.1402 214.35 42.8602C213.71 43.4702 213.08 44.1002 212.45 44.7302C212 45.1802 211.53 45.6202 211.08 46.0802C207.9 49.3102 204.85 52.6802 201.94 56.2002L185.82 55.6602C184.61 55.6202 183.41 55.6102 182.2 55.6002C182.16 55.6002 182.11 55.6002 182.07 55.6002C156.97 55.5902 132.75 63.8902 112.97 79.2602C112.65 79.4802 112.33 79.6902 112.01 79.9302C111.75 80.1202 111.5 80.3302 111.24 80.5302C110.96 80.7502 110.68 80.9602 110.41 81.1902C109.93 81.5902 109.46 82.0002 109.01 82.4102C108.99 82.4302 108.96 82.4502 108.94 82.4802C108.62 82.7802 108.3 83.0802 107.99 83.3902C105.67 85.4102 103.45 87.5402 101.3 89.7402C101.3 89.7402 101.3 89.7402 101.29 89.7502C100.51 90.5502 99.7504 91.3502 99.0004 92.1702C98.7804 92.4102 98.5704 92.6502 98.3504 92.8902C97.7904 93.5102 97.2404 94.1302 96.6904 94.7602C96.2504 95.2702 95.8204 95.7902 95.3904 96.3102C95.0604 96.7102 94.7304 97.1002 94.4004 97.5002C93.7204 98.3402 93.0504 99.1902 92.4004 100.06C92.3204 100.17 92.2304 100.28 92.1404 100.39C90.5804 102.46 89.0804 104.58 87.6504 106.77L86.0904 109.17C73.1004 106.97 59.2204 112.26 50.6504 123.68C50.3804 124.04 50.1104 124.4 49.8504 124.78C49.7304 124.96 49.5904 125.13 49.4704 125.31C49.3404 125.5 49.2404 125.7 49.1104 125.89C48.8804 126.25 48.6504 126.61 48.4404 126.97C40.8904 139.56 41.4504 154.9 48.9504 166.18L40.1604 179.68C38.2704 182.59 36.6204 185.6 35.2004 188.7C29.6304 200.81 27.7004 214.14 29.5504 227.18C30.4604 233.59 32.2704 239.93 35.0104 246.02L46.7304 273.88L52.2204 286.92C52.0104 286.96 51.7904 287 51.5804 287.03C51.4904 287.05 51.4004 287.06 51.3104 287.08C50.8004 287.17 50.2904 287.27 49.7804 287.38C49.6704 287.4 49.5504 287.43 49.4404 287.45C48.9404 287.56 48.4404 287.67 47.9304 287.79C47.8004 287.82 47.6704 287.85 47.5504 287.88C47.0404 288 46.5404 288.13 46.0204 288.26C45.9104 288.29 45.7904 288.32 45.6704 288.36C45.1404 288.5 44.6004 288.65 44.0604 288.81C44.0104 288.83 43.9504 288.84 43.9004 288.86C42.0004 289.42 40.0504 290.08 38.0504 290.84C21.8204 297.04 9.6604 310.87 3.7904 329.78C-0.0395999 342.12 -0.9396 356.12 1.0404 370.32C1.7504 375.41 2.8204 380.52 4.2804 385.6C6.9504 394.91 10.4304 402.7 14.3004 409.23C14.3404 409.3 14.3904 409.38 14.4304 409.45C14.7704 410.02 15.1104 410.58 15.4604 411.12C15.5604 411.28 15.6604 411.45 15.7704 411.61C16.0404 412.03 16.3104 412.45 16.5904 412.86C16.7704 413.13 16.9404 413.39 17.1204 413.66C17.2404 413.83 17.3504 414 17.4704 414.16C23.9204 423.51 31.9004 430.96 41.1404 436.19C41.6104 438.65 42.2904 441.09 43.1704 443.48C49.3404 460.14 64.1804 470.75 79.2504 470.75C82.9204 470.75 86.6004 470.12 90.1704 468.8C99.6204 465.3 106.94 457.44 110.25 447.22C111.83 442.33 112.44 437.1 112.11 431.83C116.19 428.52 119.77 424.63 122.78 420.18C135.84 435.05 149.78 444.65 162.98 451.76C171.05 456.11 178.84 459.53 185.98 462.67C190.54 464.67 194.85 466.57 198.68 468.47L200.49 469.37C208.88 473.56 219.54 478.87 232.23 483.14C244.92 487.41 259.65 490.63 276.19 490.63C284.49 490.63 293.25 489.82 302.44 487.92C355.83 476.89 391.15 426.92 399.35 350.8C400.69 338.36 399.52 326.32 397.26 315.6C393.38 297.22 386.27 282.72 383.03 276.73C381.36 268.66 377.72 254.66 371.22 244.81L371.19 244.82Z" fill="white"/>
<path d="M86.1513 425.64C77.1113 428.05 67.3213 427.89 58.0213 424.69C42.4113 419.35 28.1613 405.46 21.0913 380.78C11.6613 347.91 21.1813 316.03 44.2813 307.2C59.2313 301.5 70.0013 303.2 77.6813 307.75C91.3613 315.88 95.1613 333.02 95.1613 333.02L113.101 355.98C113.101 355.98 113.891 361.8 116.201 370.09C116.211 370.1 116.211 370.12 116.211 370.12C118.101 388.49 114.971 417.99 86.1513 425.64Z" fill="#FFD4AD"/>
<path d="M116.202 370.09C113.892 361.81 113.102 355.98 113.102 355.98C114.132 358.06 115.512 363.31 116.202 370.09Z" fill="#160830"/>
<path d="M405.902 101.86C386.872 134.92 368.172 163.1 341.722 199.75C341.702 199.63 341.672 199.52 341.642 199.4C338.952 186.76 334.692 178.36 329.502 168.75C325.212 160.83 316.462 156.4 307.552 157.58C267.322 162.89 231.822 172.27 201.312 186.08C176.432 197.34 154.362 213.98 136.182 234.38L107.532 268.2L77.9922 303.07C125.362 217.65 163.982 147.17 204.892 81.9501C206.602 79.23 208.392 76.59 210.262 74.0101C235.802 38.9201 276.552 17.4901 320.312 17.5201C336.942 17.5201 352.702 18.7301 367.572 21.1901C404.992 27.3601 424.822 69.0101 405.892 101.87L405.902 101.86Z" fill="#160830"/>
<path d="M210.26 74.0002C208.38 76.5802 206.601 79.2202 204.891 81.9402C163.98 147.16 125.361 217.64 77.9905 303.06L51.0505 239.03C43.7105 222.88 45.1405 204.1 54.8205 189.23L72.0305 162.81C70.8505 162.61 69.5605 162.08 68.1505 161.13C59.9005 155.59 58.0505 143.92 64.0005 135.05C69.9505 126.19 81.4605 123.5 89.7005 129.02C90.9105 129.83 91.7905 130.64 92.4405 131.48L102.321 116.31C107.301 108.67 113.271 101.91 119.981 96.1302C119.971 96.1202 119.981 96.1202 120.011 96.1102C137.851 80.7502 161.051 72.3402 185.221 73.1502L210.26 73.9902V74.0002Z" fill="#F75BC8"/>
<path d="M123.242 93.4399C122.072 94.1999 120.992 95.1099 120.012 96.1199L123.242 93.4399Z" fill="#160830"/>
<path d="M349.111 274.9C337.261 287.11 320.501 289.43 299.061 288.06C290.751 278.22 278.921 269.46 268.871 259.75C264.261 252.91 264.031 250.64 263.591 246.5C263.271 243.42 264.791 240.43 267.461 238.86C289.061 226.2 311.551 218.57 336.181 216.29C336.451 216.68 336.711 217.07 336.981 217.47C344.801 228.96 352.291 241.92 354.981 251.72C355.071 252.02 355.141 252.31 355.211 252.61C357.091 260.57 354.821 269.01 349.101 274.91L349.111 274.9Z" fill="white"/>
<path d="M268.901 259.79C268.901 259.79 268.881 259.76 268.881 259.75L268.901 259.79Z" fill="#160830"/>
<path d="M366.382 282.88C364.952 275.13 361.042 259.6 355.221 252.6C357.102 260.56 354.831 269 349.111 274.9C337.261 287.11 320.501 289.43 299.061 288.06C290.751 278.22 278.921 269.46 268.871 259.75C264.261 252.91 264.031 250.64 263.591 246.5C263.271 243.42 264.791 240.43 267.461 238.86C289.061 226.2 311.551 218.57 336.181 216.29C336.451 216.68 336.712 217.07 336.982 217.47L341.632 199.4C338.941 186.76 334.681 178.36 329.491 168.75C325.201 160.83 316.452 156.4 307.542 157.58C267.312 162.89 231.811 172.27 201.301 186.08C176.421 197.34 154.351 213.98 136.171 234.38L107.521 268.2C107.631 269.32 110.661 280.77 115.761 296.13C127.231 330.66 149.181 384.89 172.211 385.56C194.981 386.23 206.951 346.14 231.741 344.44C247.671 343.35 284.352 359.61 301.811 335.97C312.781 324.46 323.591 344.6 344.132 337.8C369.362 329.44 366.361 282.89 366.361 282.89L366.382 282.88ZM251.371 288.93C250.451 296.44 246.811 303.57 240.621 307.95C217.871 324.07 196.431 325.9 175.461 319.11C169.861 317.3 165.231 313.35 162.711 308.02C156.851 295.62 152.241 277.51 152.191 259.44C176.311 244.38 202.462 241.82 235.971 244.69C239.721 245.01 242.901 247.63 243.981 251.25C247.941 264.54 252.671 278.36 251.382 288.93H251.371Z" fill="#FFD4AD"/>
<path d="M251.371 288.93C250.451 296.44 246.811 303.57 240.621 307.95C217.871 324.07 196.431 325.9 175.461 319.11C169.861 317.3 165.231 313.35 162.711 308.02C156.851 295.62 152.241 277.51 152.191 259.44C176.311 244.38 202.461 241.82 235.971 244.69C239.721 245.01 242.901 247.63 243.981 251.25C247.941 264.54 252.671 278.36 251.381 288.93H251.371Z" fill="white"/>
<path d="M381.932 348.93C376.302 401.22 354.112 459.37 298.882 470.78C257.792 479.27 226.672 462.85 206.462 452.8C186.132 442.69 158.422 435.04 134.742 407.28C124.872 395.7 119.252 380.85 116.212 370.11C116.212 370.11 116.212 370.1 116.202 370.08C115.512 363.31 114.132 358.05 113.102 355.97L95.1616 333.01C95.1616 333.01 91.3616 315.87 77.6816 307.74L77.9816 303.05L107.522 268.18C107.632 269.3 110.662 280.75 115.762 296.11C127.232 330.64 149.182 384.87 172.212 385.54C194.982 386.21 206.952 346.12 231.742 344.42C247.672 343.33 284.352 359.59 301.812 335.95C312.782 324.44 323.592 344.58 344.132 337.78C369.362 329.42 366.362 282.87 366.362 282.87C366.362 282.87 385.612 314.56 381.912 348.93H381.932Z" fill="#EA6C17"/>
<path d="M80.1315 347.28C75.8615 349.22 71.7215 351.46 67.7315 353.97C66.3915 350.33 65.2715 346.61 64.3815 342.83C63.6215 339.61 60.3915 337.61 57.1615 338.37C53.9415 339.13 51.9415 342.37 52.7015 345.59C53.9515 350.88 55.6115 356.08 57.6415 361.14C52.7915 365.02 48.2715 369.3 44.1915 373.93C42.0015 376.42 42.2415 380.21 44.7215 382.4C45.8615 383.41 47.2815 383.9 48.6915 383.9C50.3515 383.9 52.0115 383.21 53.1915 381.87C56.1715 378.49 59.4215 375.31 62.8815 372.38C66.3815 378.91 70.5415 385.1 75.2815 390.79C76.4715 392.22 78.1715 392.95 79.9015 392.95C81.2515 392.95 82.6115 392.5 83.7315 391.56C86.2815 389.44 86.6215 385.66 84.5115 383.11C79.9015 377.57 75.9215 371.51 72.6315 365.09C76.6315 362.48 80.8115 360.16 85.1315 358.19C88.1415 356.81 89.4715 353.26 88.1015 350.24C86.7315 347.23 83.1715 345.9 80.1515 347.27L80.1315 347.28Z" fill="#160830"/>
<path d="M203.791 191.53C233.181 178.23 268.351 168.81 308.331 163.52C314.751 162.67 321.141 165.92 324.211 171.6C329.441 181.26 333.341 189.02 335.851 200.98C336.341 203.31 338.151 205.12 340.481 205.62C342.801 206.11 345.201 205.19 346.591 203.26C374.571 164.5 392.661 136.91 411.111 104.86C421.111 87.5002 421.911 67.1402 413.331 49.0102C404.851 31.1002 388.111 18.4802 368.571 15.2502C353.521 12.7602 337.291 11.5002 320.331 11.4902H320.271C296.301 11.4902 272.501 17.7402 251.421 29.5502C234.311 39.1502 219.261 52.2602 207.341 67.8902L185.431 67.1502C161.701 66.3402 138.641 74.0802 120.251 88.2402C120.171 88.2902 120.091 88.3302 120.021 88.3702C118.411 89.4102 116.921 90.6802 115.561 92.0802C108.601 98.1302 102.431 105.15 97.3013 113.03L89.0912 125.63C78.6512 119.59 65.4613 122.13 59.0413 131.69C55.7213 136.61 54.6813 142.61 56.1113 148.57C57.4113 154 60.6512 158.79 65.2812 162.19L49.8113 185.94C38.9613 202.58 37.3713 223.31 45.5613 241.41L69.4813 298.29C61.3013 296.67 52.1513 297.77 42.1513 301.59C16.4613 311.41 4.93125 346.16 15.3313 382.43C22.4113 407.14 36.3512 421.81 51.8512 428.62C51.9412 432.24 52.6413 435.92 53.9513 439.48C58.4013 451.51 68.8213 459.26 79.1813 459.26C81.5413 459.26 83.9013 458.86 86.1813 458.01C92.3112 455.74 97.0912 450.51 99.3112 443.67C101.041 438.33 101.131 432.36 99.6613 426.53C107.351 422.03 113.221 415.41 117.171 406.73C118.601 403.58 119.711 400.3 120.541 396.97C123.231 401.89 126.411 406.73 130.191 411.17C149.851 434.22 172.441 444.14 190.581 452.11C195.281 454.17 199.711 456.12 203.791 458.15L205.631 459.07C222.341 467.4 245.861 479.14 275.981 479.14C283.601 479.14 291.641 478.39 300.101 476.64C327.091 471.06 348.661 454.77 364.191 428.2C379.631 401.79 385.611 370.85 387.901 349.56C391.771 313.59 372.341 281.12 371.511 279.75C370.081 277.39 367.221 276.32 364.581 277.14C361.951 277.97 360.221 280.49 360.391 283.24C361.121 294.91 359.291 326.41 342.261 332.06C334.231 334.72 328.271 332.25 321.961 329.64C319.251 328.52 316.291 327.29 313.191 326.69C317.531 314.09 315.691 303.58 310.701 294.38C326.001 294.22 341.661 291.16 353.421 279.04C360.791 271.44 363.611 260.34 360.781 250.07C357.491 238.13 348.281 223.24 341.141 212.84C339.911 211.05 337.801 210.06 335.641 210.26C310.591 212.59 287.301 220.24 264.441 233.64C263.831 234 263.251 234.4 262.711 234.84C261.251 234.33 259.411 233.86 257.281 233.7C256.101 230.48 255.401 227.09 255.301 223.49C255.211 220.24 252.541 217.66 249.311 217.66C249.251 217.66 249.191 217.66 249.141 217.66C245.831 217.75 243.221 220.52 243.311 223.83C243.431 228.22 244.211 232.33 245.481 236.21C243.051 237.31 241.181 238.48 239.921 239.36C238.831 239 237.681 238.77 236.491 238.67C197.581 235.33 172.251 239.84 149.121 254.25C148.741 254.48 148.391 254.75 148.071 255.05C148.031 255.09 147.991 255.13 147.951 255.17L118.501 284.83C116.111 277 114.671 271.55 114.431 270.27C114.391 270 114.331 269.74 114.261 269.49L140.721 238.25C158.831 217.97 180.051 202.24 203.811 191.48L203.791 191.53ZM56.5112 236.54C49.9813 222.18 51.2313 205.72 59.8512 192.51L79.0912 162.97L95.4313 137.88C95.4313 137.88 95.4313 137.88 95.4413 137.87L107.211 119.8C109.561 130.92 117.521 143.17 130.101 154.5C131.251 155.53 132.681 156.04 134.111 156.04C135.751 156.04 137.391 155.37 138.571 154.06C140.791 151.6 140.591 147.8 138.131 145.59C124.181 133.03 116.611 118.96 118.851 109.75C119.411 107.46 121.221 103.66 123.791 100.84C140.561 86.4202 162.461 78.4202 185.011 79.1702L199.251 79.6502C161.961 139.16 126.161 203.77 84.7412 278.51L78.7313 289.36L56.5913 236.71C56.5713 236.66 56.5513 236.61 56.5213 236.55L56.5112 236.54ZM87.8812 439.98C86.7913 443.36 84.7012 445.77 82.0013 446.77C76.0013 448.99 68.3113 443.75 65.1913 435.33C64.8413 434.37 64.5612 433.39 64.3412 432.41C67.5012 432.97 70.6713 433.25 73.8013 433.24C78.5513 433.24 83.2313 432.62 87.6813 431.44C87.9113 431.38 88.1413 431.3 88.3713 431.24C88.8713 434.3 88.7213 437.34 87.8713 439.98H87.8812ZM346.031 343.47C361.581 338.31 368.081 322.03 370.741 307.57C374.491 318.85 377.571 333.38 375.971 348.29C373.401 372.15 364.291 421.24 332.311 448.13L324.441 431.48C323.021 428.48 319.451 427.2 316.451 428.62C313.451 430.04 312.171 433.61 313.591 436.61L322.401 455.26C317.491 458.24 312.151 460.73 306.321 462.62L297.831 435.1C296.851 431.93 293.501 430.16 290.331 431.14C287.161 432.12 285.391 435.48 286.371 438.64L294.661 465.49C288.931 466.51 283.401 467.01 278.081 467.1L275.411 447.42C274.961 444.14 271.941 441.84 268.661 442.28C265.381 442.73 263.081 445.75 263.521 449.03L265.911 466.59C243.091 464.34 224.611 455.13 211.011 448.34L209.161 447.42C204.821 445.26 200.261 443.26 195.431 441.14C177.521 433.27 157.221 424.36 139.341 403.4C130.321 392.82 125.061 379.05 122.171 368.94C121.401 361.93 119.931 356.32 118.611 353.53C118.591 353.49 118.571 353.44 118.551 353.4C118.551 353.38 118.531 353.36 118.521 353.34C118.501 353.29 118.461 353.24 118.441 353.19C118.381 353.08 118.321 352.97 118.261 352.86C118.211 352.78 118.161 352.71 118.111 352.63C118.051 352.55 118.001 352.46 117.941 352.39C117.871 352.3 117.801 352.21 117.731 352.12C117.681 352.06 117.631 352 117.581 351.95C117.491 351.85 117.401 351.76 117.311 351.67C117.271 351.63 117.221 351.58 117.181 351.54C117.081 351.45 116.981 351.37 116.881 351.28C116.831 351.24 116.791 351.2 116.741 351.17C116.641 351.09 116.531 351.02 116.431 350.95C116.371 350.91 116.311 350.87 116.261 350.84C116.161 350.78 116.061 350.73 115.961 350.67C115.891 350.63 115.811 350.59 115.741 350.56C115.651 350.52 115.561 350.48 115.461 350.44C115.371 350.4 115.281 350.37 115.191 350.33C115.111 350.3 115.021 350.27 114.931 350.25C114.831 350.22 114.731 350.19 114.631 350.16C114.551 350.14 114.461 350.12 114.381 350.1C114.281 350.08 114.171 350.06 114.071 350.04C113.981 350.03 113.881 350.02 113.791 350.01C113.691 350 113.601 349.99 113.501 349.98C113.391 349.98 113.281 349.98 113.171 349.98C113.091 349.98 113.001 349.98 112.921 349.98C112.791 349.98 112.671 350 112.541 350.01C112.481 350.01 112.431 350.01 112.371 350.02C112.351 350.02 112.341 350.02 112.321 350.02C112.201 350.04 112.081 350.06 111.961 350.09C111.881 350.11 111.801 350.12 111.721 350.14C111.631 350.16 111.541 350.19 111.451 350.22C111.341 350.25 111.231 350.28 111.131 350.32C111.071 350.34 111.011 350.37 110.941 350.4C110.811 350.45 110.681 350.5 110.561 350.56C110.551 350.56 110.531 350.57 110.521 350.58C110.481 350.6 110.441 350.63 110.391 350.65C110.271 350.71 110.151 350.78 110.041 350.85C109.971 350.89 109.911 350.94 109.841 350.98C109.751 351.04 109.651 351.1 109.561 351.17C109.481 351.23 109.401 351.29 109.331 351.36C109.261 351.42 109.191 351.47 109.131 351.53C109.051 351.61 108.971 351.69 108.891 351.77C108.841 351.83 108.781 351.88 108.731 351.94C108.651 352.03 108.581 352.12 108.501 352.21C108.451 352.27 108.401 352.33 108.361 352.39C108.291 352.48 108.231 352.57 108.171 352.67C108.121 352.74 108.081 352.81 108.031 352.88C107.981 352.97 107.931 353.06 107.881 353.14C107.831 353.23 107.791 353.31 107.751 353.4C107.711 353.48 107.681 353.56 107.641 353.64C107.601 353.74 107.561 353.84 107.521 353.94C107.491 354.02 107.471 354.09 107.451 354.17C107.421 354.28 107.381 354.39 107.361 354.5C107.341 354.58 107.321 354.66 107.311 354.74C107.291 354.85 107.271 354.96 107.251 355.07C107.241 355.16 107.231 355.25 107.221 355.35C107.211 355.45 107.201 355.54 107.191 355.64C107.191 355.75 107.191 355.87 107.191 355.98C107.191 356.06 107.191 356.14 107.191 356.22C107.191 356.35 107.211 356.49 107.221 356.62C107.221 356.67 107.221 356.72 107.231 356.77C107.231 356.79 107.241 356.84 107.251 356.88C107.251 356.89 107.251 356.9 107.251 356.91C107.391 357.92 108.221 363.49 110.351 371.18C111.211 379.93 110.901 391.68 106.311 401.77C102.011 411.21 94.9413 417.12 84.6913 419.84C78.5413 421.47 71.9912 421.76 65.5312 420.49C66.7113 418.16 68.4513 416.48 70.5813 415.69C73.6913 414.54 75.2813 411.09 74.1213 407.98C72.9713 404.87 69.5213 403.28 66.4113 404.44C60.9913 406.45 56.6213 410.77 54.1513 416.48C42.6413 410.46 32.4813 398.51 26.9213 379.12C18.2513 348.89 26.6713 320.38 46.4913 312.8C57.3313 308.65 66.5113 308.52 73.7613 312.39C85.6413 318.74 89.3013 334.03 89.3713 334.33C90.0913 337.56 93.2912 339.59 96.5212 338.88C99.7612 338.16 101.801 334.96 101.081 331.73C101.001 331.37 100.131 327.6 97.9013 322.69L113.231 307.25C115.931 314.98 119.051 323.33 122.541 331.65C139.201 371.46 155.421 391.05 172.111 391.54C172.361 391.54 172.621 391.55 172.871 391.55C186.671 391.55 196.401 380.5 205.811 369.81C214.291 360.18 222.291 351.08 232.221 350.4C235.871 350.15 241.651 351.13 247.761 352.16C265.561 355.18 291.411 359.54 306.241 340.13C306.251 340.12 306.271 340.11 306.281 340.1C308.661 337.59 310.021 337.67 317.431 340.74C324.351 343.6 333.831 347.52 346.101 343.46L346.031 343.47ZM270.501 244.03C290.741 232.17 311.291 225.15 333.241 222.61C341.511 235 347.151 245.81 349.211 253.29C350.921 259.47 349.231 266.15 344.801 270.71C335.881 279.9 323.341 283.29 301.871 282.2C296.641 276.37 290.521 271.03 284.641 265.9C280.941 262.68 277.301 259.5 273.901 256.27C270.061 250.58 269.921 249.28 269.561 245.85C269.481 245.12 269.851 244.4 270.501 244.02V244.03ZM235.451 250.67C236.731 250.78 237.841 251.7 238.221 252.95C238.661 254.42 239.101 255.9 239.551 257.38C242.921 268.52 246.411 280.05 245.411 288.19C244.641 294.46 241.631 299.88 237.151 303.05C217.501 316.97 198.481 320.25 177.301 313.4C173.171 312.06 169.911 309.24 168.131 305.46C162.481 293.48 158.801 277.42 158.261 262.79C178.291 251.23 200.991 247.71 235.461 250.67H235.451ZM147.021 273.16C148.561 286.42 152.161 299.74 157.271 310.58C160.441 317.29 166.391 322.48 173.601 324.82C181.881 327.5 189.971 328.84 197.931 328.84C213.741 328.84 228.991 323.53 244.081 312.84C251.311 307.72 256.131 299.27 257.311 289.65C258.621 278.99 254.761 266.24 251.031 253.9C250.591 252.44 250.151 250.98 249.711 249.53C249.541 248.95 249.321 248.38 249.091 247.84C249.541 247.6 250.031 247.36 250.571 247.12C257.201 257.89 267.361 266.76 276.751 274.95C297.621 293.16 309.931 305.4 300.331 326.61C291.641 345.81 273.071 344.3 249.701 340.34C242.571 339.13 236.411 338.08 231.331 338.44C216.481 339.46 205.991 351.38 196.731 361.89C188.621 371.1 180.931 379.81 172.391 379.55C167.321 379.4 153.421 374.09 133.991 328.09C129.581 317.64 125.711 307.01 122.611 297.74L147.021 273.15V273.16ZM108.911 294.51L91.4413 312.11C89.4413 309.58 87.0513 307.12 84.2313 304.97L104.761 280.74C105.811 284.48 107.211 289.18 108.921 294.52L108.911 294.51ZM131.691 230.37C131.691 230.37 131.621 230.45 131.591 230.49L112.731 252.76C147.061 190.94 177.981 136.11 209.961 85.1402C211.031 83.4302 212.151 81.7602 213.291 80.1202L224.971 80.5102C228.301 80.6402 231.061 78.0302 231.171 74.7202C231.281 71.4102 228.691 68.6302 225.381 68.5202L222.351 68.4202C247.001 39.9902 282.331 23.5102 320.271 23.5102H320.331C336.641 23.5102 352.211 24.7302 366.621 27.1102C382.521 29.7402 395.591 39.6002 402.501 54.1602C409.381 68.6802 408.731 84.9802 400.731 98.8802C384.151 127.68 367.841 152.86 344.181 186.08C341.621 178.79 338.441 172.63 334.801 165.9C329.371 155.88 318.111 150.14 306.791 151.64C265.641 157.08 229.331 166.82 198.871 180.61C173.561 192.07 150.971 208.81 131.731 230.38L131.691 230.37Z" fill="#160830"/>
<g clip-path="url(#clip1_65_13505)">
<path d="M187.001 295.17C185.811 295.17 184.601 294.82 183.551 294.08C180.841 292.17 180.191 288.43 182.091 285.72C188.391 276.76 200.431 267.14 222.091 272.2C225.321 272.95 227.321 276.18 226.571 279.41C225.821 282.64 222.591 284.64 219.361 283.89C206.871 280.97 198.151 283.75 191.911 292.62C190.741 294.28 188.881 295.17 187.001 295.17Z" fill="#160830"/>
<path d="M301.751 265.05C300.561 265.05 299.351 264.7 298.301 263.96C295.591 262.05 294.941 258.31 296.841 255.6C301.311 249.25 309.821 242.42 325.041 245.97C328.271 246.72 330.271 249.95 329.521 253.18C328.771 256.41 325.541 258.41 322.311 257.66C312.981 255.48 309.051 259.1 306.661 262.5C305.491 264.16 303.631 265.05 301.751 265.05Z" fill="#160830"/>
</g>
<g clip-path="url(#clip2_65_13505)">
<path d="M199.508 363.125C199.635 363.16 199.752 363.195 199.87 363.229C199.578 363.185 199.285 363.158 199.001 363.142C198.762 363.128 198.514 363.122 198.275 363.127C198.582 363.071 198.859 363.05 199.106 363.065C199.253 363.074 199.39 363.091 199.508 363.125Z" fill="white"/>
<path d="M282.006 374.029L282.005 374.048C268.614 375.84 259.71 376.597 254.968 376.347C260.834 376.571 272.466 375.274 282.006 374.029Z" fill="white"/>
<path d="M313.386 370.816C308.722 361.213 297.701 360.089 288.017 362.052C277.466 363.422 264.599 365.548 254.937 365.258C243.345 364.92 217.769 355.62 205.237 352.963C200.556 351.971 195.892 351.652 191.275 353.35C181.79 356.935 175.842 365.346 177.093 376.193C180.525 403.997 231.093 422.829 253.833 423.683C273.637 425.358 294.033 416.901 303.782 405.658C312.953 395.633 318.623 382.881 313.442 370.948L313.377 370.806L313.386 370.816Z" fill="#160830"/>
<path d="M164.097 367.299C163.565 367.267 163.02 367.153 162.497 366.956C159.643 365.897 158.191 362.72 159.251 359.866C166.543 340.3 180.144 332.089 200.853 334.792C203.875 335.19 205.995 337.955 205.607 340.968C205.209 343.99 202.444 346.11 199.431 345.722C183.744 343.672 175.112 348.889 169.588 363.719C168.725 366.042 166.453 367.437 164.106 367.299L164.097 367.299Z" fill="#160830"/>
<path d="M278.294 408.02C278.037 408.953 277.314 409.674 276.395 409.979C268.132 412.66 257.17 413.978 243.367 411.182C243.285 411.168 243.203 411.154 243.122 411.131C241.36 410.734 239.582 410.307 237.777 409.861C237.74 409.859 237.704 409.848 237.659 409.836C229.235 407.558 219.851 403.788 209.48 397.991C209.071 397.765 208.661 397.529 208.261 397.294C207.86 397.068 207.46 396.833 207.069 396.59C202.926 394.12 199.575 391.642 196.892 389.222C196.898 389.121 196.903 389.029 196.909 388.938C196.919 388.772 196.928 388.607 196.938 388.442C197.032 387.298 198.144 386.535 199.248 386.857C214.316 391.309 237.414 397.042 260.163 398.374C266.059 398.719 271.936 398.769 277.642 398.423C278.611 398.369 279.423 399.116 279.422 400.082C279.404 402.436 279.014 405.468 278.313 408.021L278.294 408.02Z" fill="white"/>
<path d="M283.674 381.359C284.218 384.326 282.021 387.114 279.017 387.352C276.512 387.555 273.957 387.663 271.37 387.695C268.911 387.726 266.42 387.681 263.905 387.58C237.683 386.486 209.459 378.567 195.34 374.088C193.416 373.478 191.978 371.802 191.792 369.795C191.748 369.277 191.734 368.742 191.756 368.21C191.758 368.173 191.761 368.127 191.763 368.091C191.863 366.063 193.22 364.257 195.152 363.634C196.146 363.315 197.186 363.146 198.245 363.134C198.246 363.125 198.264 363.126 198.273 363.126C198.513 363.122 198.761 363.127 198.999 363.141C199.283 363.158 199.576 363.184 199.868 363.229C199.951 363.234 200.023 363.247 200.105 363.261C212.688 365.369 220.023 368.007 226.492 370.346C226.871 370.478 227.249 370.62 227.619 370.752C235.224 373.488 242.146 375.798 254.793 376.337L254.967 376.347C259.553 376.588 268.031 375.888 280.697 374.219C281.439 374.125 282.138 374.598 282.298 375.325C282.702 377.069 283.097 378.804 283.5 380.557C283.567 380.828 283.616 381.088 283.665 381.358L283.674 381.359Z" fill="white"/>
</g>
<g clip-path="url(#clip3_65_13505)">
<path d="M158.01 239.76C156.12 239.76 154.27 238.87 153.1 237.21C151.19 234.5 151.84 230.76 154.55 228.85C176.83 213.16 203.25 208.99 233.09 216.45C236.3 217.25 238.26 220.51 237.45 223.73C236.65 226.95 233.39 228.9 230.17 228.1C203.5 221.43 181.03 224.89 161.45 238.67C160.4 239.41 159.19 239.76 158 239.76H158.01Z" fill="#160830"/>
<path d="M273.909 221.6C272.399 221.6 270.899 221.04 269.729 219.9C267.349 217.59 267.299 213.79 269.609 211.42C283.579 197.05 302.549 190.6 325.959 192.25C329.269 192.48 331.759 195.35 331.519 198.66C331.289 201.96 328.419 204.45 325.109 204.22C305.089 202.81 289.759 207.9 278.199 219.78C277.019 220.99 275.459 221.6 273.899 221.6H273.909Z" fill="#160830"/>
</g>
</g>
<defs>
<clipPath id="clip0_65_13505">
<rect width="430.62" height="490.63" fill="white"/>
</clipPath>
<clipPath id="clip1_65_13505">
<rect width="148.68" height="50.17" fill="white" transform="translate(181 245)"/>
</clipPath>
<clipPath id="clip2_65_13505">
<rect width="157.395" height="85.8248" fill="white" transform="translate(160.627 332.28) rotate(3.35176)"/>
</clipPath>
<clipPath id="clip3_65_13505">
<rect width="179.54" height="47.76" fill="white" transform="translate(152 192)"/>
</clipPath>
</defs>
</svg>
